<svg xmlns="http://www.w3.org/2000/svg" width="1620" height="1050" viewBox="0 0 1620 1050">
<rect x="0" y="0" width="1620" height="1050" fill="#f7f3ea"/>
<style>text{font-family:Arial,Helvetica,sans-serif}</style>
<g transform="translate(-40 -20)">
<text x="60" y="65" fill="#15261f" font-size="25" font-weight="600" opacity="1"><tspan x="60" dy="0">01 · THE WHOLE JOURNEY IS A REAL GRAPH</tspan></text>
<text x="60" y="91" fill="#66736d" font-size="13" font-weight="500" opacity="1"><tspan x="60" dy="0">Default state: stable left-to-right tree, active route emphasized, every open question attached to its parent.</tspan></text>
<rect x="60" y="118" width="1580" height="932" rx="6" fill="#fffdf8" stroke="#15261f" stroke-width="3" opacity="1" />
<rect x="60" y="118" width="1580" height="48" rx="6" fill="#ece8df" stroke="#15261f" stroke-width="1" opacity="1" />
<ellipse cx="82.5" cy="140.5" rx="4.5" ry="4.5" fill="#ff7b67" stroke="#15261f" stroke-width="1" opacity="1"/>
<ellipse cx="100.5" cy="140.5" rx="4.5" ry="4.5" fill="#ffd166" stroke="#15261f" stroke-width="1" opacity="1"/>
<ellipse cx="118.5" cy="140.5" rx="4.5" ry="4.5" fill="#81d88d" stroke="#15261f" stroke-width="1" opacity="1"/>
<rect x="620" y="130" width="460" height="23" rx="6" fill="#ffffff" stroke="#bfc8c2" stroke-width="1" opacity="1" />
<text x="771" y="145" fill="#66736d" font-size="9" font-weight="500" opacity="1"><tspan x="771" dy="0">wonderdrive.app/journey</tspan></text>
<rect x="60" y="166" width="1580" height="70" rx="6" fill="#fffdf8" stroke="#15261f" stroke-width="1" opacity="1" />
<ellipse cx="102" cy="201" rx="18" ry="18" fill="#15261f" stroke="#15261f" stroke-width="1" opacity="1"/>
<text x="97" y="205" fill="#fffdf8" font-size="14" font-weight="500" opacity="1"><tspan x="97" dy="0">W</tspan></text>
<text x="133" y="202" fill="#15261f" font-size="16" font-weight="500" opacity="1"><tspan x="133" dy="0">WonderDrive</tspan></text>
<text x="133" y="218" fill="#66736d" font-size="9" font-weight="500" opacity="1"><tspan x="133" dy="0">CURIOSITY, PERFORMED</tspan></text>
<text x="1010" y="205" fill="#66736d" font-size="9" font-weight="500" opacity="1"><tspan x="1010" dy="0">NEW DRIVE</tspan></text>
<text x="1115" y="205" fill="#66736d" font-size="9" font-weight="500" opacity="1"><tspan x="1115" dy="0">LIBRARY</tspan></text>
<text x="1210" y="205" fill="#66736d" font-size="9" font-weight="500" opacity="1"><tspan x="1210" dy="0">COMPARE</tspan></text>
<rect x="1365" y="181" width="245" height="40" rx="6" fill="#edf2ee" stroke="#15261f" stroke-width="1" opacity="1" />
<text x="1382" y="203" fill="#15261f" font-size="10" font-weight="500" opacity="1"><tspan x="1382" dy="0">12 turns · 7 open paths</tspan></text>
<rect x="60" y="236" width="1580" height="62" rx="6" fill="#edf2ee" stroke="#15261f" stroke-width="1" opacity="1" />
<text x="84" y="261" fill="#15261f" font-size="14" font-weight="500" opacity="1"><tspan x="84" dy="0">Why do cities preserve some memories and erase others?</tspan></text>
<text x="84" y="281" fill="#66736d" font-size="9" font-weight="500" opacity="1"><tspan x="84" dy="0">Journey graph · You are at turn 8</tspan></text>
<rect x="620" y="249" width="330" height="36" rx="6" fill="#fffdf8" stroke="#bfc8c2" stroke-width="1" opacity="1" />
<text x="638" y="270" fill="#66736d" font-size="10" font-weight="500" opacity="1"><tspan x="638" dy="0">Search turns, topics, or open paths</tspan></text>
<rect x="1170" y="250" width="78" height="34" rx="6" fill="#fffdf8" stroke="#15261f" stroke-width="1" opacity="1" />
<text x="1180" y="269" fill="#15261f" font-size="10" font-weight="500" opacity="1"><tspan x="1180" dy="0">OPEN 7</tspan></text>
<rect x="1258" y="250" width="36" height="34" rx="6" fill="#fffdf8" stroke="#15261f" stroke-width="1" opacity="1" />
<text x="1268" y="269" fill="#15261f" font-size="10" font-weight="500" opacity="1"><tspan x="1268" dy="0">−</tspan></text>
<rect x="1304" y="250" width="36" height="34" rx="6" fill="#fffdf8" stroke="#15261f" stroke-width="1" opacity="1" />
<text x="1314" y="269" fill="#15261f" font-size="10" font-weight="500" opacity="1"><tspan x="1314" dy="0">+</tspan></text>
<rect x="1350" y="250" width="72" height="34" rx="6" fill="#fffdf8" stroke="#15261f" stroke-width="1" opacity="1" />
<text x="1360" y="269" fill="#15261f" font-size="10" font-weight="500" opacity="1"><tspan x="1360" dy="0">FIT ALL</tspan></text>
<rect x="1432" y="250" width="74" height="34" rx="6" fill="#15261f" stroke="#15261f" stroke-width="1" opacity="1" />
<text x="1442" y="269" fill="#fffdf8" font-size="10" font-weight="500" opacity="1"><tspan x="1442" dy="0">OVERVIEW</tspan></text>
<rect x="1516" y="250" width="36" height="34" rx="6" fill="#fffdf8" stroke="#15261f" stroke-width="1" opacity="1" />
<text x="1526" y="269" fill="#15261f" font-size="10" font-weight="500" opacity="1"><tspan x="1526" dy="0">?</tspan></text>
<polyline points="315,638 390,638 390,423 465,423" fill="none" stroke="#15261f" stroke-width="4" opacity="1" />
<text x="390" y="414" fill="#15261f" font-size="9" font-weight="500" opacity="1"><tspan x="390" dy="0">A · archaeology</tspan></text>
<polyline points="315,638 390,638 390,853 465,853" fill="none" stroke="#526800" stroke-width="2" opacity="1" stroke-dasharray="8 6"/>
<polyline points="465,423 540,423 540,358 615,358" fill="none" stroke="#15261f" stroke-width="4" opacity="1" />
<text x="540" y="349" fill="#15261f" font-size="9" font-weight="500" opacity="1"><tspan x="540" dy="0">B · civic power</tspan></text>
<polyline points="465,423 540,423 540,503 615,503" fill="none" stroke="#526800" stroke-width="2" opacity="1" stroke-dasharray="8 6"/>
<polyline points="845,358 915,358 915,348 990,348" fill="none" stroke="#15261f" stroke-width="4" opacity="1" />
<text x="915" y="339" fill="#15261f" font-size="9" font-weight="500" opacity="1"><tspan x="915" dy="0">A · monuments</tspan></text>
<polyline points="845,358 915,358 915,488 990,488" fill="none" stroke="#526800" stroke-width="2" opacity="1" stroke-dasharray="8 6"/>
<polyline points="1220,348 1280,348 1280,338 1340,338" fill="none" stroke="#15261f" stroke-width="4" opacity="1" />
<text x="1280" y="329" fill="#15261f" font-size="9" font-weight="500" opacity="1"><tspan x="1280" dy="0">B · removal</tspan></text>
<polyline points="1220,348 1280,348 1280,468 1340,468" fill="none" stroke="#526800" stroke-width="2" opacity="1" stroke-dasharray="8 6"/>
<rect x="85" y="586" width="230" height="104" rx="6" fill="#fffdf8" stroke="#bfc8c2" stroke-width="1" opacity="1" />
<ellipse cx="111" cy="612" rx="14" ry="14" fill="#edf2ee" stroke="#bfc8c2" stroke-width="1" opacity="1"/>
<text x="107" y="615" fill="#15261f" font-size="10" font-weight="500" opacity="1"><tspan x="107" dy="0">1</tspan></text>
<text x="136" y="608" fill="#66736d" font-size="9" font-weight="500" opacity="1"><tspan x="136" dy="0">CITY MEMORY</tspan></text>
<text x="99" y="647" fill="#15261f" font-size="14" font-weight="500" opacity="1"><tspan x="99" dy="0">Why do cities preserve</tspan><tspan x="99" dy="17.36">some memories?</tspan></text>
<rect x="99" y="660" width="52" height="28" rx="6" fill="#edf2ee" stroke="#15261f" stroke-width="1" opacity="1" />
<text x="109" y="677" fill="#15261f" font-size="10" font-weight="500" opacity="1"><tspan x="109" dy="0">ROOT</tspan></text>
<rect x="465" y="371" width="230" height="104" rx="6" fill="#fffdf8" stroke="#bfc8c2" stroke-width="1" opacity="1" />
<ellipse cx="491" cy="397" rx="14" ry="14" fill="#edf2ee" stroke="#bfc8c2" stroke-width="1" opacity="1"/>
<text x="487" y="400" fill="#15261f" font-size="10" font-weight="500" opacity="1"><tspan x="487" dy="0">2</tspan></text>
<text x="516" y="393" fill="#66736d" font-size="9" font-weight="500" opacity="1"><tspan x="516" dy="0">PUBLIC MEMORY</tspan></text>
<text x="479" y="432" fill="#15261f" font-size="14" font-weight="500" opacity="1"><tspan x="479" dy="0">Could archaeology recover</tspan><tspan x="479" dy="17.36">an erased neighborhood?</tspan></text>
<rect x="479" y="445" width="82" height="28" rx="6" fill="#edf2ee" stroke="#15261f" stroke-width="1" opacity="1" />
<text x="489" y="462" fill="#15261f" font-size="10" font-weight="500" opacity="1"><tspan x="489" dy="0">EXPLORED</tspan></text>
<rect x="465" y="811" width="208" height="82" rx="6" fill="#edffc1" stroke="#526800" stroke-width="1" opacity="1" stroke-dasharray="8 6"/>
<text x="477" y="831" fill="#526800" font-size="9" font-weight="500" opacity="1"><tspan x="477" dy="0">+ OPEN · 1B</tspan></text>
<text x="477" y="859" fill="#15261f" font-size="12" font-weight="500" opacity="1"><tspan x="477" dy="0">What do cities</tspan><tspan x="477" dy="14.879999999999999">choose to forget?</tspan></text>
<rect x="615" y="306" width="230" height="104" rx="6" fill="#fffdf8" stroke="#bfc8c2" stroke-width="1" opacity="1" />
<ellipse cx="641" cy="332" rx="14" ry="14" fill="#edf2ee" stroke="#bfc8c2" stroke-width="1" opacity="1"/>
<text x="637" y="335" fill="#15261f" font-size="10" font-weight="500" opacity="1"><tspan x="637" dy="0">3</tspan></text>
<text x="666" y="328" fill="#66736d" font-size="9" font-weight="500" opacity="1"><tspan x="666" dy="0">PUBLIC MEMORY</tspan></text>
<text x="629" y="367" fill="#15261f" font-size="14" font-weight="500" opacity="1"><tspan x="629" dy="0">Who decides what becomes</tspan><tspan x="629" dy="17.36">official memory?</tspan></text>
<rect x="629" y="380" width="82" height="28" rx="6" fill="#edf2ee" stroke="#15261f" stroke-width="1" opacity="1" />
<text x="639" y="397" fill="#15261f" font-size="10" font-weight="500" opacity="1"><tspan x="639" dy="0">EXPLORED</tspan></text>
<rect x="615" y="466" width="208" height="82" rx="6" fill="#edffc1" stroke="#526800" stroke-width="1" opacity="1" stroke-dasharray="8 6"/>
<text x="627" y="486" fill="#526800" font-size="9" font-weight="500" opacity="1"><tspan x="627" dy="0">+ OPEN · 2B</tspan></text>
<text x="627" y="514" fill="#15261f" font-size="12" font-weight="500" opacity="1"><tspan x="627" dy="0">Can unofficial</tspan><tspan x="627" dy="14.879999999999999">memory win?</tspan></text>
<rect x="990" y="296" width="230" height="104" rx="6" fill="#fffdf8" stroke="#bfc8c2" stroke-width="1" opacity="1" />
<ellipse cx="1016" cy="322" rx="14" ry="14" fill="#edf2ee" stroke="#bfc8c2" stroke-width="1" opacity="1"/>
<text x="1012" y="325" fill="#15261f" font-size="10" font-weight="500" opacity="1"><tspan x="1012" dy="0">4</tspan></text>
<text x="1041" y="318" fill="#66736d" font-size="9" font-weight="500" opacity="1"><tspan x="1041" dy="0">PUBLIC MEMORY</tspan></text>
<text x="1004" y="357" fill="#15261f" font-size="14" font-weight="500" opacity="1"><tspan x="1004" dy="0">When a monument and its</tspan><tspan x="1004" dy="17.36">community disagree</tspan></text>
<rect x="1004" y="370" width="82" height="28" rx="6" fill="#edf2ee" stroke="#15261f" stroke-width="1" opacity="1" />
<text x="1014" y="387" fill="#15261f" font-size="10" font-weight="500" opacity="1"><tspan x="1014" dy="0">EXPLORED</tspan></text>
<rect x="990" y="446" width="208" height="82" rx="6" fill="#edffc1" stroke="#526800" stroke-width="1" opacity="1" stroke-dasharray="8 6"/>
<text x="1002" y="466" fill="#526800" font-size="9" font-weight="500" opacity="1"><tspan x="1002" dy="0">+ OPEN · 3B</tspan></text>
<text x="1002" y="494" fill="#15261f" font-size="12" font-weight="500" opacity="1"><tspan x="1002" dy="0">Who gets to rename</tspan><tspan x="1002" dy="14.879999999999999">a public place?</tspan></text>
<rect x="1340" y="286" width="230" height="104" rx="6" fill="#a9d4ff" stroke="#15261f" stroke-width="3" opacity="1" />
<ellipse cx="1366" cy="312" rx="14" ry="14" fill="#dfff58" stroke="#15261f" stroke-width="1" opacity="1"/>
<text x="1362" y="315" fill="#15261f" font-size="10" font-weight="500" opacity="1"><tspan x="1362" dy="0">5</tspan></text>
<text x="1391" y="308" fill="#66736d" font-size="9" font-weight="500" opacity="1"><tspan x="1391" dy="0">PUBLIC MEMORY</tspan></text>
<text x="1354" y="347" fill="#15261f" font-size="14" font-weight="500" opacity="1"><tspan x="1354" dy="0">Can removal create</tspan><tspan x="1354" dy="17.36">a stronger memory?</tspan></text>
<rect x="1354" y="360" width="94" height="28" rx="6" fill="#dfff58" stroke="#15261f" stroke-width="1" opacity="1" />
<text x="1364" y="377" fill="#15261f" font-size="10" font-weight="500" opacity="1"><tspan x="1364" dy="0">YOU ARE HERE</tspan></text>
<rect x="1340" y="416" width="208" height="82" rx="6" fill="#edffc1" stroke="#526800" stroke-width="1" opacity="1" stroke-dasharray="8 6"/>
<text x="1352" y="436" fill="#526800" font-size="9" font-weight="500" opacity="1"><tspan x="1352" dy="0">+ OPEN · 5B</tspan></text>
<text x="1352" y="464" fill="#15261f" font-size="12" font-weight="500" opacity="1"><tspan x="1352" dy="0">What should replace</tspan><tspan x="1352" dy="14.879999999999999">a removed symbol?</tspan></text>
<rect x="1400" y="848" width="210" height="125" rx="6" fill="#fffdf8" stroke="#bfc8c2" stroke-width="1" opacity="1" />
<text x="1410" y="864" fill="#66736d" font-size="8" font-weight="500" opacity="1"><tspan x="1410" dy="0">OVERVIEW</tspan></text>
<ellipse cx="1424" cy="897" rx="4" ry="4" fill="#15261f" stroke="#15261f" stroke-width="1" opacity="1"/>
<ellipse cx="1458" cy="884" rx="4" ry="4" fill="#15261f" stroke="#15261f" stroke-width="1" opacity="1"/>
<ellipse cx="1458" cy="920" rx="4" ry="4" fill="#15261f" stroke="#15261f" stroke-width="1" opacity="1"/>
<ellipse cx="1492" cy="872" rx="4" ry="4" fill="#15261f" stroke="#15261f" stroke-width="1" opacity="1"/>
<ellipse cx="1492" cy="902" rx="4" ry="4" fill="#15261f" stroke="#15261f" stroke-width="1" opacity="1"/>
<ellipse cx="1492" cy="934" rx="4" ry="4" fill="#15261f" stroke="#15261f" stroke-width="1" opacity="1"/>
<ellipse cx="1528" cy="887" rx="4" ry="4" fill="#15261f" stroke="#15261f" stroke-width="1" opacity="1"/>
<ellipse cx="1528" cy="918" rx="4" ry="4" fill="#15261f" stroke="#15261f" stroke-width="1" opacity="1"/>
<ellipse cx="1562" cy="901" rx="4" ry="4" fill="#15261f" stroke="#15261f" stroke-width="1" opacity="1"/>
<polyline points="1424,897 1458,884 1458,920 1492,868 1492,898 1492,930 1528,883 1528,914 1562,897" fill="none" stroke="#bfc8c2" stroke-width="1" opacity="1" />
<rect x="1496" y="870" width="82" height="64" rx="6" fill="none" stroke="#ff8a76" stroke-width="2" opacity="1" />
<rect x="85" y="958" width="1530" height="78" rx="6" fill="#15261f" stroke="#15261f" stroke-width="1" opacity="1" />
<ellipse cx="121" cy="996" rx="20" ry="20" fill="#dfff58" stroke="#dfff58" stroke-width="1" opacity="1"/>
<text x="116" y="998" fill="#15261f" font-size="13" font-weight="500" opacity="1"><tspan x="116" dy="0">1</tspan></text>
<text x="157" y="985" fill="#dfff58" font-size="12" font-weight="500" opacity="1"><tspan x="157" dy="0">WHY THIS FEELS LIKE A TREE, NOT A HAIRBALL</tspan></text>
<text x="157" y="1008" fill="#fffdf8" font-size="11" font-weight="500" opacity="1"><tspan x="157" dy="0">One direction, orthogonal edges, one node type for researched turns, and a smaller leaf type for open questions.</tspan></text>
</g>
</svg>