<svg xmlns="http://www.w3.org/2000/svg" width="1620" height="1050" viewBox="0 0 1620 1050">
<rect x="0" y="0" width="1620" height="1050" fill="#f7f3ea"/>
<style>text{font-family:Arial,Helvetica,sans-serif}</style>
<g transform="translate(-1680 -20)">
<text x="1700" y="65" fill="#15261f" font-size="25" font-weight="600" opacity="1"><tspan x="1700" dy="0">02 · SELECT A TURN WITHOUT LOSING THE TREE</tspan></text>
<text x="1700" y="91" fill="#66736d" font-size="13" font-weight="500" opacity="1"><tspan x="1700" dy="0">Focus state: keep node positions fixed, highlight ancestry + immediate choices, open a non-destructive inspector.</tspan></text>
<rect x="1700" y="118" width="1580" height="932" rx="6" fill="#fffdf8" stroke="#15261f" stroke-width="3" opacity="1" />
<rect x="1700" y="118" width="1580" height="48" rx="6" fill="#ece8df" stroke="#15261f" stroke-width="1" opacity="1" />
<ellipse cx="1722.5" cy="140.5" rx="4.5" ry="4.5" fill="#ff7b67" stroke="#15261f" stroke-width="1" opacity="1"/>
<ellipse cx="1740.5" cy="140.5" rx="4.5" ry="4.5" fill="#ffd166" stroke="#15261f" stroke-width="1" opacity="1"/>
<ellipse cx="1758.5" cy="140.5" rx="4.5" ry="4.5" fill="#81d88d" stroke="#15261f" stroke-width="1" opacity="1"/>
<rect x="2260" y="130" width="460" height="23" rx="6" fill="#ffffff" stroke="#bfc8c2" stroke-width="1" opacity="1" />
<text x="2411" y="145" fill="#66736d" font-size="9" font-weight="500" opacity="1"><tspan x="2411" dy="0">curiositypedia.app/journey</tspan></text>
<rect x="1700" y="166" width="1580" height="70" rx="6" fill="#fffdf8" stroke="#15261f" stroke-width="1" opacity="1" />
<ellipse cx="1742" cy="201" rx="18" ry="18" fill="#15261f" stroke="#15261f" stroke-width="1" opacity="1"/>
<text x="1737" y="205" fill="#fffdf8" font-size="14" font-weight="500" opacity="1"><tspan x="1737" dy="0">C</tspan></text>
<text x="1773" y="202" fill="#15261f" font-size="16" font-weight="500" opacity="1"><tspan x="1773" dy="0">CuriosityPedia</tspan></text>
<text x="1773" y="218" fill="#66736d" font-size="9" font-weight="500" opacity="1"><tspan x="1773" dy="0">SOURCE-BACKED LEARNING</tspan></text>
<text x="2650" y="205" fill="#66736d" font-size="9" font-weight="500" opacity="1"><tspan x="2650" dy="0">NEW DRIVE</tspan></text>
<text x="2755" y="205" fill="#66736d" font-size="9" font-weight="500" opacity="1"><tspan x="2755" dy="0">LIBRARY</tspan></text>
<text x="2850" y="205" fill="#66736d" font-size="9" font-weight="500" opacity="1"><tspan x="2850" dy="0">COMPARE</tspan></text>
<rect x="3005" y="181" width="245" height="40" rx="6" fill="#edf2ee" stroke="#15261f" stroke-width="1" opacity="1" />
<text x="3022" y="203" fill="#15261f" font-size="10" font-weight="500" opacity="1"><tspan x="3022" dy="0">12 turns · selected turn 4</tspan></text>
<rect x="1700" y="236" width="1580" height="62" rx="6" fill="#edf2ee" stroke="#15261f" stroke-width="1" opacity="1" />
<text x="1724" y="261" fill="#15261f" font-size="14" font-weight="500" opacity="1"><tspan x="1724" dy="0">Why do cities preserve some memories and erase others?</tspan></text>
<text x="1724" y="281" fill="#66736d" font-size="9" font-weight="500" opacity="1"><tspan x="1724" dy="0">Root › archaeology › civic power › selected turn 4</tspan></text>
<rect x="2260" y="249" width="330" height="36" rx="6" fill="#fffdf8" stroke="#bfc8c2" stroke-width="1" opacity="1" />
<text x="2278" y="270" fill="#66736d" font-size="10" font-weight="500" opacity="1"><tspan x="2278" dy="0">Search turns, topics, or open paths</tspan></text>
<rect x="2810" y="250" width="78" height="34" rx="6" fill="#fffdf8" stroke="#15261f" stroke-width="1" opacity="1" />
<text x="2820" y="269" fill="#15261f" font-size="10" font-weight="500" opacity="1"><tspan x="2820" dy="0">OPEN 7</tspan></text>
<rect x="2898" y="250" width="36" height="34" rx="6" fill="#fffdf8" stroke="#15261f" stroke-width="1" opacity="1" />
<text x="2908" y="269" fill="#15261f" font-size="10" font-weight="500" opacity="1"><tspan x="2908" dy="0">−</tspan></text>
<rect x="2944" y="250" width="36" height="34" rx="6" fill="#fffdf8" stroke="#15261f" stroke-width="1" opacity="1" />
<text x="2954" y="269" fill="#15261f" font-size="10" font-weight="500" opacity="1"><tspan x="2954" dy="0">+</tspan></text>
<rect x="2990" y="250" width="72" height="34" rx="6" fill="#fffdf8" stroke="#15261f" stroke-width="1" opacity="1" />
<text x="3000" y="269" fill="#15261f" font-size="10" font-weight="500" opacity="1"><tspan x="3000" dy="0">FIT ALL</tspan></text>
<rect x="3072" y="250" width="74" height="34" rx="6" fill="#15261f" stroke="#15261f" stroke-width="1" opacity="1" />
<text x="3082" y="269" fill="#fffdf8" font-size="10" font-weight="500" opacity="1"><tspan x="3082" dy="0">FOCUS</tspan></text>
<rect x="3156" y="250" width="36" height="34" rx="6" fill="#fffdf8" stroke="#15261f" stroke-width="1" opacity="1" />
<text x="3166" y="269" fill="#15261f" font-size="10" font-weight="500" opacity="1"><tspan x="3166" dy="0">?</tspan></text>
<polyline points="1915,648 1980,648 1980,473 2045,473" fill="none" stroke="#bfc8c2" stroke-width="2" opacity="0.35" />
<polyline points="1915,648 1980,648 1980,823 2045,823" fill="none" stroke="#bfc8c2" stroke-width="2" opacity="0.35" />
<polyline points="2235,473 2295,473 2295,403 2360,403" fill="none" stroke="#15261f" stroke-width="4" opacity="1" />
<polyline points="2235,473 2295,473 2295,558 2360,558" fill="none" stroke="#526800" stroke-width="2" opacity="1" stroke-dasharray="8 6"/>
<polyline points="2590,403 2645,403 2645,393 2705,393" fill="none" stroke="#15261f" stroke-width="4" opacity="1" />
<polyline points="2590,403 2645,403 2645,533 2705,533" fill="none" stroke="#526800" stroke-width="2" opacity="1" stroke-dasharray="8 6"/>
<rect x="1725" y="596" width="190" height="104" rx="6" fill="#edf2ee" stroke="#bfc8c2" stroke-width="1" opacity="0.44" />
<ellipse cx="1751" cy="622" rx="14" ry="14" fill="#edf2ee" stroke="#bfc8c2" stroke-width="1" opacity="0.44"/>
<text x="1747" y="625" fill="#15261f" font-size="10" font-weight="500" opacity="0.44"><tspan x="1747" dy="0">1</tspan></text>
<text x="1776" y="618" fill="#66736d" font-size="9" font-weight="500" opacity="0.44"><tspan x="1776" dy="0">PUBLIC MEMORY</tspan></text>
<text x="1739" y="657" fill="#15261f" font-size="14" font-weight="500" opacity="0.44"><tspan x="1739" dy="0">Why do cities preserve</tspan><tspan x="1739" dy="17.36">some memories?</tspan></text>
<rect x="2045" y="421" width="190" height="104" rx="6" fill="#edf2ee" stroke="#bfc8c2" stroke-width="1" opacity="0.44" />
<ellipse cx="2071" cy="447" rx="14" ry="14" fill="#edf2ee" stroke="#bfc8c2" stroke-width="1" opacity="0.44"/>
<text x="2067" y="450" fill="#15261f" font-size="10" font-weight="500" opacity="0.44"><tspan x="2067" dy="0">2</tspan></text>
<text x="2096" y="443" fill="#66736d" font-size="9" font-weight="500" opacity="0.44"><tspan x="2096" dy="0">PUBLIC MEMORY</tspan></text>
<text x="2059" y="482" fill="#15261f" font-size="14" font-weight="500" opacity="0.44"><tspan x="2059" dy="0">Archaeology and</tspan><tspan x="2059" dy="17.36">erased neighborhoods</tspan></text>
<rect x="2045" y="771" width="190" height="82" rx="6" fill="#edffc1" stroke="#526800" stroke-width="1" opacity="0.42" stroke-dasharray="8 6"/>
<text x="2057" y="791" fill="#526800" font-size="9" font-weight="500" opacity="0.42"><tspan x="2057" dy="0">+ OPEN · 1B</tspan></text>
<text x="2057" y="819" fill="#15261f" font-size="12" font-weight="500" opacity="0.42"><tspan x="2057" dy="0">What do cities</tspan><tspan x="2057" dy="14.879999999999999">choose to forget?</tspan></text>
<rect x="2360" y="351" width="230" height="104" rx="6" fill="#fffdf8" stroke="#bfc8c2" stroke-width="1" opacity="1" />
<ellipse cx="2386" cy="377" rx="14" ry="14" fill="#edf2ee" stroke="#bfc8c2" stroke-width="1" opacity="1"/>
<text x="2382" y="380" fill="#15261f" font-size="10" font-weight="500" opacity="1"><tspan x="2382" dy="0">3</tspan></text>
<text x="2411" y="373" fill="#66736d" font-size="9" font-weight="500" opacity="1"><tspan x="2411" dy="0">PUBLIC MEMORY</tspan></text>
<text x="2374" y="412" fill="#15261f" font-size="14" font-weight="500" opacity="1"><tspan x="2374" dy="0">Who decides official</tspan><tspan x="2374" dy="17.36">memory?</tspan></text>
<rect x="2374" y="425" width="82" height="28" rx="6" fill="#edf2ee" stroke="#15261f" stroke-width="1" opacity="1" />
<text x="2384" y="442" fill="#15261f" font-size="10" font-weight="500" opacity="1"><tspan x="2384" dy="0">ANCESTOR</tspan></text>
<rect x="2360" y="516" width="210" height="82" rx="6" fill="#edffc1" stroke="#526800" stroke-width="1" opacity="1" stroke-dasharray="8 6"/>
<text x="2372" y="536" fill="#526800" font-size="9" font-weight="500" opacity="1"><tspan x="2372" dy="0">+ OPEN · 3B</tspan></text>
<text x="2372" y="564" fill="#15261f" font-size="12" font-weight="500" opacity="1"><tspan x="2372" dy="0">Can unofficial</tspan><tspan x="2372" dy="14.879999999999999">memory win?</tspan></text>
<rect x="2705" y="341" width="250" height="104" rx="6" fill="#ffd8d0" stroke="#15261f" stroke-width="3" opacity="1" />
<ellipse cx="2731" cy="367" rx="14" ry="14" fill="#edf2ee" stroke="#15261f" stroke-width="1" opacity="1"/>
<text x="2727" y="370" fill="#15261f" font-size="10" font-weight="500" opacity="1"><tspan x="2727" dy="0">4</tspan></text>
<text x="2756" y="363" fill="#66736d" font-size="9" font-weight="500" opacity="1"><tspan x="2756" dy="0">PUBLIC MEMORY</tspan></text>
<text x="2719" y="402" fill="#15261f" font-size="14" font-weight="500" opacity="1"><tspan x="2719" dy="0">When a monument and its</tspan><tspan x="2719" dy="17.36">community disagree</tspan></text>
<rect x="2719" y="415" width="82" height="28" rx="6" fill="#ffd8d0" stroke="#15261f" stroke-width="1" opacity="1" />
<text x="2729" y="432" fill="#15261f" font-size="10" font-weight="500" opacity="1"><tspan x="2729" dy="0">SELECTED</tspan></text>
<rect x="2705" y="481" width="230" height="82" rx="6" fill="#edffc1" stroke="#526800" stroke-width="1" opacity="1" stroke-dasharray="8 6"/>
<text x="2717" y="501" fill="#526800" font-size="9" font-weight="500" opacity="1"><tspan x="2717" dy="0">+ OPEN · 4B</tspan></text>
<text x="2717" y="529" fill="#15261f" font-size="12" font-weight="500" opacity="1"><tspan x="2717" dy="0">Who gets to rename</tspan><tspan x="2717" dy="14.879999999999999">a public place?</tspan></text>
<rect x="2810" y="323" width="440" height="620" rx="6" fill="#fffdf8" stroke="#15261f" stroke-width="3" opacity="1" />
<text x="2840" y="356" fill="#d64b38" font-size="10" font-weight="500" opacity="1"><tspan x="2840" dy="0">TURN 4 · SELECTED</tspan></text>
<text x="3198" y="364" fill="#15261f" font-size="22" font-weight="600" opacity="1"><tspan x="3198" dy="0">×</tspan></text>
<text x="2840" y="402" fill="#15261f" font-size="24" font-weight="600" opacity="1"><tspan x="2840" dy="0">When a monument and its</tspan><tspan x="2840" dy="29.759999999999998">community disagree</tspan></text>
<text x="2840" y="458" fill="#66736d" font-size="10" font-weight="500" opacity="1"><tspan x="2840" dy="0">Sage · researched · 8 sources</tspan></text>
<rect x="2840" y="483" width="380" height="150" rx="6" fill="#edf2ee" stroke="#15261f" stroke-width="1" opacity="1" />
<text x="2860" y="513" fill="#66736d" font-size="9" font-weight="500" opacity="1"><tspan x="2860" dy="0">ANSWER AT A GLANCE</tspan></text>
<text x="2860" y="547" fill="#15261f" font-size="15" font-weight="500" opacity="1"><tspan x="2860" dy="0">Conflict begins when official meaning</tspan><tspan x="2860" dy="18.6">no longer matches lived experience.</tspan><tspan x="2860" dy="18.6">The question is who may define place.</tspan></text>
<text x="2860" y="614" fill="#15261f" font-size="10" font-weight="500" opacity="1"><tspan x="2860" dy="0">Open full answer  →</tspan></text>
<text x="2840" y="675" fill="#66736d" font-size="9" font-weight="500" opacity="1"><tspan x="2840" dy="0">TWO DIRECTIONS FROM HERE</tspan></text>
<rect x="2840" y="693" width="380" height="78" rx="6" fill="#edffc1" stroke="#526800" stroke-width="1" opacity="1" />
<text x="2860" y="723" fill="#15261f" font-size="13" font-weight="500" opacity="1"><tspan x="2860" dy="0">A · Who gets to rename a public place?</tspan></text>
<text x="2860" y="751" fill="#526800" font-size="9" font-weight="500" opacity="1"><tspan x="2860" dy="0">OPEN PATH</tspan></text>
<rect x="2840" y="784" width="380" height="78" rx="6" fill="#a9d4ff" stroke="#15261f" stroke-width="1" opacity="1" />
<text x="2860" y="814" fill="#15261f" font-size="13" font-weight="500" opacity="1"><tspan x="2860" dy="0">B · Can removal strengthen memory?</tspan></text>
<text x="2860" y="842" fill="#235a86" font-size="9" font-weight="500" opacity="1"><tspan x="2860" dy="0">PATH TAKEN · OPEN CHILD</tspan></text>
<rect x="2840" y="884" width="185" height="38" rx="6" fill="#15261f" stroke="#15261f" stroke-width="1" opacity="1" />
<text x="2872" y="906" fill="#fffdf8" font-size="10" font-weight="500" opacity="1"><tspan x="2872" dy="0">REVISIT FROM HERE</tspan></text>
<text x="3040" y="907" fill="#15261f" font-size="10" font-weight="500" opacity="1"><tspan x="3040" dy="0">Copy link</tspan></text>
<rect x="1725" y="828" width="210" height="125" rx="6" fill="#fffdf8" stroke="#bfc8c2" stroke-width="1" opacity="1" />
<text x="1735" y="844" fill="#66736d" font-size="8" font-weight="500" opacity="1"><tspan x="1735" dy="0">OVERVIEW</tspan></text>
<ellipse cx="1749" cy="877" rx="4" ry="4" fill="#15261f" stroke="#15261f" stroke-width="1" opacity="1"/>
<ellipse cx="1783" cy="864" rx="4" ry="4" fill="#15261f" stroke="#15261f" stroke-width="1" opacity="1"/>
<ellipse cx="1783" cy="900" rx="4" ry="4" fill="#15261f" stroke="#15261f" stroke-width="1" opacity="1"/>
<ellipse cx="1817" cy="852" rx="4" ry="4" fill="#15261f" stroke="#15261f" stroke-width="1" opacity="1"/>
<ellipse cx="1817" cy="882" rx="4" ry="4" fill="#15261f" stroke="#15261f" stroke-width="1" opacity="1"/>
<ellipse cx="1817" cy="914" rx="4" ry="4" fill="#15261f" stroke="#15261f" stroke-width="1" opacity="1"/>
<ellipse cx="1853" cy="867" rx="4" ry="4" fill="#15261f" stroke="#15261f" stroke-width="1" opacity="1"/>
<ellipse cx="1853" cy="898" rx="4" ry="4" fill="#15261f" stroke="#15261f" stroke-width="1" opacity="1"/>
<ellipse cx="1887" cy="881" rx="4" ry="4" fill="#15261f" stroke="#15261f" stroke-width="1" opacity="1"/>
<polyline points="1749,877 1783,864 1783,900 1817,848 1817,878 1817,910 1853,863 1853,894 1887,877" fill="none" stroke="#bfc8c2" stroke-width="1" opacity="1" />
<rect x="1830" y="848" width="66" height="64" rx="6" fill="none" stroke="#ff8a76" stroke-width="2" opacity="1" />
<rect x="1725" y="958" width="1530" height="78" rx="6" fill="#15261f" stroke="#15261f" stroke-width="1" opacity="1" />
<ellipse cx="1761" cy="996" rx="20" ry="20" fill="#dfff58" stroke="#dfff58" stroke-width="1" opacity="1"/>
<text x="1756" y="998" fill="#15261f" font-size="13" font-weight="500" opacity="1"><tspan x="1756" dy="0">2</tspan></text>
<text x="1797" y="985" fill="#dfff58" font-size="12" font-weight="500" opacity="1"><tspan x="1797" dy="0">THE GRAPH NEVER JUMPS</tspan></text>
<text x="1797" y="1008" fill="#fffdf8" font-size="11" font-weight="500" opacity="1"><tspan x="1797" dy="0">Selection changes emphasis and details, not coordinates. Closing the inspector returns to the exact same spatial position.</tspan></text>
</g>
</svg>