<svg xmlns="http://www.w3.org/2000/svg" width="1620" height="1050" viewBox="0 0 1620 1050">
<rect x="0" y="0" width="1620" height="1050" fill="#f7f3ea"/>
<style>text{font-family:Arial,Helvetica,sans-serif}</style>
<g transform="translate(-40 -1100)">
<text x="60" y="1145" fill="#15261f" font-size="25" font-weight="600" opacity="1"><tspan x="60" dy="0">03 · A LARGE JOURNEY STAYS LEGIBLE</tspan></text>
<text x="60" y="1171" fill="#66736d" font-size="13" font-weight="500" opacity="1"><tspan x="60" dy="0">Dense state: semantic zoom, collapsed branch clusters, pinned active route, and minimap orientation.</tspan></text>
<rect x="60" y="1198" width="1580" height="932" rx="6" fill="#fffdf8" stroke="#15261f" stroke-width="3" opacity="1" />
<rect x="60" y="1198" width="1580" height="48" rx="6" fill="#ece8df" stroke="#15261f" stroke-width="1" opacity="1" />
<ellipse cx="82.5" cy="1220.5" rx="4.5" ry="4.5" fill="#ff7b67" stroke="#15261f" stroke-width="1" opacity="1"/>
<ellipse cx="100.5" cy="1220.5" rx="4.5" ry="4.5" fill="#ffd166" stroke="#15261f" stroke-width="1" opacity="1"/>
<ellipse cx="118.5" cy="1220.5" rx="4.5" ry="4.5" fill="#81d88d" stroke="#15261f" stroke-width="1" opacity="1"/>
<rect x="620" y="1210" width="460" height="23" rx="6" fill="#ffffff" stroke="#bfc8c2" stroke-width="1" opacity="1" />
<text x="771" y="1225" fill="#66736d" font-size="9" font-weight="500" opacity="1"><tspan x="771" dy="0">curiositypedia.app/journey</tspan></text>
<rect x="60" y="1246" width="1580" height="70" rx="6" fill="#fffdf8" stroke="#15261f" stroke-width="1" opacity="1" />
<ellipse cx="102" cy="1281" rx="18" ry="18" fill="#15261f" stroke="#15261f" stroke-width="1" opacity="1"/>
<text x="97" y="1285" fill="#fffdf8" font-size="14" font-weight="500" opacity="1"><tspan x="97" dy="0">C</tspan></text>
<text x="133" y="1282" fill="#15261f" font-size="16" font-weight="500" opacity="1"><tspan x="133" dy="0">CuriosityPedia</tspan></text>
<text x="133" y="1298" fill="#66736d" font-size="9" font-weight="500" opacity="1"><tspan x="133" dy="0">SOURCE-BACKED LEARNING</tspan></text>
<text x="1010" y="1285" fill="#66736d" font-size="9" font-weight="500" opacity="1"><tspan x="1010" dy="0">NEW DRIVE</tspan></text>
<text x="1115" y="1285" fill="#66736d" font-size="9" font-weight="500" opacity="1"><tspan x="1115" dy="0">LIBRARY</tspan></text>
<text x="1210" y="1285" fill="#66736d" font-size="9" font-weight="500" opacity="1"><tspan x="1210" dy="0">COMPARE</tspan></text>
<rect x="1365" y="1261" width="245" height="40" rx="6" fill="#edf2ee" stroke="#15261f" stroke-width="1" opacity="1" />
<text x="1382" y="1283" fill="#15261f" font-size="10" font-weight="500" opacity="1"><tspan x="1382" dy="0">58 turns · 31 open paths</tspan></text>
<rect x="60" y="1316" width="1580" height="62" rx="6" fill="#edf2ee" stroke="#15261f" stroke-width="1" opacity="1" />
<text x="84" y="1341" fill="#15261f" font-size="14" font-weight="500" opacity="1"><tspan x="84" dy="0">Why do cities preserve some memories and erase others?</tspan></text>
<text x="84" y="1361" fill="#66736d" font-size="9" font-weight="500" opacity="1"><tspan x="84" dy="0">Focus mode · active route + branch summaries</tspan></text>
<rect x="620" y="1329" width="330" height="36" rx="6" fill="#fffdf8" stroke="#bfc8c2" stroke-width="1" opacity="1" />
<text x="638" y="1350" fill="#66736d" font-size="10" font-weight="500" opacity="1"><tspan x="638" dy="0">Search turns, topics, or open paths</tspan></text>
<rect x="1170" y="1330" width="78" height="34" rx="6" fill="#fffdf8" stroke="#15261f" stroke-width="1" opacity="1" />
<text x="1180" y="1349" fill="#15261f" font-size="10" font-weight="500" opacity="1"><tspan x="1180" dy="0">OPEN 31</tspan></text>
<rect x="1258" y="1330" width="36" height="34" rx="6" fill="#fffdf8" stroke="#15261f" stroke-width="1" opacity="1" />
<text x="1268" y="1349" fill="#15261f" font-size="10" font-weight="500" opacity="1"><tspan x="1268" dy="0">−</tspan></text>
<rect x="1304" y="1330" width="36" height="34" rx="6" fill="#fffdf8" stroke="#15261f" stroke-width="1" opacity="1" />
<text x="1314" y="1349" fill="#15261f" font-size="10" font-weight="500" opacity="1"><tspan x="1314" dy="0">+</tspan></text>
<rect x="1350" y="1330" width="72" height="34" rx="6" fill="#fffdf8" stroke="#15261f" stroke-width="1" opacity="1" />
<text x="1360" y="1349" fill="#15261f" font-size="10" font-weight="500" opacity="1"><tspan x="1360" dy="0">FIT ALL</tspan></text>
<rect x="1432" y="1330" width="74" height="34" rx="6" fill="#15261f" stroke="#15261f" stroke-width="1" opacity="1" />
<text x="1442" y="1349" fill="#fffdf8" font-size="10" font-weight="500" opacity="1"><tspan x="1442" dy="0">FOCUS</tspan></text>
<rect x="1516" y="1330" width="36" height="34" rx="6" fill="#fffdf8" stroke="#15261f" stroke-width="1" opacity="1" />
<text x="1526" y="1349" fill="#15261f" font-size="10" font-weight="500" opacity="1"><tspan x="1526" dy="0">?</tspan></text>
<ellipse cx="126" cy="1444" rx="6" ry="6" fill="#edffc1" stroke="#bfc8c2" stroke-width="1" opacity="0.55"/>
<polyline points="132,1444 194,1444 194,1426 254,1426" fill="none" stroke="#bfc8c2" stroke-width="1" opacity="0.38" />
<ellipse cx="144" cy="1499" rx="6" ry="6" fill="#edf2ee" stroke="#bfc8c2" stroke-width="1" opacity="0.55"/>
<polyline points="150,1499 212,1499 212,1517 272,1517" fill="none" stroke="#bfc8c2" stroke-width="1" opacity="0.38" />
<ellipse cx="126" cy="1554" rx="6" ry="6" fill="#edf2ee" stroke="#bfc8c2" stroke-width="1" opacity="0.55"/>
<polyline points="132,1554 194,1554 194,1536 254,1536" fill="none" stroke="#bfc8c2" stroke-width="1" opacity="0.38" />
<ellipse cx="144" cy="1609" rx="6" ry="6" fill="#edffc1" stroke="#bfc8c2" stroke-width="1" opacity="0.55"/>
<polyline points="150,1609 212,1609 212,1627 272,1627" fill="none" stroke="#bfc8c2" stroke-width="1" opacity="0.38" />
<ellipse cx="126" cy="1664" rx="6" ry="6" fill="#edf2ee" stroke="#bfc8c2" stroke-width="1" opacity="0.55"/>
<polyline points="132,1664 194,1664 194,1646 254,1646" fill="none" stroke="#bfc8c2" stroke-width="1" opacity="0.38" />
<ellipse cx="144" cy="1719" rx="6" ry="6" fill="#edf2ee" stroke="#bfc8c2" stroke-width="1" opacity="0.55"/>
<polyline points="150,1719 212,1719 212,1737 272,1737" fill="none" stroke="#bfc8c2" stroke-width="1" opacity="0.38" />
<ellipse cx="126" cy="1774" rx="6" ry="6" fill="#edffc1" stroke="#bfc8c2" stroke-width="1" opacity="0.55"/>
<polyline points="132,1774 194,1774 194,1756 254,1756" fill="none" stroke="#bfc8c2" stroke-width="1" opacity="0.38" />
<ellipse cx="144" cy="1829" rx="6" ry="6" fill="#edf2ee" stroke="#bfc8c2" stroke-width="1" opacity="0.55"/>
<polyline points="150,1829 212,1829 212,1847 272,1847" fill="none" stroke="#bfc8c2" stroke-width="1" opacity="0.38" />
<ellipse cx="316" cy="1444" rx="6" ry="6" fill="#edffc1" stroke="#bfc8c2" stroke-width="1" opacity="0.55"/>
<polyline points="322,1444 384,1444 384,1426 444,1426" fill="none" stroke="#bfc8c2" stroke-width="1" opacity="0.38" />
<ellipse cx="334" cy="1499" rx="6" ry="6" fill="#edf2ee" stroke="#bfc8c2" stroke-width="1" opacity="0.55"/>
<polyline points="340,1499 402,1499 402,1517 462,1517" fill="none" stroke="#bfc8c2" stroke-width="1" opacity="0.38" />
<ellipse cx="316" cy="1554" rx="6" ry="6" fill="#edf2ee" stroke="#bfc8c2" stroke-width="1" opacity="0.55"/>
<polyline points="322,1554 384,1554 384,1536 444,1536" fill="none" stroke="#bfc8c2" stroke-width="1" opacity="0.38" />
<ellipse cx="334" cy="1609" rx="6" ry="6" fill="#edffc1" stroke="#bfc8c2" stroke-width="1" opacity="0.55"/>
<polyline points="340,1609 402,1609 402,1627 462,1627" fill="none" stroke="#bfc8c2" stroke-width="1" opacity="0.38" />
<ellipse cx="316" cy="1664" rx="6" ry="6" fill="#edf2ee" stroke="#bfc8c2" stroke-width="1" opacity="0.55"/>
<polyline points="322,1664 384,1664 384,1646 444,1646" fill="none" stroke="#bfc8c2" stroke-width="1" opacity="0.38" />
<ellipse cx="334" cy="1719" rx="6" ry="6" fill="#edf2ee" stroke="#bfc8c2" stroke-width="1" opacity="0.55"/>
<polyline points="340,1719 402,1719 402,1737 462,1737" fill="none" stroke="#bfc8c2" stroke-width="1" opacity="0.38" />
<ellipse cx="316" cy="1774" rx="6" ry="6" fill="#edffc1" stroke="#bfc8c2" stroke-width="1" opacity="0.55"/>
<polyline points="322,1774 384,1774 384,1756 444,1756" fill="none" stroke="#bfc8c2" stroke-width="1" opacity="0.38" />
<ellipse cx="334" cy="1829" rx="6" ry="6" fill="#edf2ee" stroke="#bfc8c2" stroke-width="1" opacity="0.55"/>
<polyline points="340,1829 402,1829 402,1847 462,1847" fill="none" stroke="#bfc8c2" stroke-width="1" opacity="0.38" />
<ellipse cx="506" cy="1444" rx="6" ry="6" fill="#edffc1" stroke="#bfc8c2" stroke-width="1" opacity="0.55"/>
<polyline points="512,1444 574,1444 574,1426 634,1426" fill="none" stroke="#bfc8c2" stroke-width="1" opacity="0.38" />
<ellipse cx="524" cy="1499" rx="6" ry="6" fill="#edf2ee" stroke="#bfc8c2" stroke-width="1" opacity="0.55"/>
<polyline points="530,1499 592,1499 592,1517 652,1517" fill="none" stroke="#bfc8c2" stroke-width="1" opacity="0.38" />
<ellipse cx="506" cy="1774" rx="6" ry="6" fill="#edffc1" stroke="#bfc8c2" stroke-width="1" opacity="0.55"/>
<polyline points="512,1774 574,1774 574,1756 634,1756" fill="none" stroke="#bfc8c2" stroke-width="1" opacity="0.38" />
<ellipse cx="524" cy="1829" rx="6" ry="6" fill="#edf2ee" stroke="#bfc8c2" stroke-width="1" opacity="0.55"/>
<polyline points="530,1829 592,1829 592,1847 652,1847" fill="none" stroke="#bfc8c2" stroke-width="1" opacity="0.38" />
<ellipse cx="696" cy="1444" rx="6" ry="6" fill="#edffc1" stroke="#bfc8c2" stroke-width="1" opacity="0.55"/>
<polyline points="702,1444 764,1444 764,1426 824,1426" fill="none" stroke="#bfc8c2" stroke-width="1" opacity="0.38" />
<ellipse cx="714" cy="1499" rx="6" ry="6" fill="#edf2ee" stroke="#bfc8c2" stroke-width="1" opacity="0.55"/>
<polyline points="720,1499 782,1499 782,1517 842,1517" fill="none" stroke="#bfc8c2" stroke-width="1" opacity="0.38" />
<ellipse cx="696" cy="1774" rx="6" ry="6" fill="#edffc1" stroke="#bfc8c2" stroke-width="1" opacity="0.55"/>
<polyline points="702,1774 764,1774 764,1756 824,1756" fill="none" stroke="#bfc8c2" stroke-width="1" opacity="0.38" />
<ellipse cx="714" cy="1829" rx="6" ry="6" fill="#edf2ee" stroke="#bfc8c2" stroke-width="1" opacity="0.55"/>
<polyline points="720,1829 782,1829 782,1847 842,1847" fill="none" stroke="#bfc8c2" stroke-width="1" opacity="0.38" />
<ellipse cx="886" cy="1444" rx="6" ry="6" fill="#edffc1" stroke="#bfc8c2" stroke-width="1" opacity="0.55"/>
<polyline points="892,1444 954,1444 954,1426 1014,1426" fill="none" stroke="#bfc8c2" stroke-width="1" opacity="0.38" />
<ellipse cx="904" cy="1499" rx="6" ry="6" fill="#edf2ee" stroke="#bfc8c2" stroke-width="1" opacity="0.55"/>
<polyline points="910,1499 972,1499 972,1517 1032,1517" fill="none" stroke="#bfc8c2" stroke-width="1" opacity="0.38" />
<ellipse cx="886" cy="1774" rx="6" ry="6" fill="#edffc1" stroke="#bfc8c2" stroke-width="1" opacity="0.55"/>
<polyline points="892,1774 954,1774 954,1756 1014,1756" fill="none" stroke="#bfc8c2" stroke-width="1" opacity="0.38" />
<ellipse cx="904" cy="1829" rx="6" ry="6" fill="#edf2ee" stroke="#bfc8c2" stroke-width="1" opacity="0.55"/>
<polyline points="910,1829 972,1829 972,1847 1032,1847" fill="none" stroke="#bfc8c2" stroke-width="1" opacity="0.38" />
<ellipse cx="1076" cy="1444" rx="6" ry="6" fill="#edffc1" stroke="#bfc8c2" stroke-width="1" opacity="0.55"/>
<polyline points="1082,1444 1144,1444 1144,1426 1204,1426" fill="none" stroke="#bfc8c2" stroke-width="1" opacity="0.38" />
<ellipse cx="1094" cy="1499" rx="6" ry="6" fill="#edf2ee" stroke="#bfc8c2" stroke-width="1" opacity="0.55"/>
<polyline points="1100,1499 1162,1499 1162,1517 1222,1517" fill="none" stroke="#bfc8c2" stroke-width="1" opacity="0.38" />
<ellipse cx="1076" cy="1774" rx="6" ry="6" fill="#edffc1" stroke="#bfc8c2" stroke-width="1" opacity="0.55"/>
<polyline points="1082,1774 1144,1774 1144,1756 1204,1756" fill="none" stroke="#bfc8c2" stroke-width="1" opacity="0.38" />
<ellipse cx="1094" cy="1829" rx="6" ry="6" fill="#edf2ee" stroke="#bfc8c2" stroke-width="1" opacity="0.55"/>
<polyline points="1100,1829 1162,1829 1162,1847 1222,1847" fill="none" stroke="#bfc8c2" stroke-width="1" opacity="0.38" />
<ellipse cx="1266" cy="1444" rx="6" ry="6" fill="#edffc1" stroke="#bfc8c2" stroke-width="1" opacity="0.55"/>
<ellipse cx="1284" cy="1499" rx="6" ry="6" fill="#edf2ee" stroke="#bfc8c2" stroke-width="1" opacity="0.55"/>
<ellipse cx="1266" cy="1554" rx="6" ry="6" fill="#edf2ee" stroke="#bfc8c2" stroke-width="1" opacity="0.55"/>
<ellipse cx="1284" cy="1609" rx="6" ry="6" fill="#edffc1" stroke="#bfc8c2" stroke-width="1" opacity="0.55"/>
<ellipse cx="1266" cy="1664" rx="6" ry="6" fill="#edf2ee" stroke="#bfc8c2" stroke-width="1" opacity="0.55"/>
<ellipse cx="1284" cy="1719" rx="6" ry="6" fill="#edf2ee" stroke="#bfc8c2" stroke-width="1" opacity="0.55"/>
<ellipse cx="1266" cy="1774" rx="6" ry="6" fill="#edffc1" stroke="#bfc8c2" stroke-width="1" opacity="0.55"/>
<ellipse cx="1284" cy="1829" rx="6" ry="6" fill="#edf2ee" stroke="#bfc8c2" stroke-width="1" opacity="0.55"/>
<polyline points="350,1708 430,1708 430,1548 505,1548" fill="none" stroke="#15261f" stroke-width="4" opacity="1" />
<polyline points="505,1548 585,1548 585,1463 665,1463" fill="none" stroke="#15261f" stroke-width="4" opacity="1" />
<polyline points="895,1463 975,1463 975,1553 1055,1553" fill="none" stroke="#15261f" stroke-width="4" opacity="1" />
<polyline points="1285,1553 1340,1553 1340,1548 1390,1548" fill="none" stroke="#15261f" stroke-width="4" opacity="1" />
<rect x="120" y="1656" width="230" height="104" rx="6" fill="#fffdf8" stroke="#bfc8c2" stroke-width="1" opacity="1" />
<ellipse cx="146" cy="1682" rx="14" ry="14" fill="#edf2ee" stroke="#bfc8c2" stroke-width="1" opacity="1"/>
<text x="142" y="1685" fill="#15261f" font-size="10" font-weight="500" opacity="1"><tspan x="142" dy="0">1</tspan></text>
<text x="171" y="1678" fill="#66736d" font-size="9" font-weight="500" opacity="1"><tspan x="171" dy="0">PUBLIC MEMORY</tspan></text>
<text x="134" y="1717" fill="#15261f" font-size="14" font-weight="500" opacity="1"><tspan x="134" dy="0">Cities and memory</tspan></text>
<rect x="134" y="1730" width="82" height="28" rx="6" fill="#edf2ee" stroke="#15261f" stroke-width="1" opacity="1" />
<text x="144" y="1747" fill="#15261f" font-size="10" font-weight="500" opacity="1"><tspan x="144" dy="0">ROOT</tspan></text>
<rect x="515" y="1518" width="230" height="80" rx="6" fill="#edf2ee" stroke="#bfc8c2" stroke-width="1" opacity="1" />
<rect x="510" y="1513" width="230" height="80" rx="6" fill="#edf2ee" stroke="#bfc8c2" stroke-width="1" opacity="1" />
<rect x="505" y="1508" width="230" height="80" rx="6" fill="#fffdf8" stroke="#15261f" stroke-width="2" opacity="1" />
<text x="519" y="1531" fill="#15261f" font-size="11" font-weight="500" opacity="1"><tspan x="519" dy="0">ARCHAEOLOGY BRANCH</tspan></text>
<text x="519" y="1556" fill="#66736d" font-size="10" font-weight="500" opacity="1"><tspan x="519" dy="0">8 turns · 5 open</tspan></text>
<text x="707" y="1555" fill="#15261f" font-size="16" font-weight="500" opacity="1"><tspan x="707" dy="0">+</tspan></text>
<rect x="665" y="1411" width="230" height="104" rx="6" fill="#fffdf8" stroke="#bfc8c2" stroke-width="1" opacity="1" />
<ellipse cx="691" cy="1437" rx="14" ry="14" fill="#edf2ee" stroke="#bfc8c2" stroke-width="1" opacity="1"/>
<text x="687" y="1440" fill="#15261f" font-size="10" font-weight="500" opacity="1"><tspan x="687" dy="0">14</tspan></text>
<text x="716" y="1433" fill="#66736d" font-size="9" font-weight="500" opacity="1"><tspan x="716" dy="0">PUBLIC MEMORY</tspan></text>
<text x="679" y="1472" fill="#15261f" font-size="14" font-weight="500" opacity="1"><tspan x="679" dy="0">Who decides official</tspan><tspan x="679" dy="17.36">memory?</tspan></text>
<rect x="679" y="1485" width="82" height="28" rx="6" fill="#edf2ee" stroke="#15261f" stroke-width="1" opacity="1" />
<text x="689" y="1502" fill="#15261f" font-size="10" font-weight="500" opacity="1"><tspan x="689" dy="0">ACTIVE ROUTE</tspan></text>
<rect x="1065" y="1523" width="230" height="80" rx="6" fill="#edf2ee" stroke="#bfc8c2" stroke-width="1" opacity="1" />
<rect x="1060" y="1518" width="230" height="80" rx="6" fill="#edf2ee" stroke="#bfc8c2" stroke-width="1" opacity="1" />
<rect x="1055" y="1513" width="230" height="80" rx="6" fill="#e8dcff" stroke="#15261f" stroke-width="2" opacity="1" />
<text x="1069" y="1536" fill="#15261f" font-size="11" font-weight="500" opacity="1"><tspan x="1069" dy="0">MONUMENTS BRANCH</tspan></text>
<text x="1069" y="1561" fill="#66736d" font-size="10" font-weight="500" opacity="1"><tspan x="1069" dy="0">12 turns · 7 open</tspan></text>
<text x="1257" y="1560" fill="#15261f" font-size="16" font-weight="500" opacity="1"><tspan x="1257" dy="0">+</tspan></text>
<rect x="1390" y="1496" width="230" height="104" rx="6" fill="#a9d4ff" stroke="#15261f" stroke-width="3" opacity="1" />
<ellipse cx="1416" cy="1522" rx="14" ry="14" fill="#dfff58" stroke="#15261f" stroke-width="1" opacity="1"/>
<text x="1412" y="1525" fill="#15261f" font-size="10" font-weight="500" opacity="1"><tspan x="1412" dy="0">47</tspan></text>
<text x="1441" y="1518" fill="#66736d" font-size="9" font-weight="500" opacity="1"><tspan x="1441" dy="0">PUBLIC MEMORY</tspan></text>
<text x="1404" y="1557" fill="#15261f" font-size="14" font-weight="500" opacity="1"><tspan x="1404" dy="0">Can removal create</tspan><tspan x="1404" dy="17.36">stronger memory?</tspan></text>
<rect x="1404" y="1570" width="94" height="28" rx="6" fill="#dfff58" stroke="#15261f" stroke-width="1" opacity="1" />
<text x="1414" y="1587" fill="#15261f" font-size="10" font-weight="500" opacity="1"><tspan x="1414" dy="0">YOU ARE HERE</tspan></text>
<rect x="460" y="1828" width="220" height="80" rx="6" fill="#edf2ee" stroke="#bfc8c2" stroke-width="1" opacity="1" />
<rect x="455" y="1823" width="220" height="80" rx="6" fill="#edf2ee" stroke="#bfc8c2" stroke-width="1" opacity="1" />
<rect x="450" y="1818" width="220" height="80" rx="6" fill="#fffdf8" stroke="#15261f" stroke-width="2" opacity="1" />
<text x="464" y="1841" fill="#15261f" font-size="11" font-weight="500" opacity="1"><tspan x="464" dy="0">FORGOTTEN PLACES</tspan></text>
<text x="464" y="1866" fill="#66736d" font-size="10" font-weight="500" opacity="1"><tspan x="464" dy="0">6 turns · 4 open</tspan></text>
<text x="642" y="1865" fill="#15261f" font-size="16" font-weight="500" opacity="1"><tspan x="642" dy="0">+</tspan></text>
<rect x="790" y="1858" width="220" height="80" rx="6" fill="#edf2ee" stroke="#bfc8c2" stroke-width="1" opacity="1" />
<rect x="785" y="1853" width="220" height="80" rx="6" fill="#edf2ee" stroke="#bfc8c2" stroke-width="1" opacity="1" />
<rect x="780" y="1848" width="220" height="80" rx="6" fill="#fffdf8" stroke="#15261f" stroke-width="2" opacity="1" />
<text x="794" y="1871" fill="#15261f" font-size="11" font-weight="500" opacity="1"><tspan x="794" dy="0">ARCHIVES &amp; POWER</tspan></text>
<text x="794" y="1896" fill="#66736d" font-size="10" font-weight="500" opacity="1"><tspan x="794" dy="0">9 turns · 6 open</tspan></text>
<text x="972" y="1895" fill="#15261f" font-size="16" font-weight="500" opacity="1"><tspan x="972" dy="0">+</tspan></text>
<rect x="1140" y="1833" width="220" height="80" rx="6" fill="#edf2ee" stroke="#bfc8c2" stroke-width="1" opacity="1" />
<rect x="1135" y="1828" width="220" height="80" rx="6" fill="#edf2ee" stroke="#bfc8c2" stroke-width="1" opacity="1" />
<rect x="1130" y="1823" width="220" height="80" rx="6" fill="#fffdf8" stroke="#15261f" stroke-width="2" opacity="1" />
<text x="1144" y="1846" fill="#15261f" font-size="11" font-weight="500" opacity="1"><tspan x="1144" dy="0">COUNTER-MEMORY</tspan></text>
<text x="1144" y="1871" fill="#66736d" font-size="10" font-weight="500" opacity="1"><tspan x="1144" dy="0">10 turns · 6 open</tspan></text>
<text x="1322" y="1870" fill="#15261f" font-size="16" font-weight="500" opacity="1"><tspan x="1322" dy="0">+</tspan></text>
<text x="85" y="1900" fill="#66736d" font-size="10" font-weight="500" opacity="1"><tspan x="85" dy="0">Zoom level 42% · researched turns become compact markers; meaningful branch groups keep names and counts.</tspan></text>
<rect x="1160" y="1883" width="245" height="38" rx="6" fill="#fffdf8" stroke="#bfc8c2" stroke-width="1" opacity="1" />
<text x="1180" y="1905" fill="#15261f" font-size="10" font-weight="500" opacity="1"><tspan x="1180" dy="0">Expand active neighborhood</tspan></text>
<rect x="1400" y="1858" width="210" height="145" rx="6" fill="#fffdf8" stroke="#bfc8c2" stroke-width="1" opacity="1" />
<text x="1410" y="1874" fill="#66736d" font-size="8" font-weight="500" opacity="1"><tspan x="1410" dy="0">OVERVIEW</tspan></text>
<ellipse cx="1424" cy="1907" rx="4" ry="4" fill="#15261f" stroke="#15261f" stroke-width="1" opacity="1"/>
<ellipse cx="1458" cy="1894" rx="4" ry="4" fill="#15261f" stroke="#15261f" stroke-width="1" opacity="1"/>
<ellipse cx="1458" cy="1930" rx="4" ry="4" fill="#15261f" stroke="#15261f" stroke-width="1" opacity="1"/>
<ellipse cx="1492" cy="1882" rx="4" ry="4" fill="#15261f" stroke="#15261f" stroke-width="1" opacity="1"/>
<ellipse cx="1492" cy="1912" rx="4" ry="4" fill="#15261f" stroke="#15261f" stroke-width="1" opacity="1"/>
<ellipse cx="1492" cy="1944" rx="4" ry="4" fill="#15261f" stroke="#15261f" stroke-width="1" opacity="1"/>
<ellipse cx="1528" cy="1897" rx="4" ry="4" fill="#15261f" stroke="#15261f" stroke-width="1" opacity="1"/>
<ellipse cx="1528" cy="1928" rx="4" ry="4" fill="#15261f" stroke="#15261f" stroke-width="1" opacity="1"/>
<ellipse cx="1562" cy="1911" rx="4" ry="4" fill="#15261f" stroke="#15261f" stroke-width="1" opacity="1"/>
<polyline points="1424,1907 1458,1894 1458,1930 1492,1878 1492,1908 1492,1940 1528,1893 1528,1924 1562,1907" fill="none" stroke="#bfc8c2" stroke-width="1" opacity="1" />
<rect x="1487" y="1892" width="70" height="72" rx="6" fill="none" stroke="#ff8a76" stroke-width="2" opacity="1" />
<rect x="85" y="2038" width="1530" height="78" rx="6" fill="#15261f" stroke="#15261f" stroke-width="1" opacity="1" />
<ellipse cx="121" cy="2076" rx="20" ry="20" fill="#dfff58" stroke="#dfff58" stroke-width="1" opacity="1"/>
<text x="116" y="2078" fill="#15261f" font-size="13" font-weight="500" opacity="1"><tspan x="116" dy="0">3</tspan></text>
<text x="157" y="2065" fill="#dfff58" font-size="12" font-weight="500" opacity="1"><tspan x="157" dy="0">COMPLEXITY IS MANAGED, NOT HIDDEN</tspan></text>
<text x="157" y="2088" fill="#fffdf8" font-size="11" font-weight="500" opacity="1"><tspan x="157" dy="0">At low zoom: shape, position, path, and counts. At medium zoom: titles. At high zoom: complete turn cards and actions.</tspan></text>
</g>
</svg>