<svg xmlns="http://www.w3.org/2000/svg" width="1620" height="1050" viewBox="0 0 1620 1050">
<rect x="0" y="0" width="1620" height="1050" fill="#f7f3ea"/>
<style>text{font-family:Arial,Helvetica,sans-serif}</style>
<g transform="translate(-1680 -1100)">
<text x="1700" y="1145" fill="#15261f" font-size="25" font-weight="600" opacity="1"><tspan x="1700" dy="0">04 · FIND A TURN OR OPEN PATH IN SECONDS</tspan></text>
<text x="1700" y="1171" fill="#66736d" font-size="13" font-weight="500" opacity="1"><tspan x="1700" dy="0">Search state: matches stay bright, the route to each match highlights, and off-screen results get directional markers.</tspan></text>
<rect x="1700" y="1198" width="1580" height="932" rx="6" fill="#fffdf8" stroke="#15261f" stroke-width="3" opacity="1" />
<rect x="1700" y="1198" width="1580" height="48" rx="6" fill="#ece8df" stroke="#15261f" stroke-width="1" opacity="1" />
<ellipse cx="1722.5" cy="1220.5" rx="4.5" ry="4.5" fill="#ff7b67" stroke="#15261f" stroke-width="1" opacity="1"/>
<ellipse cx="1740.5" cy="1220.5" rx="4.5" ry="4.5" fill="#ffd166" stroke="#15261f" stroke-width="1" opacity="1"/>
<ellipse cx="1758.5" cy="1220.5" rx="4.5" ry="4.5" fill="#81d88d" stroke="#15261f" stroke-width="1" opacity="1"/>
<rect x="2260" y="1210" width="460" height="23" rx="6" fill="#ffffff" stroke="#bfc8c2" stroke-width="1" opacity="1" />
<text x="2411" y="1225" fill="#66736d" font-size="9" font-weight="500" opacity="1"><tspan x="2411" dy="0">wonderdrive.app/journey</tspan></text>
<rect x="1700" y="1246" width="1580" height="70" rx="6" fill="#fffdf8" stroke="#15261f" stroke-width="1" opacity="1" />
<ellipse cx="1742" cy="1281" rx="18" ry="18" fill="#15261f" stroke="#15261f" stroke-width="1" opacity="1"/>
<text x="1737" y="1285" fill="#fffdf8" font-size="14" font-weight="500" opacity="1"><tspan x="1737" dy="0">W</tspan></text>
<text x="1773" y="1282" fill="#15261f" font-size="16" font-weight="500" opacity="1"><tspan x="1773" dy="0">WonderDrive</tspan></text>
<text x="1773" y="1298" fill="#66736d" font-size="9" font-weight="500" opacity="1"><tspan x="1773" dy="0">CURIOSITY, PERFORMED</tspan></text>
<text x="2650" y="1285" fill="#66736d" font-size="9" font-weight="500" opacity="1"><tspan x="2650" dy="0">NEW DRIVE</tspan></text>
<text x="2755" y="1285" fill="#66736d" font-size="9" font-weight="500" opacity="1"><tspan x="2755" dy="0">LIBRARY</tspan></text>
<text x="2850" y="1285" fill="#66736d" font-size="9" font-weight="500" opacity="1"><tspan x="2850" dy="0">COMPARE</tspan></text>
<rect x="3005" y="1261" width="245" height="40" rx="6" fill="#edf2ee" stroke="#15261f" stroke-width="1" opacity="1" />
<text x="3022" y="1283" fill="#15261f" font-size="10" font-weight="500" opacity="1"><tspan x="3022" dy="0">58 turns · searching</tspan></text>
<rect x="1700" y="1316" width="1580" height="62" rx="6" fill="#edf2ee" stroke="#15261f" stroke-width="1" opacity="1" />
<text x="1724" y="1341" fill="#15261f" font-size="14" font-weight="500" opacity="1"><tspan x="1724" dy="0">Why do cities preserve some memories and erase others?</tspan></text>
<text x="1724" y="1361" fill="#66736d" font-size="9" font-weight="500" opacity="1"><tspan x="1724" dy="0">Journey graph · You are at turn 8</tspan></text>
<rect x="2260" y="1329" width="330" height="36" rx="6" fill="#fffdf8" stroke="#bfc8c2" stroke-width="1" opacity="1" />
<text x="2278" y="1350" fill="#15261f" font-size="10" font-weight="500" opacity="1"><tspan x="2278" dy="0">statue</tspan></text>
<rect x="2810" y="1330" width="78" height="34" rx="6" fill="#15261f" stroke="#15261f" stroke-width="1" opacity="1" />
<text x="2820" y="1349" fill="#fffdf8" font-size="10" font-weight="500" opacity="1"><tspan x="2820" dy="0">OPEN 31</tspan></text>
<rect x="2898" y="1330" width="36" height="34" rx="6" fill="#fffdf8" stroke="#15261f" stroke-width="1" opacity="1" />
<text x="2908" y="1349" fill="#15261f" font-size="10" font-weight="500" opacity="1"><tspan x="2908" dy="0">−</tspan></text>
<rect x="2944" y="1330" width="36" height="34" rx="6" fill="#fffdf8" stroke="#15261f" stroke-width="1" opacity="1" />
<text x="2954" y="1349" fill="#15261f" font-size="10" font-weight="500" opacity="1"><tspan x="2954" dy="0">+</tspan></text>
<rect x="2990" y="1330" width="72" height="34" rx="6" fill="#fffdf8" stroke="#15261f" stroke-width="1" opacity="1" />
<text x="3000" y="1349" fill="#15261f" font-size="10" font-weight="500" opacity="1"><tspan x="3000" dy="0">FIT ALL</tspan></text>
<rect x="3072" y="1330" width="74" height="34" rx="6" fill="#fffdf8" stroke="#15261f" stroke-width="1" opacity="1" />
<text x="3082" y="1349" fill="#15261f" font-size="10" font-weight="500" opacity="1"><tspan x="3082" dy="0">RESULTS</tspan></text>
<rect x="3156" y="1330" width="36" height="34" rx="6" fill="#fffdf8" stroke="#15261f" stroke-width="1" opacity="1" />
<text x="3166" y="1349" fill="#15261f" font-size="10" font-weight="500" opacity="1"><tspan x="3166" dy="0">?</tspan></text>
<ellipse cx="1747.5" cy="1440.5" rx="7.5" ry="7.5" fill="#edf2ee" stroke="#bfc8c2" stroke-width="1" opacity="0.3"/>
<polyline points="1755,1440 1823,1440 1823,1425 1890,1425" fill="none" stroke="#bfc8c2" stroke-width="1" opacity="0.23" />
<ellipse cx="1747.5" cy="1510.5" rx="7.5" ry="7.5" fill="#edf2ee" stroke="#bfc8c2" stroke-width="1" opacity="0.3"/>
<polyline points="1755,1510 1823,1510 1823,1525 1890,1525" fill="none" stroke="#bfc8c2" stroke-width="1" opacity="0.23" />
<ellipse cx="1747.5" cy="1580.5" rx="7.5" ry="7.5" fill="#edf2ee" stroke="#bfc8c2" stroke-width="1" opacity="0.3"/>
<polyline points="1755,1580 1823,1580 1823,1565 1890,1565" fill="none" stroke="#bfc8c2" stroke-width="1" opacity="0.23" />
<ellipse cx="1747.5" cy="1650.5" rx="7.5" ry="7.5" fill="#edf2ee" stroke="#bfc8c2" stroke-width="1" opacity="0.3"/>
<polyline points="1755,1650 1823,1650 1823,1665 1890,1665" fill="none" stroke="#bfc8c2" stroke-width="1" opacity="0.23" />
<ellipse cx="1747.5" cy="1720.5" rx="7.5" ry="7.5" fill="#edf2ee" stroke="#bfc8c2" stroke-width="1" opacity="0.3"/>
<polyline points="1755,1720 1823,1720 1823,1705 1890,1705" fill="none" stroke="#bfc8c2" stroke-width="1" opacity="0.23" />
<ellipse cx="1747.5" cy="1790.5" rx="7.5" ry="7.5" fill="#edf2ee" stroke="#bfc8c2" stroke-width="1" opacity="0.3"/>
<polyline points="1755,1790 1823,1790 1823,1805 1890,1805" fill="none" stroke="#bfc8c2" stroke-width="1" opacity="0.23" />
<ellipse cx="1747.5" cy="1860.5" rx="7.5" ry="7.5" fill="#edf2ee" stroke="#bfc8c2" stroke-width="1" opacity="0.3"/>
<polyline points="1755,1860 1823,1860 1823,1845 1890,1845" fill="none" stroke="#bfc8c2" stroke-width="1" opacity="0.23" />
<ellipse cx="1912.5" cy="1460.5" rx="7.5" ry="7.5" fill="#edf2ee" stroke="#bfc8c2" stroke-width="1" opacity="0.3"/>
<polyline points="1920,1460 1988,1460 1988,1445 2055,1445" fill="none" stroke="#bfc8c2" stroke-width="1" opacity="0.23" />
<ellipse cx="1912.5" cy="1530.5" rx="7.5" ry="7.5" fill="#edf2ee" stroke="#bfc8c2" stroke-width="1" opacity="0.3"/>
<polyline points="1920,1530 1988,1530 1988,1545 2055,1545" fill="none" stroke="#bfc8c2" stroke-width="1" opacity="0.23" />
<ellipse cx="1912.5" cy="1600.5" rx="7.5" ry="7.5" fill="#edf2ee" stroke="#bfc8c2" stroke-width="1" opacity="0.3"/>
<polyline points="1920,1600 1988,1600 1988,1585 2055,1585" fill="none" stroke="#bfc8c2" stroke-width="1" opacity="0.23" />
<ellipse cx="1912.5" cy="1670.5" rx="7.5" ry="7.5" fill="#edf2ee" stroke="#bfc8c2" stroke-width="1" opacity="0.3"/>
<polyline points="1920,1670 1988,1670 1988,1685 2055,1685" fill="none" stroke="#bfc8c2" stroke-width="1" opacity="0.23" />
<ellipse cx="1912.5" cy="1740.5" rx="7.5" ry="7.5" fill="#edf2ee" stroke="#bfc8c2" stroke-width="1" opacity="0.3"/>
<polyline points="1920,1740 1988,1740 1988,1725 2055,1725" fill="none" stroke="#bfc8c2" stroke-width="1" opacity="0.23" />
<ellipse cx="1912.5" cy="1810.5" rx="7.5" ry="7.5" fill="#edf2ee" stroke="#bfc8c2" stroke-width="1" opacity="0.3"/>
<polyline points="1920,1810 1988,1810 1988,1825 2055,1825" fill="none" stroke="#bfc8c2" stroke-width="1" opacity="0.23" />
<ellipse cx="1912.5" cy="1880.5" rx="7.5" ry="7.5" fill="#edf2ee" stroke="#bfc8c2" stroke-width="1" opacity="0.3"/>
<polyline points="1920,1880 1988,1880 1988,1865 2055,1865" fill="none" stroke="#bfc8c2" stroke-width="1" opacity="0.23" />
<ellipse cx="2077.5" cy="1440.5" rx="7.5" ry="7.5" fill="#edf2ee" stroke="#bfc8c2" stroke-width="1" opacity="0.3"/>
<polyline points="2085,1440 2153,1440 2153,1425 2220,1425" fill="none" stroke="#bfc8c2" stroke-width="1" opacity="0.23" />
<ellipse cx="2077.5" cy="1510.5" rx="7.5" ry="7.5" fill="#edf2ee" stroke="#bfc8c2" stroke-width="1" opacity="0.3"/>
<polyline points="2085,1510 2153,1510 2153,1525 2220,1525" fill="none" stroke="#bfc8c2" stroke-width="1" opacity="0.23" />
<ellipse cx="2077.5" cy="1580.5" rx="7.5" ry="7.5" fill="#edf2ee" stroke="#bfc8c2" stroke-width="1" opacity="0.3"/>
<polyline points="2085,1580 2153,1580 2153,1565 2220,1565" fill="none" stroke="#bfc8c2" stroke-width="1" opacity="0.23" />
<ellipse cx="2077.5" cy="1650.5" rx="7.5" ry="7.5" fill="#edf2ee" stroke="#bfc8c2" stroke-width="1" opacity="0.3"/>
<polyline points="2085,1650 2153,1650 2153,1665 2220,1665" fill="none" stroke="#bfc8c2" stroke-width="1" opacity="0.23" />
<ellipse cx="2077.5" cy="1720.5" rx="7.5" ry="7.5" fill="#edf2ee" stroke="#bfc8c2" stroke-width="1" opacity="0.3"/>
<polyline points="2085,1720 2153,1720 2153,1705 2220,1705" fill="none" stroke="#bfc8c2" stroke-width="1" opacity="0.23" />
<ellipse cx="2077.5" cy="1790.5" rx="7.5" ry="7.5" fill="#edf2ee" stroke="#bfc8c2" stroke-width="1" opacity="0.3"/>
<polyline points="2085,1790 2153,1790 2153,1805 2220,1805" fill="none" stroke="#bfc8c2" stroke-width="1" opacity="0.23" />
<ellipse cx="2077.5" cy="1860.5" rx="7.5" ry="7.5" fill="#edf2ee" stroke="#bfc8c2" stroke-width="1" opacity="0.3"/>
<polyline points="2085,1860 2153,1860 2153,1845 2220,1845" fill="none" stroke="#bfc8c2" stroke-width="1" opacity="0.23" />
<ellipse cx="2242.5" cy="1460.5" rx="7.5" ry="7.5" fill="#edf2ee" stroke="#bfc8c2" stroke-width="1" opacity="0.3"/>
<polyline points="2250,1460 2318,1460 2318,1445 2385,1445" fill="none" stroke="#bfc8c2" stroke-width="1" opacity="0.23" />
<ellipse cx="2242.5" cy="1530.5" rx="7.5" ry="7.5" fill="#edf2ee" stroke="#bfc8c2" stroke-width="1" opacity="0.3"/>
<polyline points="2250,1530 2318,1530 2318,1545 2385,1545" fill="none" stroke="#bfc8c2" stroke-width="1" opacity="0.23" />
<ellipse cx="2242.5" cy="1600.5" rx="7.5" ry="7.5" fill="#edf2ee" stroke="#bfc8c2" stroke-width="1" opacity="0.3"/>
<polyline points="2250,1600 2318,1600 2318,1585 2385,1585" fill="none" stroke="#bfc8c2" stroke-width="1" opacity="0.23" />
<ellipse cx="2242.5" cy="1670.5" rx="7.5" ry="7.5" fill="#edf2ee" stroke="#bfc8c2" stroke-width="1" opacity="0.3"/>
<polyline points="2250,1670 2318,1670 2318,1685 2385,1685" fill="none" stroke="#bfc8c2" stroke-width="1" opacity="0.23" />
<ellipse cx="2242.5" cy="1740.5" rx="7.5" ry="7.5" fill="#edf2ee" stroke="#bfc8c2" stroke-width="1" opacity="0.3"/>
<polyline points="2250,1740 2318,1740 2318,1725 2385,1725" fill="none" stroke="#bfc8c2" stroke-width="1" opacity="0.23" />
<ellipse cx="2242.5" cy="1810.5" rx="7.5" ry="7.5" fill="#edf2ee" stroke="#bfc8c2" stroke-width="1" opacity="0.3"/>
<polyline points="2250,1810 2318,1810 2318,1825 2385,1825" fill="none" stroke="#bfc8c2" stroke-width="1" opacity="0.23" />
<ellipse cx="2242.5" cy="1880.5" rx="7.5" ry="7.5" fill="#edf2ee" stroke="#bfc8c2" stroke-width="1" opacity="0.3"/>
<polyline points="2250,1880 2318,1880 2318,1865 2385,1865" fill="none" stroke="#bfc8c2" stroke-width="1" opacity="0.23" />
<ellipse cx="2407.5" cy="1440.5" rx="7.5" ry="7.5" fill="#edf2ee" stroke="#bfc8c2" stroke-width="1" opacity="0.3"/>
<polyline points="2415,1440 2483,1440 2483,1425 2550,1425" fill="none" stroke="#bfc8c2" stroke-width="1" opacity="0.23" />
<ellipse cx="2407.5" cy="1510.5" rx="7.5" ry="7.5" fill="#edf2ee" stroke="#bfc8c2" stroke-width="1" opacity="0.3"/>
<polyline points="2415,1510 2483,1510 2483,1525 2550,1525" fill="none" stroke="#bfc8c2" stroke-width="1" opacity="0.23" />
<ellipse cx="2407.5" cy="1580.5" rx="7.5" ry="7.5" fill="#edf2ee" stroke="#bfc8c2" stroke-width="1" opacity="0.3"/>
<polyline points="2415,1580 2483,1580 2483,1565 2550,1565" fill="none" stroke="#bfc8c2" stroke-width="1" opacity="0.23" />
<ellipse cx="2407.5" cy="1650.5" rx="7.5" ry="7.5" fill="#edf2ee" stroke="#bfc8c2" stroke-width="1" opacity="0.3"/>
<polyline points="2415,1650 2483,1650 2483,1665 2550,1665" fill="none" stroke="#bfc8c2" stroke-width="1" opacity="0.23" />
<ellipse cx="2407.5" cy="1720.5" rx="7.5" ry="7.5" fill="#edf2ee" stroke="#bfc8c2" stroke-width="1" opacity="0.3"/>
<polyline points="2415,1720 2483,1720 2483,1705 2550,1705" fill="none" stroke="#bfc8c2" stroke-width="1" opacity="0.23" />
<ellipse cx="2407.5" cy="1790.5" rx="7.5" ry="7.5" fill="#edf2ee" stroke="#bfc8c2" stroke-width="1" opacity="0.3"/>
<polyline points="2415,1790 2483,1790 2483,1805 2550,1805" fill="none" stroke="#bfc8c2" stroke-width="1" opacity="0.23" />
<ellipse cx="2407.5" cy="1860.5" rx="7.5" ry="7.5" fill="#edf2ee" stroke="#bfc8c2" stroke-width="1" opacity="0.3"/>
<polyline points="2415,1860 2483,1860 2483,1845 2550,1845" fill="none" stroke="#bfc8c2" stroke-width="1" opacity="0.23" />
<ellipse cx="2572.5" cy="1460.5" rx="7.5" ry="7.5" fill="#edf2ee" stroke="#bfc8c2" stroke-width="1" opacity="0.3"/>
<polyline points="2580,1460 2648,1460 2648,1445 2715,1445" fill="none" stroke="#bfc8c2" stroke-width="1" opacity="0.23" />
<ellipse cx="2572.5" cy="1530.5" rx="7.5" ry="7.5" fill="#edf2ee" stroke="#bfc8c2" stroke-width="1" opacity="0.3"/>
<polyline points="2580,1530 2648,1530 2648,1545 2715,1545" fill="none" stroke="#bfc8c2" stroke-width="1" opacity="0.23" />
<ellipse cx="2572.5" cy="1600.5" rx="7.5" ry="7.5" fill="#edf2ee" stroke="#bfc8c2" stroke-width="1" opacity="0.3"/>
<polyline points="2580,1600 2648,1600 2648,1585 2715,1585" fill="none" stroke="#bfc8c2" stroke-width="1" opacity="0.23" />
<ellipse cx="2572.5" cy="1670.5" rx="7.5" ry="7.5" fill="#edf2ee" stroke="#bfc8c2" stroke-width="1" opacity="0.3"/>
<polyline points="2580,1670 2648,1670 2648,1685 2715,1685" fill="none" stroke="#bfc8c2" stroke-width="1" opacity="0.23" />
<ellipse cx="2572.5" cy="1740.5" rx="7.5" ry="7.5" fill="#edf2ee" stroke="#bfc8c2" stroke-width="1" opacity="0.3"/>
<polyline points="2580,1740 2648,1740 2648,1725 2715,1725" fill="none" stroke="#bfc8c2" stroke-width="1" opacity="0.23" />
<ellipse cx="2572.5" cy="1810.5" rx="7.5" ry="7.5" fill="#edf2ee" stroke="#bfc8c2" stroke-width="1" opacity="0.3"/>
<polyline points="2580,1810 2648,1810 2648,1825 2715,1825" fill="none" stroke="#bfc8c2" stroke-width="1" opacity="0.23" />
<ellipse cx="2572.5" cy="1880.5" rx="7.5" ry="7.5" fill="#edf2ee" stroke="#bfc8c2" stroke-width="1" opacity="0.3"/>
<polyline points="2580,1880 2648,1880 2648,1865 2715,1865" fill="none" stroke="#bfc8c2" stroke-width="1" opacity="0.23" />
<ellipse cx="2737.5" cy="1440.5" rx="7.5" ry="7.5" fill="#edf2ee" stroke="#bfc8c2" stroke-width="1" opacity="0.3"/>
<ellipse cx="2737.5" cy="1510.5" rx="7.5" ry="7.5" fill="#edf2ee" stroke="#bfc8c2" stroke-width="1" opacity="0.3"/>
<ellipse cx="2737.5" cy="1580.5" rx="7.5" ry="7.5" fill="#edf2ee" stroke="#bfc8c2" stroke-width="1" opacity="0.3"/>
<ellipse cx="2737.5" cy="1650.5" rx="7.5" ry="7.5" fill="#edf2ee" stroke="#bfc8c2" stroke-width="1" opacity="0.3"/>
<ellipse cx="2737.5" cy="1720.5" rx="7.5" ry="7.5" fill="#edf2ee" stroke="#bfc8c2" stroke-width="1" opacity="0.3"/>
<ellipse cx="2737.5" cy="1790.5" rx="7.5" ry="7.5" fill="#edf2ee" stroke="#bfc8c2" stroke-width="1" opacity="0.3"/>
<ellipse cx="2737.5" cy="1860.5" rx="7.5" ry="7.5" fill="#edf2ee" stroke="#bfc8c2" stroke-width="1" opacity="0.3"/>
<polyline points="1760,1643 1910,1643 1910,1553 2060,1553 2060,1683 2210,1683 2210,1563 2360,1563 2360,1673 2510,1673" fill="none" stroke="#15261f" stroke-width="4" opacity="1" />
<rect x="2500" y="1583" width="230" height="104" rx="6" fill="#ffd8d0" stroke="#15261f" stroke-width="3" opacity="1" />
<ellipse cx="2526" cy="1609" rx="14" ry="14" fill="#edf2ee" stroke="#15261f" stroke-width="1" opacity="1"/>
<text x="2522" y="1612" fill="#15261f" font-size="10" font-weight="500" opacity="1"><tspan x="2522" dy="0">22</tspan></text>
<text x="2551" y="1605" fill="#66736d" font-size="9" font-weight="500" opacity="1"><tspan x="2551" dy="0">PUBLIC MEMORY</tspan></text>
<text x="2514" y="1644" fill="#15261f" font-size="14" font-weight="500" opacity="1"><tspan x="2514" dy="0">Why do cities remove</tspan><tspan x="2514" dy="17.36">controversial statues?</tspan></text>
<rect x="2514" y="1657" width="98" height="28" rx="6" fill="#ffd8d0" stroke="#15261f" stroke-width="1" opacity="1" />
<text x="2524" y="1674" fill="#15261f" font-size="10" font-weight="500" opacity="1"><tspan x="2524" dy="0">MATCH 1 OF 3</tspan></text>
<rect x="2790" y="1469" width="235" height="82" rx="6" fill="#edffc1" stroke="#526800" stroke-width="1" opacity="1" stroke-dasharray="8 6"/>
<text x="2802" y="1489" fill="#526800" font-size="9" font-weight="500" opacity="1"><tspan x="2802" dy="0">+ OPEN · TURN 41</tspan></text>
<text x="2802" y="1517" fill="#15261f" font-size="12" font-weight="500" opacity="1"><tspan x="2802" dy="0">Can a removed statue</tspan><tspan x="2802" dy="14.879999999999999">still shape memory?</tspan></text>
<rect x="2820" y="1583" width="142" height="28" rx="6" fill="#dfff58" stroke="#15261f" stroke-width="1" opacity="1" />
<text x="2830" y="1600" fill="#15261f" font-size="10" font-weight="500" opacity="1"><tspan x="2830" dy="0">2 MORE MATCHES →</tspan></text>
<rect x="1725" y="1876" width="520" height="135" rx="6" fill="#fffdf8" stroke="#15261f" stroke-width="2" opacity="1" />
<text x="1745" y="1903" fill="#d64b38" font-size="10" font-weight="500" opacity="1"><tspan x="1745" dy="0">3 MATCHES FOR “STATUE”</tspan></text>
<text x="1745" y="1935" fill="#15261f" font-size="12" font-weight="500" opacity="1"><tspan x="1745" dy="0">1  Why do cities remove controversial statues?</tspan></text>
<text x="1745" y="1961" fill="#15261f" font-size="12" font-weight="500" opacity="1"><tspan x="1745" dy="0">2  Can a removed statue still shape memory?</tspan></text>
<text x="1745" y="1987" fill="#15261f" font-size="12" font-weight="500" opacity="1"><tspan x="1745" dy="0">3  Who decides what replaces a statue?</tspan></text>
<text x="2145" y="1984" fill="#66736d" font-size="9" font-weight="500" opacity="1"><tspan x="2145" dy="0">↓ off-screen</tspan></text>
<rect x="3040" y="1866" width="210" height="145" rx="6" fill="#fffdf8" stroke="#bfc8c2" stroke-width="1" opacity="1" />
<text x="3050" y="1882" fill="#66736d" font-size="8" font-weight="500" opacity="1"><tspan x="3050" dy="0">OVERVIEW</tspan></text>
<ellipse cx="3064" cy="1915" rx="4" ry="4" fill="#15261f" stroke="#15261f" stroke-width="1" opacity="1"/>
<ellipse cx="3098" cy="1902" rx="4" ry="4" fill="#15261f" stroke="#15261f" stroke-width="1" opacity="1"/>
<ellipse cx="3098" cy="1938" rx="4" ry="4" fill="#15261f" stroke="#15261f" stroke-width="1" opacity="1"/>
<ellipse cx="3132" cy="1890" rx="4" ry="4" fill="#15261f" stroke="#15261f" stroke-width="1" opacity="1"/>
<ellipse cx="3132" cy="1920" rx="4" ry="4" fill="#15261f" stroke="#15261f" stroke-width="1" opacity="1"/>
<ellipse cx="3132" cy="1952" rx="4" ry="4" fill="#15261f" stroke="#15261f" stroke-width="1" opacity="1"/>
<ellipse cx="3168" cy="1905" rx="4" ry="4" fill="#15261f" stroke="#15261f" stroke-width="1" opacity="1"/>
<ellipse cx="3168" cy="1936" rx="4" ry="4" fill="#15261f" stroke="#15261f" stroke-width="1" opacity="1"/>
<ellipse cx="3202" cy="1919" rx="4" ry="4" fill="#15261f" stroke="#15261f" stroke-width="1" opacity="1"/>
<polyline points="3064,1915 3098,1902 3098,1938 3132,1886 3132,1916 3132,1948 3168,1901 3168,1932 3202,1915" fill="none" stroke="#bfc8c2" stroke-width="1" opacity="1" />
<rect x="3156" y="1890" width="56" height="58" rx="6" fill="none" stroke="#ff8a76" stroke-width="2" opacity="1" />
<rect x="1725" y="2038" width="1530" height="78" rx="6" fill="#15261f" stroke="#15261f" stroke-width="1" opacity="1" />
<ellipse cx="1761" cy="2076" rx="20" ry="20" fill="#dfff58" stroke="#dfff58" stroke-width="1" opacity="1"/>
<text x="1756" y="2078" fill="#15261f" font-size="13" font-weight="500" opacity="1"><tspan x="1756" dy="0">4</tspan></text>
<text x="1797" y="2065" fill="#dfff58" font-size="12" font-weight="500" opacity="1"><tspan x="1797" dy="0">SEARCH DOES NOT TURN THE GRAPH INTO A LIST</tspan></text>
<text x="1797" y="2088" fill="#fffdf8" font-size="11" font-weight="500" opacity="1"><tspan x="1797" dy="0">The result list supports scanning; the highlighted route answers “where is this?” and “how did I get there?” at the same time.</tspan></text>
</g>
</svg>