<svg xmlns="http://www.w3.org/2000/svg" width="1620" height="1050" viewBox="0 0 1620 1050">
<rect x="0" y="0" width="1620" height="1050" fill="#f7f3ea"/>
<style>text{font-family:Arial,Helvetica,sans-serif}</style>
<g transform="translate(-40 -2180)">
<text x="60" y="2225" fill="#15261f" font-size="25" font-weight="600" opacity="1"><tspan x="60" dy="0">05 · PREVIEW A BRANCH BEFORE RESEARCH STARTS</tspan></text>
<text x="60" y="2251" fill="#66736d" font-size="13" font-weight="500" opacity="1"><tspan x="60" dy="0">Decision state: the old branch remains visible, a ghost node shows the structural result, and the cost/action is explicit.</tspan></text>
<rect x="60" y="2278" width="1580" height="932" rx="6" fill="#fffdf8" stroke="#15261f" stroke-width="3" opacity="1" />
<rect x="60" y="2278" width="1580" height="48" rx="6" fill="#ece8df" stroke="#15261f" stroke-width="1" opacity="1" />
<ellipse cx="82.5" cy="2300.5" rx="4.5" ry="4.5" fill="#ff7b67" stroke="#15261f" stroke-width="1" opacity="1"/>
<ellipse cx="100.5" cy="2300.5" rx="4.5" ry="4.5" fill="#ffd166" stroke="#15261f" stroke-width="1" opacity="1"/>
<ellipse cx="118.5" cy="2300.5" rx="4.5" ry="4.5" fill="#81d88d" stroke="#15261f" stroke-width="1" opacity="1"/>
<rect x="620" y="2290" width="460" height="23" rx="6" fill="#ffffff" stroke="#bfc8c2" stroke-width="1" opacity="1" />
<text x="771" y="2305" fill="#66736d" font-size="9" font-weight="500" opacity="1"><tspan x="771" dy="0">wonderdrive.app/journey</tspan></text>
<rect x="60" y="2326" width="1580" height="70" rx="6" fill="#fffdf8" stroke="#15261f" stroke-width="1" opacity="1" />
<ellipse cx="102" cy="2361" rx="18" ry="18" fill="#15261f" stroke="#15261f" stroke-width="1" opacity="1"/>
<text x="97" y="2365" fill="#fffdf8" font-size="14" font-weight="500" opacity="1"><tspan x="97" dy="0">W</tspan></text>
<text x="133" y="2362" fill="#15261f" font-size="16" font-weight="500" opacity="1"><tspan x="133" dy="0">WonderDrive</tspan></text>
<text x="133" y="2378" fill="#66736d" font-size="9" font-weight="500" opacity="1"><tspan x="133" dy="0">CURIOSITY, PERFORMED</tspan></text>
<text x="1010" y="2365" fill="#66736d" font-size="9" font-weight="500" opacity="1"><tspan x="1010" dy="0">NEW DRIVE</tspan></text>
<text x="1115" y="2365" fill="#66736d" font-size="9" font-weight="500" opacity="1"><tspan x="1115" dy="0">LIBRARY</tspan></text>
<text x="1210" y="2365" fill="#66736d" font-size="9" font-weight="500" opacity="1"><tspan x="1210" dy="0">COMPARE</tspan></text>
<rect x="1365" y="2341" width="245" height="40" rx="6" fill="#edf2ee" stroke="#15261f" stroke-width="1" opacity="1" />
<text x="1382" y="2363" fill="#15261f" font-size="10" font-weight="500" opacity="1"><tspan x="1382" dy="0">12 turns · branching from turn 3</tspan></text>
<rect x="60" y="2396" width="1580" height="62" rx="6" fill="#edf2ee" stroke="#15261f" stroke-width="1" opacity="1" />
<text x="84" y="2421" fill="#15261f" font-size="14" font-weight="500" opacity="1"><tspan x="84" dy="0">Why do cities preserve some memories and erase others?</tspan></text>
<text x="84" y="2441" fill="#66736d" font-size="9" font-weight="500" opacity="1"><tspan x="84" dy="0">Current turn 8 · previewing branch from turn 3</tspan></text>
<rect x="620" y="2409" width="330" height="36" rx="6" fill="#fffdf8" stroke="#bfc8c2" stroke-width="1" opacity="1" />
<text x="638" y="2430" fill="#66736d" font-size="10" font-weight="500" opacity="1"><tspan x="638" dy="0">Search turns, topics, or open paths</tspan></text>
<rect x="1170" y="2410" width="78" height="34" rx="6" fill="#fffdf8" stroke="#15261f" stroke-width="1" opacity="1" />
<text x="1180" y="2429" fill="#15261f" font-size="10" font-weight="500" opacity="1"><tspan x="1180" dy="0">OPEN 7</tspan></text>
<rect x="1258" y="2410" width="36" height="34" rx="6" fill="#fffdf8" stroke="#15261f" stroke-width="1" opacity="1" />
<text x="1268" y="2429" fill="#15261f" font-size="10" font-weight="500" opacity="1"><tspan x="1268" dy="0">−</tspan></text>
<rect x="1304" y="2410" width="36" height="34" rx="6" fill="#fffdf8" stroke="#15261f" stroke-width="1" opacity="1" />
<text x="1314" y="2429" fill="#15261f" font-size="10" font-weight="500" opacity="1"><tspan x="1314" dy="0">+</tspan></text>
<rect x="1350" y="2410" width="72" height="34" rx="6" fill="#fffdf8" stroke="#15261f" stroke-width="1" opacity="1" />
<text x="1360" y="2429" fill="#15261f" font-size="10" font-weight="500" opacity="1"><tspan x="1360" dy="0">FIT ALL</tspan></text>
<rect x="1432" y="2410" width="74" height="34" rx="6" fill="#15261f" stroke="#15261f" stroke-width="1" opacity="1" />
<text x="1442" y="2429" fill="#fffdf8" font-size="10" font-weight="500" opacity="1"><tspan x="1442" dy="0">BRANCH</tspan></text>
<rect x="1516" y="2410" width="36" height="34" rx="6" fill="#fffdf8" stroke="#15261f" stroke-width="1" opacity="1" />
<text x="1526" y="2429" fill="#15261f" font-size="10" font-weight="500" opacity="1"><tspan x="1526" dy="0">?</tspan></text>
<polyline points="345,2803 420,2803 420,2628 495,2628" fill="none" stroke="#15261f" stroke-width="4" opacity="1" />
<polyline points="645,2628 720,2628 720,2573 795,2573" fill="none" stroke="#15261f" stroke-width="4" opacity="1" />
<polyline points="645,2628 720,2628 720,2818 795,2818" fill="none" stroke="#526800" stroke-width="2" opacity="1" stroke-dasharray="8 6"/>
<polyline points="1025,2573 1090,2573 1090,2568 1155,2568" fill="none" stroke="#15261f" stroke-width="4" opacity="1" />
<rect x="115" y="2751" width="230" height="104" rx="6" fill="#fffdf8" stroke="#bfc8c2" stroke-width="1" opacity="1" />
<ellipse cx="141" cy="2777" rx="14" ry="14" fill="#edf2ee" stroke="#bfc8c2" stroke-width="1" opacity="1"/>
<text x="137" y="2780" fill="#15261f" font-size="10" font-weight="500" opacity="1"><tspan x="137" dy="0">1</tspan></text>
<text x="166" y="2773" fill="#66736d" font-size="9" font-weight="500" opacity="1"><tspan x="166" dy="0">PUBLIC MEMORY</tspan></text>
<text x="129" y="2812" fill="#15261f" font-size="14" font-weight="500" opacity="1"><tspan x="129" dy="0">Cities and memory</tspan></text>
<rect x="129" y="2825" width="82" height="28" rx="6" fill="#edf2ee" stroke="#15261f" stroke-width="1" opacity="1" />
<text x="139" y="2842" fill="#15261f" font-size="10" font-weight="500" opacity="1"><tspan x="139" dy="0">ROOT</tspan></text>
<rect x="495" y="2576" width="230" height="104" rx="6" fill="#fffdf8" stroke="#bfc8c2" stroke-width="1" opacity="1" />
<ellipse cx="521" cy="2602" rx="14" ry="14" fill="#edf2ee" stroke="#bfc8c2" stroke-width="1" opacity="1"/>
<text x="517" y="2605" fill="#15261f" font-size="10" font-weight="500" opacity="1"><tspan x="517" dy="0">2</tspan></text>
<text x="546" y="2598" fill="#66736d" font-size="9" font-weight="500" opacity="1"><tspan x="546" dy="0">PUBLIC MEMORY</tspan></text>
<text x="509" y="2637" fill="#15261f" font-size="14" font-weight="500" opacity="1"><tspan x="509" dy="0">Archaeology and</tspan><tspan x="509" dy="17.36">erased places</tspan></text>
<rect x="509" y="2650" width="82" height="28" rx="6" fill="#edf2ee" stroke="#15261f" stroke-width="1" opacity="1" />
<text x="519" y="2667" fill="#15261f" font-size="10" font-weight="500" opacity="1"><tspan x="519" dy="0">EXPLORED</tspan></text>
<rect x="795" y="2521" width="230" height="104" rx="6" fill="#ffd8d0" stroke="#15261f" stroke-width="3" opacity="1" />
<ellipse cx="821" cy="2547" rx="14" ry="14" fill="#edf2ee" stroke="#15261f" stroke-width="1" opacity="1"/>
<text x="817" y="2550" fill="#15261f" font-size="10" font-weight="500" opacity="1"><tspan x="817" dy="0">3</tspan></text>
<text x="846" y="2543" fill="#66736d" font-size="9" font-weight="500" opacity="1"><tspan x="846" dy="0">PUBLIC MEMORY</tspan></text>
<text x="809" y="2582" fill="#15261f" font-size="14" font-weight="500" opacity="1"><tspan x="809" dy="0">Who decides official</tspan><tspan x="809" dy="17.36">memory?</tspan></text>
<rect x="809" y="2595" width="112" height="28" rx="6" fill="#ffd8d0" stroke="#15261f" stroke-width="1" opacity="1" />
<text x="819" y="2612" fill="#15261f" font-size="10" font-weight="500" opacity="1"><tspan x="819" dy="0">BRANCHING HERE</tspan></text>
<rect x="1155" y="2511" width="230" height="104" rx="6" fill="#edf2ee" stroke="#bfc8c2" stroke-width="1" opacity="0.44" />
<ellipse cx="1181" cy="2537" rx="14" ry="14" fill="#edf2ee" stroke="#bfc8c2" stroke-width="1" opacity="0.44"/>
<text x="1177" y="2540" fill="#15261f" font-size="10" font-weight="500" opacity="0.44"><tspan x="1177" dy="0">4</tspan></text>
<text x="1206" y="2533" fill="#66736d" font-size="9" font-weight="500" opacity="0.44"><tspan x="1206" dy="0">PUBLIC MEMORY</tspan></text>
<text x="1169" y="2572" fill="#15261f" font-size="14" font-weight="500" opacity="0.44"><tspan x="1169" dy="0">The current route</tspan><tspan x="1169" dy="17.36">continues here</tspan></text>
<rect x="1169" y="2585" width="82" height="28" rx="6" fill="#edf2ee" stroke="#15261f" stroke-width="1" opacity="0.44" />
<text x="1179" y="2602" fill="#15261f" font-size="10" font-weight="500" opacity="0.44"><tspan x="1179" dy="0">UNCHANGED</tspan></text>
<rect x="795" y="2773" width="260" height="124" rx="6" fill="#edffc1" stroke="#526800" stroke-width="3" opacity="1" stroke-dasharray="8 6"/>
<text x="815" y="2800" fill="#526800" font-size="10" font-weight="500" opacity="1"><tspan x="815" dy="0">NEW BRANCH PREVIEW</tspan></text>
<text x="815" y="2838" fill="#15261f" font-size="17" font-weight="500" opacity="1"><tspan x="815" dy="0">Can unofficial memory</tspan><tspan x="815" dy="21.08">outlast official history?</tspan></text>
<text x="815" y="2882" fill="#66736d" font-size="9" font-weight="500" opacity="1"><tspan x="815" dy="0">Research creates turn 13 here</tspan></text>
<rect x="1085" y="2778" width="500" height="245" rx="6" fill="#fffdf8" stroke="#15261f" stroke-width="3" opacity="1" />
<text x="1115" y="2814" fill="#d64b38" font-size="11" font-weight="500" opacity="1"><tspan x="1115" dy="0">START A NEW BRANCH?</tspan></text>
<text x="1115" y="2855" fill="#15261f" font-size="19" font-weight="500" opacity="1"><tspan x="1115" dy="0">Your current route stays intact.</tspan></text>
<text x="1115" y="2889" fill="#15261f" font-size="13" font-weight="500" opacity="1"><tspan x="1115" dy="0">WonderDrive will research one new turn from Turn 3.</tspan><tspan x="1115" dy="16.12">The result appears as a sibling branch and becomes current.</tspan></text>
<rect x="1115" y="2931" width="154" height="28" rx="6" fill="#edf2ee" stroke="#15261f" stroke-width="1" opacity="1" />
<text x="1125" y="2948" fill="#15261f" font-size="10" font-weight="500" opacity="1"><tspan x="1125" dy="0">1 LIVE RESEARCH TURN</tspan></text>
<rect x="1115" y="2974" width="220" height="38" rx="6" fill="#15261f" stroke="#15261f" stroke-width="1" opacity="1" />
<text x="1150" y="2996" fill="#fffdf8" font-size="10" font-weight="500" opacity="1"><tspan x="1150" dy="0">START RESEARCH</tspan></text>
<text x="1370" y="2997" fill="#15261f" font-size="10" font-weight="500" opacity="1"><tspan x="1370" dy="0">Cancel</tspan></text>
<rect x="85" y="3118" width="1530" height="78" rx="6" fill="#15261f" stroke="#15261f" stroke-width="1" opacity="1" />
<ellipse cx="121" cy="3156" rx="20" ry="20" fill="#dfff58" stroke="#dfff58" stroke-width="1" opacity="1"/>
<text x="116" y="3158" fill="#15261f" font-size="13" font-weight="500" opacity="1"><tspan x="116" dy="0">5</tspan></text>
<text x="157" y="3145" fill="#dfff58" font-size="12" font-weight="500" opacity="1"><tspan x="157" dy="0">NO SURPRISE BRANCHING</tspan></text>
<text x="157" y="3168" fill="#fffdf8" font-size="11" font-weight="500" opacity="1"><tspan x="157" dy="0">Before committing, the user sees the parent, the new location, what stays untouched, and the cost of the action.</tspan></text>
</g>
</svg>