<svg xmlns="http://www.w3.org/2000/svg" width="1620" height="1050" viewBox="0 0 1620 1050">
<rect x="0" y="0" width="1620" height="1050" fill="#f7f3ea"/>
<style>text{font-family:Arial,Helvetica,sans-serif}</style>
<g transform="translate(-1680 -2180)">
<text x="1700" y="2225" fill="#15261f" font-size="25" font-weight="600" opacity="1"><tspan x="1700" dy="0">06 · MOBILE IS GRAPH-FIRST, NOT A SHRUNK DESKTOP</tspan></text>
<text x="1700" y="2251" fill="#66736d" font-size="13" font-weight="500" opacity="1"><tspan x="1700" dy="0">Mobile state: focused neighborhood, swipe/pan canvas, bottom-sheet details, and a first-class outline alternative.</tspan></text>
<rect x="1700" y="2278" width="1580" height="932" rx="6" fill="#fffdf8" stroke="#15261f" stroke-width="3" opacity="1" />
<rect x="1700" y="2278" width="1580" height="48" rx="6" fill="#ece8df" stroke="#15261f" stroke-width="1" opacity="1" />
<ellipse cx="1722.5" cy="2300.5" rx="4.5" ry="4.5" fill="#ff7b67" stroke="#15261f" stroke-width="1" opacity="1"/>
<ellipse cx="1740.5" cy="2300.5" rx="4.5" ry="4.5" fill="#ffd166" stroke="#15261f" stroke-width="1" opacity="1"/>
<ellipse cx="1758.5" cy="2300.5" rx="4.5" ry="4.5" fill="#81d88d" stroke="#15261f" stroke-width="1" opacity="1"/>
<rect x="2260" y="2290" width="460" height="23" rx="6" fill="#ffffff" stroke="#bfc8c2" stroke-width="1" opacity="1" />
<text x="2411" y="2305" fill="#66736d" font-size="9" font-weight="500" opacity="1"><tspan x="2411" dy="0">wonderdrive.app/journey</tspan></text>
<rect x="1785" y="2373" width="520" height="760" rx="6" fill="#fffdf8" stroke="#15261f" stroke-width="3" opacity="1" />
<rect x="1785" y="2373" width="520" height="54" rx="6" fill="#ece8df" stroke="#15261f" stroke-width="1" opacity="1" />
<text x="1810" y="2405" fill="#15261f" font-size="13" font-weight="500" opacity="1"><tspan x="1810" dy="0">WONDERDRIVE</tspan></text>
<text x="2235" y="2403" fill="#15261f" font-size="11" font-weight="500" opacity="1"><tspan x="2235" dy="0">•••</tspan></text>
<text x="1810" y="2458" fill="#d64b38" font-size="11" font-weight="500" opacity="1"><tspan x="1810" dy="0">Journey graph</tspan></text>
<text x="1810" y="2491" fill="#15261f" font-size="18" font-weight="500" opacity="1"><tspan x="1810" dy="0">Turn 8 of 12 · 7 open</tspan></text>
<rect x="1810" y="2510" width="470" height="40" rx="6" fill="#edf2ee" stroke="#15261f" stroke-width="1" opacity="1" />
<text x="1828" y="2533" fill="#15261f" font-size="10" font-weight="500" opacity="1"><tspan x="1828" dy="0">Root  ›  archaeology  ›  monuments  ›  you</tspan></text>
<polyline points="1895,2668 1970,2668 1970,2586 2045,2586" fill="none" stroke="#15261f" stroke-width="4" opacity="1" />
<polyline points="2045,2586 2100,2586 2100,2546 2155,2546" fill="none" stroke="#15261f" stroke-width="4" opacity="1" />
<polyline points="2045,2586 2100,2586 2100,2691 2155,2691" fill="none" stroke="#526800" stroke-width="2" opacity="1" stroke-dasharray="8 6"/>
<rect x="1815" y="2616" width="180" height="92" rx="6" fill="#fffdf8" stroke="#bfc8c2" stroke-width="1" opacity="1" />
<ellipse cx="1841" cy="2642" rx="14" ry="14" fill="#edf2ee" stroke="#bfc8c2" stroke-width="1" opacity="1"/>
<text x="1837" y="2645" fill="#15261f" font-size="10" font-weight="500" opacity="1"><tspan x="1837" dy="0">7</tspan></text>
<text x="1866" y="2638" fill="#66736d" font-size="9" font-weight="500" opacity="1"><tspan x="1866" dy="0">PUBLIC MEMORY</tspan></text>
<text x="1829" y="2677" fill="#15261f" font-size="14" font-weight="500" opacity="1"><tspan x="1829" dy="0">Official memory</tspan></text>
<rect x="1829" y="2678" width="76" height="28" rx="6" fill="#edf2ee" stroke="#15261f" stroke-width="1" opacity="1" />
<text x="1839" y="2695" fill="#15261f" font-size="10" font-weight="500" opacity="1"><tspan x="1839" dy="0">ANCESTOR</tspan></text>
<rect x="2155" y="2494" width="125" height="100" rx="6" fill="#a9d4ff" stroke="#15261f" stroke-width="3" opacity="1" />
<ellipse cx="2181" cy="2520" rx="14" ry="14" fill="#dfff58" stroke="#15261f" stroke-width="1" opacity="1"/>
<text x="2177" y="2523" fill="#15261f" font-size="10" font-weight="500" opacity="1"><tspan x="2177" dy="0">8</tspan></text>
<text x="2206" y="2516" fill="#66736d" font-size="9" font-weight="500" opacity="1"><tspan x="2206" dy="0">PUBLIC MEMORY</tspan></text>
<text x="2169" y="2555" fill="#15261f" font-size="14" font-weight="500" opacity="1"><tspan x="2169" dy="0">When monuments</tspan><tspan x="2169" dy="17.36">disagree</tspan></text>
<rect x="2169" y="2564" width="48" height="28" rx="6" fill="#edf2ee" stroke="#15261f" stroke-width="1" opacity="1" />
<text x="2179" y="2581" fill="#15261f" font-size="10" font-weight="500" opacity="1"><tspan x="2179" dy="0">HERE</tspan></text>
<rect x="2155" y="2648" width="125" height="86" rx="6" fill="#edffc1" stroke="#526800" stroke-width="1" opacity="1" stroke-dasharray="8 6"/>
<text x="2167" y="2668" fill="#526800" font-size="9" font-weight="500" opacity="1"><tspan x="2167" dy="0">+ OPEN · 8B</tspan></text>
<text x="2167" y="2696" fill="#15261f" font-size="12" font-weight="500" opacity="1"><tspan x="2167" dy="0">Who renames</tspan><tspan x="2167" dy="14.879999999999999">a place?</tspan></text>
<rect x="1815" y="2763" width="150" height="98" rx="6" fill="#fffdf8" stroke="#bfc8c2" stroke-width="1" opacity="1" />
<text x="1825" y="2779" fill="#66736d" font-size="8" font-weight="500" opacity="1"><tspan x="1825" dy="0">OVERVIEW</tspan></text>
<ellipse cx="1839" cy="2812" rx="4" ry="4" fill="#15261f" stroke="#15261f" stroke-width="1" opacity="1"/>
<ellipse cx="1873" cy="2799" rx="4" ry="4" fill="#15261f" stroke="#15261f" stroke-width="1" opacity="1"/>
<ellipse cx="1873" cy="2835" rx="4" ry="4" fill="#15261f" stroke="#15261f" stroke-width="1" opacity="1"/>
<ellipse cx="1907" cy="2787" rx="4" ry="4" fill="#15261f" stroke="#15261f" stroke-width="1" opacity="1"/>
<ellipse cx="1907" cy="2817" rx="4" ry="4" fill="#15261f" stroke="#15261f" stroke-width="1" opacity="1"/>
<ellipse cx="1907" cy="2849" rx="4" ry="4" fill="#15261f" stroke="#15261f" stroke-width="1" opacity="1"/>
<ellipse cx="1943" cy="2802" rx="4" ry="4" fill="#15261f" stroke="#15261f" stroke-width="1" opacity="1"/>
<ellipse cx="1943" cy="2833" rx="4" ry="4" fill="#15261f" stroke="#15261f" stroke-width="1" opacity="1"/>
<ellipse cx="1977" cy="2816" rx="4" ry="4" fill="#15261f" stroke="#15261f" stroke-width="1" opacity="1"/>
<polyline points="1839,2812 1873,2799 1873,2835 1907,2783 1907,2813 1907,2845 1943,2798 1943,2829 1977,2812" fill="none" stroke="#bfc8c2" stroke-width="1" opacity="1" />
<rect x="1877" y="2784" width="52" height="47" rx="6" fill="none" stroke="#ff8a76" stroke-width="2" opacity="1" />
<rect x="1785" y="2878" width="520" height="255" rx="6" fill="#fffdf8" stroke="#15261f" stroke-width="2" opacity="1" />
<rect x="1990" y="2890" width="110" height="5" rx="6" fill="#bfc8c2" stroke="#bfc8c2" stroke-width="1" opacity="1" />
<text x="1810" y="2923" fill="#d64b38" font-size="10" font-weight="500" opacity="1"><tspan x="1810" dy="0">TURN 8 · YOU ARE HERE</tspan></text>
<text x="1810" y="2965" fill="#15261f" font-size="19" font-weight="500" opacity="1"><tspan x="1810" dy="0">When monuments and communities disagree</tspan></text>
<text x="1810" y="3004" fill="#66736d" font-size="10" font-weight="500" opacity="1"><tspan x="1810" dy="0">Answer summary · 8 sources</tspan></text>
<rect x="1810" y="3032" width="220" height="48" rx="6" fill="#edffc1" stroke="#526800" stroke-width="1" opacity="1" />
<text x="1828" y="3060" fill="#15261f" font-size="11" font-weight="500" opacity="1"><tspan x="1828" dy="0">2 open directions</tspan></text>
<rect x="2050" y="3032" width="230" height="48" rx="6" fill="#15261f" stroke="#15261f" stroke-width="1" opacity="1" />
<text x="2101" y="3059" fill="#fffdf8" font-size="10" font-weight="500" opacity="1"><tspan x="2101" dy="0">OPEN ANSWER</tspan></text>
<text x="1870" y="3113" fill="#15261f" font-size="9" font-weight="500" opacity="1"><tspan x="1870" dy="0">← BACK</tspan></text>
<text x="2015" y="3113" fill="#15261f" font-size="9" font-weight="500" opacity="1"><tspan x="2015" dy="0">FIT</tspan></text>
<text x="2140" y="3113" fill="#15261f" font-size="9" font-weight="500" opacity="1"><tspan x="2140" dy="0">OUTLINE</tspan></text>
<rect x="2500" y="2373" width="690" height="760" rx="6" fill="#edf2ee" stroke="#15261f" stroke-width="3" opacity="1" />
<text x="2530" y="2414" fill="#d64b38" font-size="11" font-weight="500" opacity="1"><tspan x="2530" dy="0">OUTLINE VIEW · EQUIVALENT NAVIGATION</tspan></text>
<text x="2530" y="2456" fill="#15261f" font-size="18" font-weight="500" opacity="1"><tspan x="2530" dy="0">Same journey, readable without spatial navigation</tspan></text>
<polyline points="2565,2508 2565,2963" fill="none" stroke="#bfc8c2" stroke-width="2" opacity="1" />
<rect x="2530" y="2483" width="610" height="82" rx="6" fill="#fffdf8" stroke="#bfc8c2" stroke-width="1" opacity="1" />
<ellipse cx="2564" cy="2517" rx="16" ry="16" fill="#edf2ee" stroke="#15261f" stroke-width="1" opacity="1"/>
<text x="2560" y="2519" fill="#15261f" font-size="10" font-weight="500" opacity="1"><tspan x="2560" dy="0">1</tspan></text>
<text x="2595" y="2513" fill="#15261f" font-size="13" font-weight="500" opacity="1"><tspan x="2595" dy="0">Cities and memory</tspan></text>
<text x="2595" y="2540" fill="#66736d" font-size="9" font-weight="500" opacity="1"><tspan x="2595" dy="0">2 children · expanded</tspan></text>
<text x="3095" y="2526" fill="#15261f" font-size="16" font-weight="500" opacity="1"><tspan x="3095" dy="0">−</tspan></text>
<rect x="2550" y="2589" width="590" height="82" rx="6" fill="#fffdf8" stroke="#bfc8c2" stroke-width="1" opacity="1" />
<ellipse cx="2584" cy="2623" rx="16" ry="16" fill="#edf2ee" stroke="#15261f" stroke-width="1" opacity="1"/>
<text x="2580" y="2625" fill="#15261f" font-size="10" font-weight="500" opacity="1"><tspan x="2580" dy="0">2</tspan></text>
<text x="2615" y="2619" fill="#15261f" font-size="13" font-weight="500" opacity="1"><tspan x="2615" dy="0">Archaeology and erased places</tspan></text>
<text x="2615" y="2646" fill="#66736d" font-size="9" font-weight="500" opacity="1"><tspan x="2615" dy="0">2 children · expanded</tspan></text>
<text x="3095" y="2632" fill="#15261f" font-size="16" font-weight="500" opacity="1"><tspan x="3095" dy="0">−</tspan></text>
<rect x="2570" y="2695" width="570" height="82" rx="6" fill="#fffdf8" stroke="#bfc8c2" stroke-width="1" opacity="1" />
<ellipse cx="2604" cy="2729" rx="16" ry="16" fill="#edf2ee" stroke="#15261f" stroke-width="1" opacity="1"/>
<text x="2600" y="2731" fill="#15261f" font-size="10" font-weight="500" opacity="1"><tspan x="2600" dy="0">3</tspan></text>
<text x="2635" y="2725" fill="#15261f" font-size="13" font-weight="500" opacity="1"><tspan x="2635" dy="0">Who decides official memory?</tspan></text>
<text x="2635" y="2752" fill="#66736d" font-size="9" font-weight="500" opacity="1"><tspan x="2635" dy="0">2 children · expanded</tspan></text>
<text x="3095" y="2738" fill="#15261f" font-size="16" font-weight="500" opacity="1"><tspan x="3095" dy="0">−</tspan></text>
<rect x="2590" y="2801" width="550" height="82" rx="6" fill="#a9d4ff" stroke="#15261f" stroke-width="3" opacity="1" />
<ellipse cx="2624" cy="2835" rx="16" ry="16" fill="#dfff58" stroke="#15261f" stroke-width="1" opacity="1"/>
<text x="2620" y="2837" fill="#15261f" font-size="10" font-weight="500" opacity="1"><tspan x="2620" dy="0">8</tspan></text>
<text x="2655" y="2831" fill="#15261f" font-size="13" font-weight="500" opacity="1"><tspan x="2655" dy="0">When monuments disagree</tspan></text>
<text x="2655" y="2858" fill="#66736d" font-size="9" font-weight="500" opacity="1"><tspan x="2655" dy="0">selected · 2 open</tspan></text>
<text x="3095" y="2844" fill="#15261f" font-size="16" font-weight="500" opacity="1"><tspan x="3095" dy="0">→</tspan></text>
<rect x="2610" y="2907" width="530" height="82" rx="6" fill="#fffdf8" stroke="#bfc8c2" stroke-width="1" opacity="1" />
<ellipse cx="2644" cy="2941" rx="16" ry="16" fill="#edf2ee" stroke="#15261f" stroke-width="1" opacity="1"/>
<text x="2640" y="2943" fill="#15261f" font-size="10" font-weight="500" opacity="1"><tspan x="2640" dy="0">9</tspan></text>
<text x="2675" y="2937" fill="#15261f" font-size="13" font-weight="500" opacity="1"><tspan x="2675" dy="0">Who gets to rename a place?</tspan></text>
<text x="2675" y="2964" fill="#66736d" font-size="9" font-weight="500" opacity="1"><tspan x="2675" dy="0">open path</tspan></text>
<text x="3095" y="2950" fill="#15261f" font-size="16" font-weight="500" opacity="1"><tspan x="3095" dy="0">+</tspan></text>
<text x="2530" y="3044" fill="#66736d" font-size="11" font-weight="500" opacity="1"><tspan x="2530" dy="0">Keyboard: arrows move · Enter selects · Left/Right collapse or expand</tspan></text>
<rect x="1725" y="3118" width="1530" height="78" rx="6" fill="#15261f" stroke="#15261f" stroke-width="1" opacity="1" />
<ellipse cx="1761" cy="3156" rx="20" ry="20" fill="#dfff58" stroke="#dfff58" stroke-width="1" opacity="1"/>
<text x="1756" y="3158" fill="#15261f" font-size="13" font-weight="500" opacity="1"><tspan x="1756" dy="0">6</tspan></text>
<text x="1797" y="3145" fill="#dfff58" font-size="12" font-weight="500" opacity="1"><tspan x="1797" dy="0">TWO EQUAL WAYS TO NAVIGATE</tspan></text>
<text x="1797" y="3168" fill="#fffdf8" font-size="11" font-weight="500" opacity="1"><tspan x="1797" dy="0">The canvas is the visual experience; Outline is not a fallback afterthought—it exposes the same hierarchy, selection, and actions.</tspan></text>
</g>
</svg>