<svg xmlns="http://www.w3.org/2000/svg" width="2400" height="2440" viewBox="0 0 2400 2440">
<rect width="2400" height="2440" fill="#f7f5ef"/>
<style>text{font-family:Arial,Helvetica,sans-serif}</style>
<text x="60" y="75" fill="#17212b" font-size="40" font-weight="600"><tspan x="60" dy="0">WONDERDRIVE · JOURNEY ATLAS</tspan></text>
<text x="62" y="107" fill="#667085" font-size="17" font-weight="500"><tspan x="62" dy="0">Replace the Stage / Journey map split with one workspace where path, answer, evidence, and next choices stay visible together.</tspan></text>
<rect x="1900" y="45" width="200" height="28" rx="7" fill="#dfff58" stroke="#17212b" stroke-width="1" />
<text x="1910" y="62" fill="#17212b" font-size="10" font-weight="500"><tspan x="1910" dy="0">RECOMMENDED DIRECTION</tspan></text>
<text x="60" y="159" fill="#d64b38" font-size="14" font-weight="500"><tspan x="60" dy="0">DESKTOP · ONE JOURNEY WORKSPACE</tspan></text>
<rect x="60" y="180" width="1900" height="1080" rx="7" fill="#fffdf8" stroke="#17212b" stroke-width="3" />
<rect x="60" y="180" width="1900" height="52" rx="7" fill="#eeeae2" stroke="#17212b" stroke-width="2" />
<ellipse cx="85" cy="205" rx="5" ry="5" fill="#ff7b67" stroke="#17212b" stroke-width="1"/>
<ellipse cx="104" cy="205" rx="5" ry="5" fill="#ffd166" stroke="#17212b" stroke-width="1"/>
<ellipse cx="123" cy="205" rx="5" ry="5" fill="#81d88d" stroke="#17212b" stroke-width="1"/>
<rect x="690" y="193" width="600" height="25" rx="7" fill="#ffffff" stroke="#b7bec6" stroke-width="1" />
<text x="882" y="209" fill="#667085" font-size="10" font-weight="500"><tspan x="882" dy="0">wonderdrive.app/journey/atlas</tspan></text>
<rect x="60" y="232" width="1900" height="70" rx="7" fill="#fffdf8" stroke="#17212b" stroke-width="1" />
<text x="88" y="271" fill="#17212b" font-size="16" font-weight="500"><tspan x="88" dy="0">WONDERDRIVE</tspan></text>
<text x="1010" y="268" fill="#667085" font-size="10" font-weight="500"><tspan x="1010" dy="0">NEW DRIVE</tspan></text>
<text x="1135" y="268" fill="#667085" font-size="10" font-weight="500"><tspan x="1135" dy="0">LIBRARY</tspan></text>
<text x="1235" y="268" fill="#667085" font-size="10" font-weight="500"><tspan x="1235" dy="0">COMPARE</tspan></text>
<text x="1340" y="268" fill="#667085" font-size="10" font-weight="500"><tspan x="1340" dy="0">USAGE</tspan></text>
<rect x="1770" y="247" width="158" height="38" rx="7" fill="#17212b" stroke="#17212b" stroke-width="1" />
<text x="1804" y="269" fill="#fffdf8" font-size="10" font-weight="500"><tspan x="1804" dy="0">JOURNEY •••</tspan></text>
<rect x="60" y="302" width="1900" height="96" rx="7" fill="#f1f6f8" stroke="#17212b" stroke-width="1" />
<text x="88" y="333" fill="#667085" font-size="11" font-weight="500"><tspan x="88" dy="0">HOW DOES A CITY REMEMBER?</tspan></text>
<text x="88" y="371" fill="#17212b" font-size="25" font-weight="600"><tspan x="88" dy="0">Contested memory and public space</tspan></text>
<rect x="1110" y="334" width="118" height="28" rx="7" fill="#acd8ff" stroke="#17212b" stroke-width="1" />
<text x="1120" y="351" fill="#17212b" font-size="10" font-weight="500"><tspan x="1120" dy="0">TURN 3 OF 5</tspan></text>
<rect x="1242" y="334" width="128" height="28" rx="7" fill="#efffc4" stroke="#17212b" stroke-width="1" />
<text x="1252" y="351" fill="#17212b" font-size="10" font-weight="500"><tspan x="1252" dy="0">4 OPEN PATHS</tspan></text>
<rect x="1384" y="334" width="108" height="28" rx="7" fill="#eeeae2" stroke="#17212b" stroke-width="1" />
<text x="1394" y="351" fill="#17212b" font-size="10" font-weight="500"><tspan x="1394" dy="0">12 SOURCES</tspan></text>
<rect x="1506" y="334" width="125" height="28" rx="7" fill="#ffd2ca" stroke="#17212b" stroke-width="1" />
<text x="1516" y="351" fill="#17212b" font-size="10" font-weight="500"><tspan x="1516" dy="0">SAGE · LUNA</tspan></text>
<rect x="1650" y="327" width="278" height="44" rx="7" fill="#fffdf8" stroke="#17212b" stroke-width="1" />
<text x="1672" y="353" fill="#667085" font-size="11" font-weight="500"><tspan x="1672" dy="0">Search this journey…</tspan></text>
<rect x="60" y="398" width="355" height="862" rx="7" fill="#f1f6f8" stroke="#17212b" stroke-width="1" />
<rect x="415" y="398" width="1010" height="862" rx="7" fill="#fffdf8" stroke="#17212b" stroke-width="1" />
<rect x="1425" y="398" width="535" height="862" rx="7" fill="#f1f6f8" stroke="#17212b" stroke-width="1" />
<text x="88" y="436" fill="#d64b38" font-size="11" font-weight="500"><tspan x="88" dy="0">JOURNEY OUTLINE</tspan></text>
<text x="88" y="469" fill="#17212b" font-size="18" font-weight="500"><tspan x="88" dy="0">Everything, always in reach</tspan></text>
<text x="88" y="492" fill="#667085" font-size="10" font-weight="500"><tspan x="88" dy="0">Current route</tspan></text>
<rect x="88" y="510" width="260" height="78" rx="7" fill="#fffdf8" stroke="#17212b" stroke-width="1" />
<ellipse cx="117" cy="544" rx="17" ry="17" fill="#f1f6f8" stroke="#17212b" stroke-width="1"/>
<text x="112" y="546" fill="#17212b" font-size="11" font-weight="500"><tspan x="112" dy="0">1</tspan></text>
<text x="146" y="537" fill="#17212b" font-size="13" font-weight="500"><tspan x="146" dy="0">How does a city remember?</tspan></text>
<text x="146" y="562" fill="#667085" font-size="9" font-weight="500"><tspan x="146" dy="0">Explored</tspan></text>
<polyline points="116,588 116,610" fill="none" stroke="#17212b" stroke-width="2"/>
<rect x="88" y="610" width="260" height="78" rx="7" fill="#fffdf8" stroke="#17212b" stroke-width="1" />
<ellipse cx="117" cy="644" rx="17" ry="17" fill="#f1f6f8" stroke="#17212b" stroke-width="1"/>
<text x="112" y="646" fill="#17212b" font-size="11" font-weight="500"><tspan x="112" dy="0">2</tspan></text>
<text x="146" y="637" fill="#17212b" font-size="13" font-weight="500"><tspan x="146" dy="0">Who makes memory official?</tspan></text>
<text x="146" y="662" fill="#667085" font-size="9" font-weight="500"><tspan x="146" dy="0">Explored · 1 open path</tspan></text>
<polyline points="116,688 116,710" fill="none" stroke="#17212b" stroke-width="2"/>
<rect x="88" y="710" width="260" height="78" rx="7" fill="#acd8ff" stroke="#17212b" stroke-width="3" />
<ellipse cx="117" cy="744" rx="17" ry="17" fill="#dfff58" stroke="#17212b" stroke-width="1"/>
<text x="112" y="746" fill="#17212b" font-size="11" font-weight="500"><tspan x="112" dy="0">3</tspan></text>
<text x="146" y="737" fill="#17212b" font-size="13" font-weight="500"><tspan x="146" dy="0">When monuments disagree</tspan></text>
<text x="146" y="762" fill="#667085" font-size="9" font-weight="500"><tspan x="146" dy="0">You are here · 2 open paths</tspan></text>
<polyline points="116,788 116,810" fill="none" stroke="#17212b" stroke-width="2"/>
<rect x="88" y="810" width="260" height="78" rx="7" fill="#fffdf8" stroke="#17212b" stroke-width="1" />
<ellipse cx="117" cy="844" rx="17" ry="17" fill="#f1f6f8" stroke="#17212b" stroke-width="1"/>
<text x="112" y="846" fill="#17212b" font-size="11" font-weight="500"><tspan x="112" dy="0">4</tspan></text>
<text x="146" y="837" fill="#17212b" font-size="13" font-weight="500"><tspan x="146" dy="0">Who gets to rename places?</tspan></text>
<text x="146" y="862" fill="#667085" font-size="9" font-weight="500"><tspan x="146" dy="0">Explored</tspan></text>
<polyline points="116,888 116,910" fill="none" stroke="#17212b" stroke-width="2"/>
<rect x="88" y="910" width="260" height="78" rx="7" fill="#fffdf8" stroke="#17212b" stroke-width="1" />
<ellipse cx="117" cy="944" rx="17" ry="17" fill="#f1f6f8" stroke="#17212b" stroke-width="1"/>
<text x="112" y="946" fill="#17212b" font-size="11" font-weight="500"><tspan x="112" dy="0">5</tspan></text>
<text x="146" y="937" fill="#17212b" font-size="13" font-weight="500"><tspan x="146" dy="0">Can removal strengthen memory?</tspan></text>
<text x="146" y="962" fill="#667085" font-size="9" font-weight="500"><tspan x="146" dy="0">Latest answer</tspan></text>
<text x="88" y="1024" fill="#667085" font-size="10" font-weight="500"><tspan x="88" dy="0">OTHER BRANCHES</tspan></text>
<rect x="88" y="1040" width="260" height="58" rx="7" fill="#efffc4" stroke="#849c15" stroke-width="1" stroke-dasharray="9 7"/>
<text x="102" y="1063" fill="#506500" font-size="10" font-weight="500"><tspan x="102" dy="0">+ Open from turn 1</tspan></text>
<text x="102" y="1086" fill="#17212b" font-size="11" font-weight="500"><tspan x="102" dy="0">What do cities choose to forget?</tspan></text>
<rect x="88" y="1110" width="260" height="58" rx="7" fill="#efffc4" stroke="#849c15" stroke-width="1" stroke-dasharray="9 7"/>
<text x="102" y="1133" fill="#506500" font-size="10" font-weight="500"><tspan x="102" dy="0">+ Open from turn 2</tspan></text>
<text x="102" y="1156" fill="#17212b" font-size="11" font-weight="500"><tspan x="102" dy="0">Can unofficial memory win?</tspan></text>
<text x="88" y="1202" fill="#667085" font-size="10" font-weight="500"><tspan x="88" dy="0">Collapse outline  ‹</tspan></text>
<text x="455" y="436" fill="#d64b38" font-size="11" font-weight="500"><tspan x="455" dy="0">SELECTED TURN · 3</tspan></text>
<text x="455" y="487" fill="#17212b" font-size="31" font-weight="600"><tspan x="455" dy="0">What happens when a monument</tspan><tspan x="455" dy="38.75">and its community disagree?</tspan></text>
<text x="455" y="555" fill="#667085" font-size="11" font-weight="500"><tspan x="455" dy="0">Researched by Sage · 8 min ago</tspan></text>
<rect x="455" y="579" width="930" height="180" rx="7" fill="#f1f6f8" stroke="#17212b" stroke-width="1" />
<text x="480" y="612" fill="#667085" font-size="10" font-weight="500"><tspan x="480" dy="0">ANSWER AT A GLANCE</tspan></text>
<text x="480" y="652" fill="#17212b" font-size="18" font-weight="500"><tspan x="480" dy="0">A monument stops behaving like shared memory when its official story</tspan><tspan x="480" dy="22.5">no longer matches lived experience. Conflict is not just about the object;</tspan><tspan x="480" dy="22.5">it is about who is allowed to define the public meaning of a place.</tspan></text>
<text x="480" y="735" fill="#17212b" font-size="11" font-weight="500"><tspan x="480" dy="0">Read full answer  ↓</tspan></text>
<text x="455" y="805" fill="#667085" font-size="10" font-weight="500"><tspan x="455" dy="0">THE THREAD IN THREE IDEAS</tspan></text>
<rect x="455" y="825" width="290" height="112" rx="7" fill="#fffdf8" stroke="#17212b" stroke-width="1" />
<text x="473" y="852" fill="#667085" font-size="10" font-weight="500"><tspan x="473" dy="0">01 · AUTHORITY</tspan></text>
<text x="473" y="885" fill="#17212b" font-size="15" font-weight="500"><tspan x="473" dy="0">Official stories compete</tspan><tspan x="473" dy="18.75">with lived memory.</tspan></text>
<rect x="765" y="825" width="290" height="112" rx="7" fill="#fffdf8" stroke="#17212b" stroke-width="1" />
<text x="783" y="852" fill="#667085" font-size="10" font-weight="500"><tspan x="783" dy="0">02 · PLACE</tspan></text>
<text x="783" y="885" fill="#17212b" font-size="15" font-weight="500"><tspan x="783" dy="0">Public meaning changes</tspan><tspan x="783" dy="18.75">as communities change.</tspan></text>
<rect x="1075" y="825" width="310" height="112" rx="7" fill="#fffdf8" stroke="#17212b" stroke-width="1" />
<text x="1093" y="852" fill="#667085" font-size="10" font-weight="500"><tspan x="1093" dy="0">03 · ACTION</tspan></text>
<text x="1093" y="885" fill="#17212b" font-size="15" font-weight="500"><tspan x="1093" dy="0">Removal, reinterpretation,</tspan><tspan x="1093" dy="18.75">or deliberate tension.</tspan></text>
<rect x="455" y="975" width="930" height="120" rx="7" fill="#fffdf8" stroke="#c5d0d7" stroke-width="1" />
<text x="480" y="1004" fill="#667085" font-size="10" font-weight="500"><tspan x="480" dy="0">EVIDENCE USED</tspan></text>
<text x="480" y="1039" fill="#17212b" font-size="15" font-weight="500"><tspan x="480" dy="0">12 sources · 7 cited in the answer · 3 primary records</tspan></text>
<rect x="480" y="1056" width="105" height="28" rx="7" fill="#f1f6f8" stroke="#17212b" stroke-width="1" />
<text x="490" y="1073" fill="#17212b" font-size="10" font-weight="500"><tspan x="490" dy="0">Smithsonian</tspan></text>
<rect x="598" y="1056" width="102" height="28" rx="7" fill="#f1f6f8" stroke="#17212b" stroke-width="1" />
<text x="608" y="1073" fill="#17212b" font-size="10" font-weight="500"><tspan x="608" dy="0">City archive</tspan></text>
<rect x="713" y="1056" width="112" height="28" rx="7" fill="#f1f6f8" stroke="#17212b" stroke-width="1" />
<text x="723" y="1073" fill="#17212b" font-size="10" font-weight="500"><tspan x="723" dy="0">Local reporting</tspan></text>
<text x="1245" y="1068" fill="#17212b" font-size="10" font-weight="500"><tspan x="1245" dy="0">Inspect all  →</tspan></text>
<rect x="455" y="1130" width="930" height="90" rx="7" fill="#fffdf8" stroke="#c5d0d7" stroke-width="1" />
<text x="480" y="1157" fill="#667085" font-size="10" font-weight="500"><tspan x="480" dy="0">TURN TOOLS</tspan></text>
<text x="480" y="1187" fill="#17212b" font-size="11" font-weight="500"><tspan x="480" dy="0">Listen</tspan></text>
<text x="570" y="1187" fill="#17212b" font-size="11" font-weight="500"><tspan x="570" dy="0">Snapshot</tspan></text>
<text x="680" y="1187" fill="#17212b" font-size="11" font-weight="500"><tspan x="680" dy="0">Share</tspan></text>
<text x="1210" y="1187" fill="#17212b" font-size="11" font-weight="500"><tspan x="1210" dy="0">Revisit from here</tspan></text>
<text x="1460" y="436" fill="#d64b38" font-size="11" font-weight="500"><tspan x="1460" dy="0">NEXT MOVE</tspan></text>
<text x="1460" y="477" fill="#17212b" font-size="21" font-weight="600"><tspan x="1460" dy="0">Where should curiosity go?</tspan></text>
<text x="1460" y="503" fill="#667085" font-size="11" font-weight="500"><tspan x="1460" dy="0">Both earned paths stay beside the answer.</tspan></text>
<rect x="1460" y="535" width="465" height="220" rx="7" fill="#efffc4" stroke="#849c15" stroke-width="2" />
<rect x="1480" y="555" width="86" height="28" rx="7" fill="#dfff58" stroke="#506500" stroke-width="1" />
<text x="1490" y="572" fill="#506500" font-size="10" font-weight="500"><tspan x="1490" dy="0">OPTION A</tspan></text>
<text x="1480" y="625" fill="#17212b" font-size="22" font-weight="600"><tspan x="1480" dy="0">Who gets to rename</tspan><tspan x="1480" dy="27.5">a public place?</tspan></text>
<text x="1480" y="688" fill="#667085" font-size="10" font-weight="500"><tspan x="1480" dy="0">Power · language · belonging</tspan></text>
<rect x="1480" y="707" width="425" height="30" rx="7" fill="#17212b" stroke="#17212b" stroke-width="1" />
<text x="1640" y="725" fill="#fffdf8" font-size="10" font-weight="500"><tspan x="1640" dy="0">EXPLORE A</tspan></text>
<rect x="1460" y="775" width="465" height="220" rx="7" fill="#acd8ff" stroke="#17212b" stroke-width="2" />
<rect x="1480" y="795" width="86" height="28" rx="7" fill="#fffdf8" stroke="#17212b" stroke-width="1" />
<text x="1490" y="812" fill="#17212b" font-size="10" font-weight="500"><tspan x="1490" dy="0">OPTION B</tspan></text>
<text x="1480" y="865" fill="#17212b" font-size="22" font-weight="600"><tspan x="1480" dy="0">Can removal create</tspan><tspan x="1480" dy="27.5">a stronger memory?</tspan></text>
<text x="1480" y="928" fill="#667085" font-size="10" font-weight="500"><tspan x="1480" dy="0">Loss · repair · counter-memory</tspan></text>
<rect x="1480" y="947" width="425" height="30" rx="7" fill="#17212b" stroke="#17212b" stroke-width="1" />
<text x="1640" y="965" fill="#fffdf8" font-size="10" font-weight="500"><tspan x="1640" dy="0">EXPLORE B</tspan></text>
<rect x="1460" y="1035" width="465" height="104" rx="7" fill="#fffdf8" stroke="#c5d0d7" stroke-width="1" />
<text x="1480" y="1064" fill="#667085" font-size="10" font-weight="500"><tspan x="1480" dy="0">NOT READY TO CHOOSE?</tspan></text>
<text x="1480" y="1096" fill="#17212b" font-size="14" font-weight="500"><tspan x="1480" dy="0">Return to the outline, compare an earlier</tspan><tspan x="1480" dy="17.5">turn, or let Sage choose.</tspan></text>
<text x="1460" y="1196" fill="#667085" font-size="11" font-weight="500"><tspan x="1460" dy="0">The right rail is about action only — no settings,</tspan><tspan x="1460" dy="13.75">long metadata, or duplicate answer content.</tspan></text>
<ellipse cx="2040" cy="335" rx="20" ry="20" fill="#dfff58" stroke="#17212b" stroke-width="2"/>
<text x="2034" y="338" fill="#17212b" font-size="14" font-weight="500"><tspan x="2034" dy="0">1</tspan></text>
<text x="2070" y="336" fill="#17212b" font-size="13" font-weight="500"><tspan x="2070" dy="0">No Stage / Map toggle</tspan></text>
<polyline points="2040,355 2040,381 1700,319" fill="none" stroke="#667085" stroke-width="1"/>
<path d="M1689,312 L1700,319 L1689,326" fill="none" stroke="#667085" stroke-width="1"/>
<ellipse cx="2040" cy="540" rx="20" ry="20" fill="#acd8ff" stroke="#17212b" stroke-width="2"/>
<text x="2034" y="543" fill="#17212b" font-size="14" font-weight="500"><tspan x="2034" dy="0">2</tspan></text>
<text x="2070" y="541" fill="#17212b" font-size="13" font-weight="500"><tspan x="2070" dy="0">Whole journey stays visible</tspan></text>
<polyline points="2040,560 2040,586 290,694" fill="none" stroke="#667085" stroke-width="1"/>
<path d="M279,687 L290,694 L279,701" fill="none" stroke="#667085" stroke-width="1"/>
<ellipse cx="2040" cy="765" rx="20" ry="20" fill="#ffd2ca" stroke="#17212b" stroke-width="2"/>
<text x="2034" y="768" fill="#17212b" font-size="14" font-weight="500"><tspan x="2034" dy="0">3</tspan></text>
<text x="2070" y="766" fill="#17212b" font-size="13" font-weight="500"><tspan x="2070" dy="0">Selection changes the center</tspan></text>
<polyline points="2040,785 2040,811 930,584" fill="none" stroke="#667085" stroke-width="1"/>
<path d="M919,577 L930,584 L919,591" fill="none" stroke="#667085" stroke-width="1"/>
<ellipse cx="2040" cy="990" rx="20" ry="20" fill="#efffc4" stroke="#17212b" stroke-width="2"/>
<text x="2034" y="993" fill="#17212b" font-size="14" font-weight="500"><tspan x="2034" dy="0">4</tspan></text>
<text x="2070" y="991" fill="#17212b" font-size="13" font-weight="500"><tspan x="2070" dy="0">Next choices never disappear</tspan></text>
<polyline points="2040,1010 2040,1036 1730,694" fill="none" stroke="#667085" stroke-width="1"/>
<path d="M1719,687 L1730,694 L1719,701" fill="none" stroke="#667085" stroke-width="1"/>
<text x="60" y="1334" fill="#d64b38" font-size="14" font-weight="500"><tspan x="60" dy="0">MOBILE · SAME INFORMATION, STACKED WITH JUMP LINKS</tspan></text>
<rect x="60" y="1355" width="540" height="1040" rx="7" fill="#fffdf8" stroke="#17212b" stroke-width="3" />
<rect x="60" y="1355" width="540" height="58" rx="7" fill="#eeeae2" stroke="#17212b" stroke-width="1" />
<text x="85" y="1388" fill="#17212b" font-size="13" font-weight="500"><tspan x="85" dy="0">WONDERDRIVE</tspan></text>
<text x="520" y="1388" fill="#17212b" font-size="12" font-weight="500"><tspan x="520" dy="0">•••</tspan></text>
<text x="85" y="1461" fill="#17212b" font-size="21" font-weight="600"><tspan x="85" dy="0">How does a city remember?</tspan></text>
<text x="85" y="1484" fill="#667085" font-size="10" font-weight="500"><tspan x="85" dy="0">Turn 3 of 5 · 4 open paths</tspan></text>
<rect x="85" y="1510" width="490" height="44" rx="7" fill="#f1f6f8" stroke="#17212b" stroke-width="1" />
<text x="120" y="1534" fill="#17212b" font-size="10" font-weight="500"><tspan x="120" dy="0">PATH</tspan></text>
<text x="278" y="1534" fill="#17212b" font-size="10" font-weight="500"><tspan x="278" dy="0">ANSWER</tspan></text>
<text x="445" y="1534" fill="#17212b" font-size="10" font-weight="500"><tspan x="445" dy="0">NEXT</tspan></text>
<polyline points="105,1568 105,1708" fill="none" stroke="#17212b" stroke-width="2"/>
<ellipse cx="105" cy="1597" rx="17" ry="17" fill="#f1f6f8" stroke="#17212b" stroke-width="1"/>
<text x="100" y="1599" fill="#17212b" font-size="11" font-weight="500"><tspan x="100" dy="0">1</tspan></text>
<text x="140" y="1598" fill="#17212b" font-size="14" font-weight="500"><tspan x="140" dy="0">How does a city remember?</tspan></text>
<text x="140" y="1618" fill="#667085" font-size="9" font-weight="500"><tspan x="140" dy="0">Explored</tspan></text>
<ellipse cx="105" cy="1652" rx="17" ry="17" fill="#f1f6f8" stroke="#17212b" stroke-width="1"/>
<text x="100" y="1654" fill="#17212b" font-size="11" font-weight="500"><tspan x="100" dy="0">2</tspan></text>
<text x="140" y="1653" fill="#17212b" font-size="14" font-weight="500"><tspan x="140" dy="0">Who makes memory official?</tspan></text>
<text x="140" y="1673" fill="#667085" font-size="9" font-weight="500"><tspan x="140" dy="0">Explored · 1 open</tspan></text>
<ellipse cx="105" cy="1707" rx="17" ry="17" fill="#dfff58" stroke="#17212b" stroke-width="2"/>
<text x="100" y="1709" fill="#17212b" font-size="11" font-weight="500"><tspan x="100" dy="0">3</tspan></text>
<text x="140" y="1708" fill="#17212b" font-size="14" font-weight="500"><tspan x="140" dy="0">When monuments disagree</tspan></text>
<text x="140" y="1728" fill="#667085" font-size="9" font-weight="500"><tspan x="140" dy="0">You are here · 2 open</tspan></text>
<text x="85" y="1766" fill="#506500" font-size="11" font-weight="500"><tspan x="85" dy="0">+ Show 2 other open branches</tspan></text>
<rect x="85" y="1795" width="490" height="245" rx="7" fill="#f1f6f8" stroke="#17212b" stroke-width="1" />
<text x="105" y="1825" fill="#667085" font-size="10" font-weight="500"><tspan x="105" dy="0">TURN 3 · ANSWER AT A GLANCE</tspan></text>
<text x="105" y="1873" fill="#17212b" font-size="21" font-weight="600"><tspan x="105" dy="0">What happens when a monument</tspan><tspan x="105" dy="26.25">and its community disagree?</tspan></text>
<text x="105" y="1937" fill="#17212b" font-size="15" font-weight="500"><tspan x="105" dy="0">Conflict is about who is allowed to define</tspan><tspan x="105" dy="18.75">the public meaning of a place.</tspan></text>
<text x="105" y="1997" fill="#17212b" font-size="11" font-weight="500"><tspan x="105" dy="0">Read full answer  ↓</tspan></text>
<text x="85" y="2080" fill="#d64b38" font-size="10" font-weight="500"><tspan x="85" dy="0">NEXT MOVE</tspan></text>
<rect x="85" y="2100" width="490" height="100" rx="7" fill="#efffc4" stroke="#849c15" stroke-width="1" />
<text x="105" y="2133" fill="#17212b" font-size="15" font-weight="500"><tspan x="105" dy="0">A · Who gets to rename a public place?</tspan></text>
<text x="105" y="2173" fill="#506500" font-size="10" font-weight="500"><tspan x="105" dy="0">EXPLORE  →</tspan></text>
<rect x="85" y="2215" width="490" height="100" rx="7" fill="#acd8ff" stroke="#17212b" stroke-width="1" />
<text x="105" y="2248" fill="#17212b" font-size="15" font-weight="500"><tspan x="105" dy="0">B · Can removal create stronger memory?</tspan></text>
<text x="105" y="2288" fill="#17212b" font-size="10" font-weight="500"><tspan x="105" dy="0">EXPLORE  →</tspan></text>
<text x="85" y="2354" fill="#667085" font-size="11" font-weight="500"><tspan x="85" dy="0">Sticky PATH / ANSWER / NEXT links keep the page</tspan><tspan x="85" dy="13.75">orientable without pretending three columns fit on a phone.</tspan></text>
<text x="680" y="1334" fill="#d64b38" font-size="14" font-weight="500"><tspan x="680" dy="0">THE PRODUCT MODEL BECOMES THE LAYOUT</tspan></text>
<rect x="680" y="1355" width="1500" height="420" rx="7" fill="#f1f6f8" stroke="#c5d0d7" stroke-width="2" />
<rect x="735" y="1445" width="300" height="130" rx="7" fill="#fffdf8" stroke="#17212b" stroke-width="2" />
<text x="770" y="1481" fill="#667085" font-size="11" font-weight="500"><tspan x="770" dy="0">1 · ORIENT</tspan></text>
<text x="770" y="1522" fill="#17212b" font-size="20" font-weight="500"><tspan x="770" dy="0">See the whole</tspan><tspan x="770" dy="25">journey outline</tspan></text>
<polyline points="1035,1510 1145,1510" fill="none" stroke="#17212b" stroke-width="3"/>
<path d="M1134,1503 L1145,1510 L1134,1517" fill="none" stroke="#17212b" stroke-width="3"/>
<rect x="1145" y="1445" width="300" height="130" rx="7" fill="#acd8ff" stroke="#17212b" stroke-width="3" />
<text x="1180" y="1481" fill="#667085" font-size="11" font-weight="500"><tspan x="1180" dy="0">2 · UNDERSTAND</tspan></text>
<text x="1180" y="1522" fill="#17212b" font-size="20" font-weight="500"><tspan x="1180" dy="0">Read the selected</tspan><tspan x="1180" dy="25">turn in context</tspan></text>
<polyline points="1445,1510 1555,1510" fill="none" stroke="#17212b" stroke-width="3"/>
<path d="M1544,1503 L1555,1510 L1544,1517" fill="none" stroke="#17212b" stroke-width="3"/>
<rect x="1555" y="1445" width="300" height="130" rx="7" fill="#efffc4" stroke="#849c15" stroke-width="2" />
<text x="1590" y="1481" fill="#667085" font-size="11" font-weight="500"><tspan x="1590" dy="0">3 · CONTINUE</tspan></text>
<text x="1590" y="1522" fill="#17212b" font-size="20" font-weight="500"><tspan x="1590" dy="0">Choose exactly one</tspan><tspan x="1590" dy="25">of two earned paths</tspan></text>
<polyline points="1855,1510 1965,1510 1965,1665 770,1665 770,1640" fill="none" stroke="#667085" stroke-width="2"/>
<path d="M759,1633 L770,1640 L759,1647" fill="none" stroke="#667085" stroke-width="2"/>
<text x="1185" y="1705" fill="#667085" font-size="13" font-weight="500"><tspan x="1185" dy="0">New turn appears in the outline; context is never lost.</tspan></text>
<rect x="680" y="1815" width="1500" height="580" rx="7" fill="#fffdf8" stroke="#17212b" stroke-width="2" />
<text x="720" y="1863" fill="#d64b38" font-size="13" font-weight="500"><tspan x="720" dy="0">WHY THIS FITS THE CODE THAT EXISTS</tspan></text>
<text x="720" y="1906" fill="#667085" font-size="11" font-weight="500"><tspan x="720" dy="0">KEEP</tspan></text>
<text x="720" y="1941" fill="#17212b" font-size="16" font-weight="500"><tspan x="720" dy="0">• Existing JourneyDetail, turns, parentTurnId, options, and actions</tspan><tspan x="720" dy="20">• Exactly two options per ready turn</tspan><tspan x="720" dy="20">• Full answer, citations, snapshots, performer, and next-model control</tspan><tspan x="720" dy="20">• Library, compare, usage, and settings as global destinations</tspan></text>
<text x="720" y="2076" fill="#667085" font-size="11" font-weight="500"><tspan x="720" dy="0">CHANGE</tspan></text>
<text x="720" y="2111" fill="#17212b" font-size="16" font-weight="500"><tspan x="720" dy="0">• Merge Stage and Journey map into one Journey Atlas route</tspan><tspan x="720" dy="20">• Make selected turn the single source of context for center + right rails</tspan><tspan x="720" dy="20">• Keep the complete outline persistent on desktop and collapsible on tablet</tspan><tspan x="720" dy="20">• Use sticky jump links and stacked sections on mobile</tspan></text>
<text x="720" y="2246" fill="#667085" font-size="11" font-weight="500"><tspan x="720" dy="0">THE CORE PRINCIPLE</tspan></text>
<rect x="720" y="2265" width="1400" height="80" rx="7" fill="#dfff58" stroke="#17212b" stroke-width="1" />
<text x="755" y="2307" fill="#17212b" font-size="19" font-weight="500"><tspan x="755" dy="0">Show everything that explains the journey — but give only one thing at a time the strongest visual weight.</tspan></text>
</svg>