<svg xmlns="http://www.w3.org/2000/svg" width="1360" height="1040" viewBox="0 0 1360 1040">
<rect width="1360" height="1040" fill="#f7f3ea"/>
<style>text{font-family:Arial,Helvetica,sans-serif}</style>
<g transform="translate(-30 -1065)">
<text x="50" y="1110" fill="#15261f" font-size="25" font-weight="600" opacity="1"><tspan x="50" dy="0">03 · FOCUS A BRANCH DELIBERATELY</tspan></text>
<text x="50" y="1136" fill="#66736d" font-size="13" font-weight="500" opacity="1"><tspan x="50" dy="0">A branch never jumps into place unexpectedly. Focus is an explicit action with breadcrumbs and a clear return path.</tspan></text>
<rect x="50" y="1163" width="1320" height="900" rx="6" fill="#fffdf8" stroke="#15261f" stroke-width="3" opacity="1" />
<rect x="105" y="1201" width="430" height="820" rx="6" fill="#fffdf8" stroke="#15261f" stroke-width="3" opacity="1" />
<rect x="105" y="1201" width="430" height="50" rx="6" fill="#ece8df" stroke="#15261f" stroke-width="1" opacity="1" />
<text x="125" y="1230" fill="#15261f" font-size="12" font-weight="500" opacity="1"><tspan x="125" dy="0">CURIOSITYPEDIA</tspan></text>
<text x="483" y="1227" fill="#15261f" font-size="10" font-weight="500" opacity="1"><tspan x="483" dy="0">•••</tspan></text>
<rect x="105" y="1251" width="430" height="76" rx="6" fill="#edf2ee" stroke="#bfc8c2" stroke-width="1" opacity="1" />
<text x="123" y="1282" fill="#15261f" font-size="16" font-weight="500" opacity="1"><tspan x="123" dy="0">Archives &amp; power</tspan></text>
<text x="123" y="1304" fill="#66736d" font-size="9" font-weight="500" opacity="1"><tspan x="123" dy="0">Focused branch · 9 turns · from Turn 14</tspan></text>
<rect x="105" y="1327" width="430" height="44" rx="6" fill="#fffdf8" stroke="#bfc8c2" stroke-width="1" opacity="1" />
<text x="122" y="1350" fill="#66736d" font-size="9" font-weight="500" opacity="1"><tspan x="122" dy="0">‹ FULL TREE</tspan></text>
<rect x="245" y="1335" width="90" height="27" rx="6" fill="#edf2ee" stroke="#15261f" stroke-width="1" opacity="1" />
<text x="254" y="1351" fill="#15261f" font-size="9" font-weight="500" opacity="1"><tspan x="254" dy="0">BRANCH 2/3</tspan></text>
<text x="448" y="1350" fill="#66736d" font-size="9" font-weight="500" opacity="1"><tspan x="448" dy="0">SEARCH</tspan></text>
<rect x="123" y="1382" width="394" height="38" rx="6" fill="#edf2ee" stroke="#bfc8c2" stroke-width="1" opacity="1" />
<text x="139" y="1404" fill="#15261f" font-size="9" font-weight="500" opacity="1"><tspan x="139" dy="0">Root  ›  official memory  ›  archives &amp; power</tspan></text>
<rect x="247" y="1435" width="146" height="32" rx="6" fill="#15261f" stroke="#15261f" stroke-width="1" opacity="1" />
<text x="259" y="1453" fill="#fffdf8" font-size="9" font-weight="500" opacity="1"><tspan x="259" dy="0">↑ PARENT · TURN 14</tspan></text>
<polyline points="320,1467 320,1515" fill="none" stroke="#15261f" stroke-width="4" opacity="1" />
<rect x="230" y="1515" width="180" height="72" rx="6" fill="#ffd8d0" stroke="#15261f" stroke-width="3" opacity="1" />
<ellipse cx="253" cy="1538" rx="13" ry="13" fill="#edf2ee" stroke="#15261f" stroke-width="1" opacity="1"/>
<text x="250" y="1541" fill="#15261f" font-size="9" font-weight="500" opacity="1"><tspan x="250" dy="0">31</tspan></text>
<text x="275" y="1534" fill="#66736d" font-size="8" font-weight="500" opacity="1"><tspan x="275" dy="0">TURN</tspan></text>
<text x="240" y="1567" fill="#15261f" font-size="11" font-weight="500" opacity="1"><tspan x="240" dy="0">Who controls archives?</tspan></text>
<polyline points="320,1587 320,1611 210,1611 210,1649" fill="none" stroke="#15261f" stroke-width="4" opacity="1" />
<polyline points="320,1611 430,1611 430,1649" fill="none" stroke="#526800" stroke-width="2" opacity="1" stroke-dasharray="8 6"/>
<rect x="133" y="1649" width="154" height="72" rx="6" fill="#fffdf8" stroke="#15261f" stroke-width="1" opacity="1" />
<ellipse cx="156" cy="1672" rx="13" ry="13" fill="#edf2ee" stroke="#15261f" stroke-width="1" opacity="1"/>
<text x="153" y="1675" fill="#15261f" font-size="9" font-weight="500" opacity="1"><tspan x="153" dy="0">32</tspan></text>
<text x="178" y="1668" fill="#66736d" font-size="8" font-weight="500" opacity="1"><tspan x="178" dy="0">TURN</tspan></text>
<text x="143" y="1701" fill="#15261f" font-size="11" font-weight="500" opacity="1"><tspan x="143" dy="0">What gets preserved?</tspan></text>
<rect x="355" y="1649" width="152" height="72" rx="6" fill="#edffc1" stroke="#526800" stroke-width="1" opacity="1" stroke-dasharray="8 6"/>
<ellipse cx="378" cy="1672" rx="13" ry="13" fill="#edf2ee" stroke="#526800" stroke-width="1" opacity="1"/>
<text x="375" y="1675" fill="#15261f" font-size="9" font-weight="500" opacity="1"><tspan x="375" dy="0">33</tspan></text>
<text x="400" y="1668" fill="#526800" font-size="8" font-weight="500" opacity="1"><tspan x="400" dy="0">OPEN PATH</tspan></text>
<text x="365" y="1701" fill="#15261f" font-size="11" font-weight="500" opacity="1"><tspan x="365" dy="0">Who gets access?</tspan></text>
<polyline points="210,1721 210,1763 302,1763 302,1813" fill="none" stroke="#15261f" stroke-width="4" opacity="1" />
<rect x="228" y="1821" width="165" height="70" rx="6" fill="#edf2ee" stroke="#bfc8c2" stroke-width="1" opacity="1" />
<rect x="224" y="1817" width="165" height="70" rx="6" fill="#edf2ee" stroke="#bfc8c2" stroke-width="1" opacity="1" />
<rect x="220" y="1813" width="165" height="70" rx="6" fill="#e8dcff" stroke="#15261f" stroke-width="2" opacity="1" />
<text x="230" y="1833" fill="#15261f" font-size="9" font-weight="500" opacity="1"><tspan x="230" dy="0">RECORDS BRANCH</tspan></text>
<text x="230" y="1859" fill="#66736d" font-size="9" font-weight="500" opacity="1"><tspan x="230" dy="0">5 turns · 3 open</tspan></text>
<text x="363" y="1855" fill="#15261f" font-size="15" font-weight="500" opacity="1"><tspan x="363" dy="0">+</tspan></text>
<rect x="105" y="1971" width="430" height="50" rx="6" fill="#fffdf8" stroke="#bfc8c2" stroke-width="1" opacity="1" />
<text x="145" y="1998" fill="#15261f" font-size="9" font-weight="500" opacity="1"><tspan x="145" dy="0">BACK</tspan></text>
<text x="285" y="1998" fill="#15261f" font-size="9" font-weight="500" opacity="1"><tspan x="285" dy="0">FIT BRANCH</tspan></text>
<text x="442" y="1998" fill="#15261f" font-size="9" font-weight="500" opacity="1"><tspan x="442" dy="0">OVERVIEW</tspan></text>
<rect x="585" y="1255" width="600" height="420" rx="6" fill="#edf2ee" stroke="#bfc8c2" stroke-width="2" opacity="1" />
<text x="613" y="1303" fill="#15261f" font-size="20" font-weight="600" opacity="1"><tspan x="613" dy="0">Focus is a mode change</tspan></text>
<text x="613" y="1338" fill="#66736d" font-size="13" font-weight="500" opacity="1"><tspan x="613" dy="0">The user chooses Focus branch. Only then does the selected subtree become the centered root of a bounded mobile view.</tspan></text>
<ellipse cx="632" cy="1409" rx="17" ry="17" fill="#dfff58" stroke="#15261f" stroke-width="1" opacity="1"/>
<text x="628" y="1411" fill="#15261f" font-size="11" font-weight="500" opacity="1"><tspan x="628" dy="0">1</tspan></text>
<text x="665" y="1403" fill="#15261f" font-size="12" font-weight="500" opacity="1"><tspan x="665" dy="0">Breadcrumb preserves ancestry</tspan></text>
<text x="665" y="1424" fill="#66736d" font-size="10" font-weight="500" opacity="1"><tspan x="665" dy="0">The original location never becomes mysterious.</tspan></text>
<ellipse cx="632" cy="1481" rx="17" ry="17" fill="#fffdf8" stroke="#15261f" stroke-width="1" opacity="1"/>
<text x="628" y="1483" fill="#15261f" font-size="11" font-weight="500" opacity="1"><tspan x="628" dy="0">2</tspan></text>
<text x="665" y="1475" fill="#15261f" font-size="12" font-weight="500" opacity="1"><tspan x="665" dy="0">Parent remains visible</tspan></text>
<text x="665" y="1496" fill="#66736d" font-size="10" font-weight="500" opacity="1"><tspan x="665" dy="0">The branch still feels connected to the full tree.</tspan></text>
<ellipse cx="632" cy="1553" rx="17" ry="17" fill="#fffdf8" stroke="#15261f" stroke-width="1" opacity="1"/>
<text x="628" y="1555" fill="#15261f" font-size="11" font-weight="500" opacity="1"><tspan x="628" dy="0">3</tspan></text>
<text x="665" y="1547" fill="#15261f" font-size="12" font-weight="500" opacity="1"><tspan x="665" dy="0">Return is persistent</tspan></text>
<text x="665" y="1568" fill="#66736d" font-size="10" font-weight="500" opacity="1"><tspan x="665" dy="0">Full tree is always one tap away.</tspan></text>
<rect x="75" y="1975" width="1270" height="76" rx="6" fill="#15261f" stroke="#15261f" stroke-width="1" opacity="1" />
<ellipse cx="113" cy="2013" rx="20" ry="20" fill="#dfff58" stroke="#dfff58" stroke-width="1" opacity="1"/>
<text x="108" y="2014" fill="#15261f" font-size="12" font-weight="500" opacity="1"><tspan x="108" dy="0">3</tspan></text>
<text x="151" y="2000" fill="#dfff58" font-size="11" font-weight="500" opacity="1"><tspan x="151" dy="0">RE-ROOTING MUST BE EXPLICIT</tspan></text>
<text x="151" y="2025" fill="#fffdf8" font-size="11" font-weight="500" opacity="1"><tspan x="151" dy="0">Changing spatial context is safe when the user initiates it and sees how to return.</tspan></text>
</g>
</svg>