<svg xmlns="http://www.w3.org/2000/svg" width="1360" height="1040" viewBox="0 0 1360 1040">
<rect width="1360" height="1040" fill="#f7f3ea"/>
<style>text{font-family:Arial,Helvetica,sans-serif}</style>
<g transform="translate(-1400 -1065)">
<text x="1420" y="1110" fill="#15261f" font-size="25" font-weight="600" opacity="1"><tspan x="1420" dy="0">04 · ZOOM CHANGES DETAIL, NOT STRUCTURE</tspan></text>
<text x="1420" y="1136" fill="#66736d" font-size="13" font-weight="500" opacity="1"><tspan x="1420" dy="0">The same top-down tree has three visual densities. Labels disappear before nodes become impossible to tap.</tspan></text>
<rect x="1420" y="1163" width="1320" height="900" rx="6" fill="#fffdf8" stroke="#15261f" stroke-width="3" opacity="1" />
<rect x="1475" y="1201" width="430" height="820" rx="6" fill="#fffdf8" stroke="#15261f" stroke-width="3" opacity="1" />
<rect x="1475" y="1201" width="430" height="50" rx="6" fill="#ece8df" stroke="#15261f" stroke-width="1" opacity="1" />
<text x="1495" y="1230" fill="#15261f" font-size="12" font-weight="500" opacity="1"><tspan x="1495" dy="0">WONDERDRIVE</tspan></text>
<text x="1853" y="1227" fill="#15261f" font-size="10" font-weight="500" opacity="1"><tspan x="1853" dy="0">•••</tspan></text>
<rect x="1475" y="1251" width="430" height="76" rx="6" fill="#edf2ee" stroke="#bfc8c2" stroke-width="1" opacity="1" />
<text x="1493" y="1282" fill="#15261f" font-size="16" font-weight="500" opacity="1"><tspan x="1493" dy="0">Journey tree</tspan></text>
<text x="1493" y="1304" fill="#66736d" font-size="9" font-weight="500" opacity="1"><tspan x="1493" dy="0">58 turns · Overview · 38% zoom</tspan></text>
<rect x="1475" y="1327" width="430" height="44" rx="6" fill="#fffdf8" stroke="#bfc8c2" stroke-width="1" opacity="1" />
<text x="1492" y="1350" fill="#66736d" font-size="9" font-weight="500" opacity="1"><tspan x="1492" dy="0">‹ LIBRARY</tspan></text>
<rect x="1615" y="1335" width="90" height="27" rx="6" fill="#edf2ee" stroke="#15261f" stroke-width="1" opacity="1" />
<text x="1624" y="1351" fill="#15261f" font-size="9" font-weight="500" opacity="1"><tspan x="1624" dy="0">38% · FIT</tspan></text>
<text x="1818" y="1350" fill="#66736d" font-size="9" font-weight="500" opacity="1"><tspan x="1818" dy="0">FOCUS</tspan></text>
<ellipse cx="1690" cy="1410" rx="13" ry="13" fill="#edf2ee" stroke="#15261f" stroke-width="2" opacity="1"/>
<text x="1686" y="1413" fill="#15261f" font-size="9" font-weight="500" opacity="1"><tspan x="1686" dy="0">1</tspan></text>
<polyline points="1690,1423 1690,1447 1585,1447 1585,1479" fill="none" stroke="#bfc8c2" stroke-width="2" opacity="1" />
<polyline points="1690,1447 1795,1447 1795,1479" fill="none" stroke="#15261f" stroke-width="4" opacity="1" />
<rect x="1521" y="1487" width="140" height="70" rx="6" fill="#edf2ee" stroke="#bfc8c2" stroke-width="1" opacity="1" />
<rect x="1517" y="1483" width="140" height="70" rx="6" fill="#edf2ee" stroke="#bfc8c2" stroke-width="1" opacity="1" />
<rect x="1513" y="1479" width="140" height="70" rx="6" fill="#fffdf8" stroke="#15261f" stroke-width="2" opacity="1" />
<text x="1523" y="1499" fill="#15261f" font-size="9" font-weight="500" opacity="1"><tspan x="1523" dy="0">6 TURNS</tspan></text>
<text x="1523" y="1525" fill="#66736d" font-size="9" font-weight="500" opacity="1"><tspan x="1523" dy="0">4 open</tspan></text>
<text x="1631" y="1521" fill="#15261f" font-size="15" font-weight="500" opacity="1"><tspan x="1631" dy="0">+</tspan></text>
<ellipse cx="1796" cy="1493" rx="14" ry="14" fill="#edf2ee" stroke="#15261f" stroke-width="2" opacity="1"/>
<text x="1792" y="1496" fill="#15261f" font-size="9" font-weight="500" opacity="1"><tspan x="1792" dy="0">4</tspan></text>
<polyline points="1796,1507 1796,1531 1689,1531 1689,1561" fill="none" stroke="#bfc8c2" stroke-width="2" opacity="1" />
<polyline points="1796,1531 1823,1531 1823,1561" fill="none" stroke="#15261f" stroke-width="4" opacity="1" />
<rect x="1618" y="1569" width="150" height="70" rx="6" fill="#edf2ee" stroke="#bfc8c2" stroke-width="1" opacity="1" />
<rect x="1614" y="1565" width="150" height="70" rx="6" fill="#edf2ee" stroke="#bfc8c2" stroke-width="1" opacity="1" />
<rect x="1610" y="1561" width="150" height="70" rx="6" fill="#fffdf8" stroke="#15261f" stroke-width="2" opacity="1" />
<text x="1620" y="1581" fill="#15261f" font-size="9" font-weight="500" opacity="1"><tspan x="1620" dy="0">8 TURNS</tspan></text>
<text x="1620" y="1607" fill="#66736d" font-size="9" font-weight="500" opacity="1"><tspan x="1620" dy="0">3 open</tspan></text>
<text x="1738" y="1603" fill="#15261f" font-size="15" font-weight="500" opacity="1"><tspan x="1738" dy="0">+</tspan></text>
<ellipse cx="1825" cy="1576" rx="15" ry="15" fill="#dfff58" stroke="#15261f" stroke-width="3" opacity="1"/>
<text x="1821" y="1579" fill="#15261f" font-size="9" font-weight="500" opacity="1"><tspan x="1821" dy="0">8</tspan></text>
<polyline points="1825,1591 1825,1615 1710,1615 1710,1647" fill="none" stroke="#bfc8c2" stroke-width="2" opacity="1" />
<polyline points="1825,1615 1840,1615 1840,1647" fill="none" stroke="#15261f" stroke-width="4" opacity="1" stroke-dasharray="8 6"/>
<rect x="1641" y="1655" width="155" height="70" rx="6" fill="#edf2ee" stroke="#bfc8c2" stroke-width="1" opacity="1" />
<rect x="1637" y="1651" width="155" height="70" rx="6" fill="#edf2ee" stroke="#bfc8c2" stroke-width="1" opacity="1" />
<rect x="1633" y="1647" width="155" height="70" rx="6" fill="#e8dcff" stroke="#15261f" stroke-width="2" opacity="1" />
<text x="1643" y="1667" fill="#15261f" font-size="9" font-weight="500" opacity="1"><tspan x="1643" dy="0">12 TURNS</tspan></text>
<text x="1643" y="1693" fill="#66736d" font-size="9" font-weight="500" opacity="1"><tspan x="1643" dy="0">7 open</tspan></text>
<text x="1766" y="1689" fill="#15261f" font-size="15" font-weight="500" opacity="1"><tspan x="1766" dy="0">+</tspan></text>
<ellipse cx="1842" cy="1662" rx="15" ry="15" fill="#edffc1" stroke="#526800" stroke-width="2" opacity="1"/>
<text x="1836" y="1667" fill="#526800" font-size="11" font-weight="500" opacity="1"><tspan x="1836" dy="0">+</tspan></text>
<rect x="1499" y="1741" width="382" height="120" rx="6" fill="#edf2ee" stroke="#bfc8c2" stroke-width="1" opacity="1" />
<text x="1519" y="1768" fill="#66736d" font-size="9" font-weight="500" opacity="1"><tspan x="1519" dy="0">SEMANTIC ZOOM</tspan></text>
<text x="1519" y="1800" fill="#15261f" font-size="11" font-weight="500" opacity="1"><tspan x="1519" dy="0">38%  Shape + route + counts</tspan></text>
<text x="1519" y="1829" fill="#15261f" font-size="11" font-weight="500" opacity="1"><tspan x="1519" dy="0">65%  Topics + short questions</tspan></text>
<text x="1519" y="1858" fill="#15261f" font-size="11" font-weight="500" opacity="1"><tspan x="1519" dy="0">100% Full turn cards + actions</tspan></text>
<rect x="1475" y="1971" width="430" height="50" rx="6" fill="#fffdf8" stroke="#bfc8c2" stroke-width="1" opacity="1" />
<text x="1510" y="2001" fill="#15261f" font-size="12" font-weight="500" opacity="1"><tspan x="1510" dy="0">−</tspan></text>
<text x="1630" y="1998" fill="#15261f" font-size="9" font-weight="500" opacity="1"><tspan x="1630" dy="0">FIT WIDTH</tspan></text>
<text x="1815" y="2001" fill="#15261f" font-size="12" font-weight="500" opacity="1"><tspan x="1815" dy="0">+</tspan></text>
<rect x="1955" y="1255" width="600" height="420" rx="6" fill="#edf2ee" stroke="#bfc8c2" stroke-width="2" opacity="1" />
<text x="1983" y="1303" fill="#15261f" font-size="20" font-weight="600" opacity="1"><tspan x="1983" dy="0">What never changes</tspan></text>
<text x="1983" y="1338" fill="#66736d" font-size="13" font-weight="500" opacity="1"><tspan x="1983" dy="0">Hierarchy, direction, active route, selection, and touch area remain stable across zoom levels.</tspan></text>
<ellipse cx="2002" cy="1409" rx="17" ry="17" fill="#dfff58" stroke="#15261f" stroke-width="1" opacity="1"/>
<text x="1998" y="1411" fill="#15261f" font-size="11" font-weight="500" opacity="1"><tspan x="1998" dy="0">1</tspan></text>
<text x="2035" y="1403" fill="#15261f" font-size="12" font-weight="500" opacity="1"><tspan x="2035" dy="0">Low zoom</tspan></text>
<text x="2035" y="1424" fill="#66736d" font-size="10" font-weight="500" opacity="1"><tspan x="2035" dy="0">Markers and branch piles provide shape and scale.</tspan></text>
<ellipse cx="2002" cy="1481" rx="17" ry="17" fill="#fffdf8" stroke="#15261f" stroke-width="1" opacity="1"/>
<text x="1998" y="1483" fill="#15261f" font-size="11" font-weight="500" opacity="1"><tspan x="1998" dy="0">2</tspan></text>
<text x="2035" y="1475" fill="#15261f" font-size="12" font-weight="500" opacity="1"><tspan x="2035" dy="0">Medium zoom</tspan></text>
<text x="2035" y="1496" fill="#66736d" font-size="10" font-weight="500" opacity="1"><tspan x="2035" dy="0">Topic names and short questions appear.</tspan></text>
<ellipse cx="2002" cy="1553" rx="17" ry="17" fill="#fffdf8" stroke="#15261f" stroke-width="1" opacity="1"/>
<text x="1998" y="1555" fill="#15261f" font-size="11" font-weight="500" opacity="1"><tspan x="1998" dy="0">3</tspan></text>
<text x="2035" y="1547" fill="#15261f" font-size="12" font-weight="500" opacity="1"><tspan x="2035" dy="0">High zoom</tspan></text>
<text x="2035" y="1568" fill="#66736d" font-size="10" font-weight="500" opacity="1"><tspan x="2035" dy="0">Full cards expose answer and branch actions.</tspan></text>
<rect x="1445" y="1975" width="1270" height="76" rx="6" fill="#15261f" stroke="#15261f" stroke-width="1" opacity="1" />
<ellipse cx="1483" cy="2013" rx="20" ry="20" fill="#dfff58" stroke="#dfff58" stroke-width="1" opacity="1"/>
<text x="1478" y="2014" fill="#15261f" font-size="12" font-weight="500" opacity="1"><tspan x="1478" dy="0">4</tspan></text>
<text x="1521" y="2000" fill="#dfff58" font-size="11" font-weight="500" opacity="1"><tspan x="1521" dy="0">LEGIBILITY WINS OVER COMPLETENESS</tspan></text>
<text x="1521" y="2025" fill="#fffdf8" font-size="11" font-weight="500" opacity="1"><tspan x="1521" dy="0">At overview scale, compact truthful marks are better than microscopic cards.</tspan></text>
</g>
</svg>