<svg xmlns="http://www.w3.org/2000/svg" width="2770" height="3190" viewBox="0 0 2770 3190">
<rect width="2770" height="3190" fill="#f7f3ea"/>
<style>text{font-family:Arial,Helvetica,sans-serif}</style>
<g transform="translate(-20 0)">
<text x="50" y="60" fill="#15261f" font-size="25" font-weight="600" opacity="1"><tspan x="50" dy="0">01 · ROTATE THE TREE, NOT THE PHONE</tspan></text>
<text x="50" y="86" fill="#66736d" font-size="13" font-weight="500" opacity="1"><tspan x="50" dy="0">The same directed tree runs top-to-bottom. Journey depth becomes natural vertical scrolling instead of horizontal drift.</tspan></text>
<rect x="50" y="113" width="1320" height="900" rx="6" fill="#fffdf8" stroke="#15261f" stroke-width="3" opacity="1" />
<rect x="105" y="145" width="430" height="820" rx="6" fill="#fffdf8" stroke="#15261f" stroke-width="3" opacity="1" />
<rect x="105" y="145" width="430" height="50" rx="6" fill="#ece8df" stroke="#15261f" stroke-width="1" opacity="1" />
<text x="125" y="174" fill="#15261f" font-size="12" font-weight="500" opacity="1"><tspan x="125" dy="0">WONDERDRIVE</tspan></text>
<text x="483" y="171" fill="#15261f" font-size="10" font-weight="500" opacity="1"><tspan x="483" dy="0">•••</tspan></text>
<rect x="105" y="195" width="430" height="76" rx="6" fill="#edf2ee" stroke="#bfc8c2" stroke-width="1" opacity="1" />
<text x="123" y="226" fill="#15261f" font-size="16" font-weight="500" opacity="1"><tspan x="123" dy="0">Journey tree</tspan></text>
<text x="123" y="248" fill="#66736d" font-size="9" font-weight="500" opacity="1"><tspan x="123" dy="0">Turn 8 of 12 · 7 open paths · Overview</tspan></text>
<rect x="105" y="271" width="430" height="44" rx="6" fill="#fffdf8" stroke="#bfc8c2" stroke-width="1" opacity="1" />
<text x="122" y="294" fill="#66736d" font-size="9" font-weight="500" opacity="1"><tspan x="122" dy="0">‹ LIBRARY</tspan></text>
<rect x="245" y="279" width="90" height="27" rx="6" fill="#edf2ee" stroke="#15261f" stroke-width="1" opacity="1" />
<text x="254" y="295" fill="#15261f" font-size="9" font-weight="500" opacity="1"><tspan x="254" dy="0">FIT WIDTH</tspan></text>
<text x="448" y="294" fill="#66736d" font-size="9" font-weight="500" opacity="1"><tspan x="448" dy="0">SEARCH</tspan></text>
<rect x="245" y="333" width="150" height="72" rx="6" fill="#fffdf8" stroke="#15261f" stroke-width="1" opacity="1" />
<ellipse cx="268" cy="356" rx="13" ry="13" fill="#edf2ee" stroke="#15261f" stroke-width="1" opacity="1"/>
<text x="265" y="359" fill="#15261f" font-size="9" font-weight="500" opacity="1"><tspan x="265" dy="0">1</tspan></text>
<text x="290" y="352" fill="#66736d" font-size="8" font-weight="500" opacity="1"><tspan x="290" dy="0">TURN</tspan></text>
<text x="255" y="385" fill="#15261f" font-size="11" font-weight="500" opacity="1"><tspan x="255" dy="0">Cities and memory</tspan></text>
<polyline points="320,405 320,429 200,429 200,459" fill="none" stroke="#bfc8c2" stroke-width="2" opacity="1" />
<polyline points="320,429 435,429 435,459" fill="none" stroke="#15261f" stroke-width="4" opacity="1" />
<rect x="141" y="467" width="142" height="70" rx="6" fill="#edf2ee" stroke="#bfc8c2" stroke-width="1" opacity="1" />
<rect x="137" y="463" width="142" height="70" rx="6" fill="#edf2ee" stroke="#bfc8c2" stroke-width="1" opacity="1" />
<rect x="133" y="459" width="142" height="70" rx="6" fill="#fffdf8" stroke="#15261f" stroke-width="2" opacity="1" />
<text x="143" y="479" fill="#15261f" font-size="9" font-weight="500" opacity="1"><tspan x="143" dy="0">FORGOTTEN PLACES</tspan></text>
<text x="143" y="505" fill="#66736d" font-size="9" font-weight="500" opacity="1"><tspan x="143" dy="0">6 turns · 4 open</tspan></text>
<text x="253" y="501" fill="#15261f" font-size="15" font-weight="500" opacity="1"><tspan x="253" dy="0">+</tspan></text>
<rect x="360" y="459" width="150" height="72" rx="6" fill="#fffdf8" stroke="#15261f" stroke-width="1" opacity="1" />
<ellipse cx="383" cy="482" rx="13" ry="13" fill="#edf2ee" stroke="#15261f" stroke-width="1" opacity="1"/>
<text x="380" y="485" fill="#15261f" font-size="9" font-weight="500" opacity="1"><tspan x="380" dy="0">4</tspan></text>
<text x="405" y="478" fill="#66736d" font-size="8" font-weight="500" opacity="1"><tspan x="405" dy="0">TURN</tspan></text>
<text x="370" y="511" fill="#15261f" font-size="11" font-weight="500" opacity="1"><tspan x="370" dy="0">Official memory</tspan></text>
<polyline points="435,531 435,555 320,555 320,585" fill="none" stroke="#bfc8c2" stroke-width="2" opacity="1" />
<polyline points="435,555 460,555 460,585" fill="none" stroke="#15261f" stroke-width="4" opacity="1" stroke-dasharray="8 6"/>
<rect x="255" y="593" width="145" height="70" rx="6" fill="#edf2ee" stroke="#bfc8c2" stroke-width="1" opacity="1" />
<rect x="251" y="589" width="145" height="70" rx="6" fill="#edf2ee" stroke="#bfc8c2" stroke-width="1" opacity="1" />
<rect x="247" y="585" width="145" height="70" rx="6" fill="#fffdf8" stroke="#15261f" stroke-width="2" opacity="1" />
<text x="257" y="605" fill="#15261f" font-size="9" font-weight="500" opacity="1"><tspan x="257" dy="0">ARCHIVES</tspan></text>
<text x="257" y="631" fill="#66736d" font-size="9" font-weight="500" opacity="1"><tspan x="257" dy="0">8 turns · 3 open</tspan></text>
<text x="370" y="627" fill="#15261f" font-size="15" font-weight="500" opacity="1"><tspan x="370" dy="0">+</tspan></text>
<rect x="397" y="585" width="125" height="72" rx="6" fill="#a9d4ff" stroke="#15261f" stroke-width="3" opacity="1" />
<ellipse cx="420" cy="608" rx="13" ry="13" fill="#dfff58" stroke="#15261f" stroke-width="1" opacity="1"/>
<text x="417" y="611" fill="#15261f" font-size="9" font-weight="500" opacity="1"><tspan x="417" dy="0">8</tspan></text>
<text x="442" y="604" fill="#66736d" font-size="8" font-weight="500" opacity="1"><tspan x="442" dy="0">TURN</tspan></text>
<text x="407" y="637" fill="#15261f" font-size="11" font-weight="500" opacity="1"><tspan x="407" dy="0">Monuments disagree</tspan></text>
<polyline points="460,657 460,707" fill="none" stroke="#15261f" stroke-width="4" opacity="1" />
<rect x="385" y="707" width="150" height="72" rx="6" fill="#edffc1" stroke="#526800" stroke-width="1" opacity="1" stroke-dasharray="8 6"/>
<ellipse cx="408" cy="730" rx="13" ry="13" fill="#edf2ee" stroke="#526800" stroke-width="1" opacity="1"/>
<text x="405" y="733" fill="#15261f" font-size="9" font-weight="500" opacity="1"><tspan x="405" dy="0">9</tspan></text>
<text x="430" y="726" fill="#526800" font-size="8" font-weight="500" opacity="1"><tspan x="430" dy="0">OPEN PATH</tspan></text>
<text x="395" y="759" fill="#15261f" font-size="11" font-weight="500" opacity="1"><tspan x="395" dy="0">Who renames a place?</tspan></text>
<rect x="123" y="861" width="146" height="32" rx="6" fill="#15261f" stroke="#15261f" stroke-width="1" opacity="1" />
<text x="135" y="879" fill="#fffdf8" font-size="9" font-weight="500" opacity="1"><tspan x="135" dy="0">↓ DEPTH 5–12 BELOW</tspan></text>
<rect x="105" y="915" width="430" height="50" rx="6" fill="#fffdf8" stroke="#bfc8c2" stroke-width="1" opacity="1" />
<text x="140" y="942" fill="#15261f" font-size="9" font-weight="500" opacity="1"><tspan x="140" dy="0">OVERVIEW</tspan></text>
<text x="275" y="942" fill="#15261f" font-size="9" font-weight="500" opacity="1"><tspan x="275" dy="0">YOU ARE HERE</tspan></text>
<text x="435" y="942" fill="#15261f" font-size="9" font-weight="500" opacity="1"><tspan x="435" dy="0">OPEN 7</tspan></text>
<rect x="585" y="205" width="600" height="420" rx="6" fill="#edf2ee" stroke="#bfc8c2" stroke-width="2" opacity="1" />
<text x="613" y="253" fill="#15261f" font-size="20" font-weight="600" opacity="1"><tspan x="613" dy="0">Why it scales better</tspan></text>
<text x="613" y="288" fill="#66736d" font-size="13" font-weight="500" opacity="1"><tspan x="613" dy="0">Depth grows downward—the direction phones already scroll. Breadth is compressed deliberately rather than pushed off-screen.</tspan></text>
<ellipse cx="632" cy="359" rx="17" ry="17" fill="#dfff58" stroke="#15261f" stroke-width="1" opacity="1"/>
<text x="628" y="361" fill="#15261f" font-size="11" font-weight="500" opacity="1"><tspan x="628" dy="0">1</tspan></text>
<text x="665" y="353" fill="#15261f" font-size="12" font-weight="500" opacity="1"><tspan x="665" dy="0">One orientation</tspan></text>
<text x="665" y="374" fill="#66736d" font-size="10" font-weight="500" opacity="1"><tspan x="665" dy="0">Root stays above descendants at every size.</tspan></text>
<ellipse cx="632" cy="431" rx="17" ry="17" fill="#fffdf8" stroke="#15261f" stroke-width="1" opacity="1"/>
<text x="628" y="433" fill="#15261f" font-size="11" font-weight="500" opacity="1"><tspan x="628" dy="0">2</tspan></text>
<text x="665" y="425" fill="#15261f" font-size="12" font-weight="500" opacity="1"><tspan x="665" dy="0">No required sideways pan</tspan></text>
<text x="665" y="446" fill="#66736d" font-size="10" font-weight="500" opacity="1"><tspan x="665" dy="0">Fit width is the stable default viewport.</tspan></text>
<ellipse cx="632" cy="503" rx="17" ry="17" fill="#fffdf8" stroke="#15261f" stroke-width="1" opacity="1"/>
<text x="628" y="505" fill="#15261f" font-size="11" font-weight="500" opacity="1"><tspan x="628" dy="0">3</tspan></text>
<text x="665" y="497" fill="#15261f" font-size="12" font-weight="500" opacity="1"><tspan x="665" dy="0">Hidden depth is explicit</tspan></text>
<text x="665" y="518" fill="#66736d" font-size="10" font-weight="500" opacity="1"><tspan x="665" dy="0">Edge badges show where more tree exists.</tspan></text>
<rect x="75" y="919" width="1270" height="76" rx="6" fill="#15261f" stroke="#15261f" stroke-width="1" opacity="1" />
<ellipse cx="113" cy="957" rx="20" ry="20" fill="#dfff58" stroke="#dfff58" stroke-width="1" opacity="1"/>
<text x="108" y="958" fill="#15261f" font-size="12" font-weight="500" opacity="1"><tspan x="108" dy="0">1</tspan></text>
<text x="151" y="944" fill="#dfff58" font-size="11" font-weight="500" opacity="1"><tspan x="151" dy="0">VERTICAL DEPTH IS THE MOBILE DEFAULT</tspan></text>
<text x="151" y="969" fill="#fffdf8" font-size="11" font-weight="500" opacity="1"><tspan x="151" dy="0">The hierarchy is unchanged; only its orientation responds to the screen.</tspan></text>
<text x="1420" y="60" fill="#15261f" font-size="25" font-weight="600" opacity="1"><tspan x="1420" dy="0">02 · FOLD BREADTH WITHOUT FLATTENING THE TREE</tspan></text>
<text x="1420" y="86" fill="#66736d" font-size="13" font-weight="500" opacity="1"><tspan x="1420" dy="0">Distant subtrees remain attached to their real parents as branch piles with researched/open counts.</tspan></text>
<rect x="1420" y="113" width="1320" height="900" rx="6" fill="#fffdf8" stroke="#15261f" stroke-width="3" opacity="1" />
<rect x="1475" y="145" width="430" height="820" rx="6" fill="#fffdf8" stroke="#15261f" stroke-width="3" opacity="1" />
<rect x="1475" y="145" width="430" height="50" rx="6" fill="#ece8df" stroke="#15261f" stroke-width="1" opacity="1" />
<text x="1495" y="174" fill="#15261f" font-size="12" font-weight="500" opacity="1"><tspan x="1495" dy="0">WONDERDRIVE</tspan></text>
<text x="1853" y="171" fill="#15261f" font-size="10" font-weight="500" opacity="1"><tspan x="1853" dy="0">•••</tspan></text>
<rect x="1475" y="195" width="430" height="76" rx="6" fill="#edf2ee" stroke="#bfc8c2" stroke-width="1" opacity="1" />
<text x="1493" y="226" fill="#15261f" font-size="16" font-weight="500" opacity="1"><tspan x="1493" dy="0">Journey tree</tspan></text>
<text x="1493" y="248" fill="#66736d" font-size="9" font-weight="500" opacity="1"><tspan x="1493" dy="0">58 turns · 31 open paths · Focus route</tspan></text>
<rect x="1475" y="271" width="430" height="44" rx="6" fill="#fffdf8" stroke="#bfc8c2" stroke-width="1" opacity="1" />
<text x="1492" y="294" fill="#66736d" font-size="9" font-weight="500" opacity="1"><tspan x="1492" dy="0">‹ LIBRARY</tspan></text>
<rect x="1615" y="279" width="90" height="27" rx="6" fill="#15261f" stroke="#15261f" stroke-width="1" opacity="1" />
<text x="1624" y="295" fill="#15261f" font-size="9" font-weight="500" opacity="1"><tspan x="1624" dy="0">FOCUS ROUTE</tspan></text>
<text x="1818" y="294" fill="#66736d" font-size="9" font-weight="500" opacity="1"><tspan x="1818" dy="0">SEARCH</tspan></text>
<rect x="1509" y="381" width="160" height="70" rx="6" fill="#edf2ee" stroke="#bfc8c2" stroke-width="1" opacity="1" />
<rect x="1505" y="377" width="160" height="70" rx="6" fill="#edf2ee" stroke="#bfc8c2" stroke-width="1" opacity="1" />
<rect x="1501" y="373" width="160" height="70" rx="6" fill="#fffdf8" stroke="#15261f" stroke-width="2" opacity="1" />
<text x="1511" y="393" fill="#15261f" font-size="9" font-weight="500" opacity="1"><tspan x="1511" dy="0">3 BRANCHES ABOVE</tspan></text>
<text x="1511" y="419" fill="#66736d" font-size="9" font-weight="500" opacity="1"><tspan x="1511" dy="0">18 turns · 11 open</tspan></text>
<text x="1639" y="415" fill="#15261f" font-size="15" font-weight="500" opacity="1"><tspan x="1639" dy="0">+</tspan></text>
<rect x="1725" y="373" width="150" height="72" rx="6" fill="#fffdf8" stroke="#15261f" stroke-width="1" opacity="1" />
<ellipse cx="1748" cy="396" rx="13" ry="13" fill="#edf2ee" stroke="#15261f" stroke-width="1" opacity="1"/>
<text x="1745" y="399" fill="#15261f" font-size="9" font-weight="500" opacity="1"><tspan x="1745" dy="0">14</tspan></text>
<text x="1770" y="392" fill="#66736d" font-size="8" font-weight="500" opacity="1"><tspan x="1770" dy="0">TURN</tspan></text>
<text x="1735" y="425" fill="#15261f" font-size="11" font-weight="500" opacity="1"><tspan x="1735" dy="0">Official memory</tspan></text>
<polyline points="1805,445 1805,487 1687,487 1687,541" fill="none" stroke="#15261f" stroke-width="4" opacity="1" />
<polyline points="1687,487 1587,487 1587,541" fill="none" stroke="#bfc8c2" stroke-width="2" opacity="1" />
<rect x="1515" y="549" width="158" height="70" rx="6" fill="#edf2ee" stroke="#bfc8c2" stroke-width="1" opacity="1" />
<rect x="1511" y="545" width="158" height="70" rx="6" fill="#edf2ee" stroke="#bfc8c2" stroke-width="1" opacity="1" />
<rect x="1507" y="541" width="158" height="70" rx="6" fill="#fffdf8" stroke="#15261f" stroke-width="2" opacity="1" />
<text x="1517" y="561" fill="#15261f" font-size="9" font-weight="500" opacity="1"><tspan x="1517" dy="0">ARCHIVES &amp; POWER</tspan></text>
<text x="1517" y="587" fill="#66736d" font-size="9" font-weight="500" opacity="1"><tspan x="1517" dy="0">9 turns · 6 open</tspan></text>
<text x="1643" y="583" fill="#15261f" font-size="15" font-weight="500" opacity="1"><tspan x="1643" dy="0">+</tspan></text>
<rect x="1612" y="541" width="170" height="72" rx="6" fill="#fffdf8" stroke="#15261f" stroke-width="1" opacity="1" />
<ellipse cx="1635" cy="564" rx="13" ry="13" fill="#edf2ee" stroke="#15261f" stroke-width="1" opacity="1"/>
<text x="1632" y="567" fill="#15261f" font-size="9" font-weight="500" opacity="1"><tspan x="1632" dy="0">31</tspan></text>
<text x="1657" y="560" fill="#66736d" font-size="8" font-weight="500" opacity="1"><tspan x="1657" dy="0">TURN</tspan></text>
<text x="1622" y="593" fill="#15261f" font-size="11" font-weight="500" opacity="1"><tspan x="1622" dy="0">Contested monuments</tspan></text>
<polyline points="1697,613 1697,663 1792,663 1792,717" fill="none" stroke="#15261f" stroke-width="4" opacity="1" />
<rect x="1505" y="725" width="168" height="70" rx="6" fill="#edf2ee" stroke="#bfc8c2" stroke-width="1" opacity="1" />
<rect x="1501" y="721" width="168" height="70" rx="6" fill="#edf2ee" stroke="#bfc8c2" stroke-width="1" opacity="1" />
<rect x="1497" y="717" width="168" height="70" rx="6" fill="#fffdf8" stroke="#15261f" stroke-width="2" opacity="1" />
<text x="1507" y="737" fill="#15261f" font-size="9" font-weight="500" opacity="1"><tspan x="1507" dy="0">COUNTER-MEMORY</tspan></text>
<text x="1507" y="763" fill="#66736d" font-size="9" font-weight="500" opacity="1"><tspan x="1507" dy="0">10 turns · 6 open</tspan></text>
<text x="1643" y="759" fill="#15261f" font-size="15" font-weight="500" opacity="1"><tspan x="1643" dy="0">+</tspan></text>
<rect x="1717" y="717" width="165" height="72" rx="6" fill="#a9d4ff" stroke="#15261f" stroke-width="3" opacity="1" />
<ellipse cx="1740" cy="740" rx="13" ry="13" fill="#dfff58" stroke="#15261f" stroke-width="1" opacity="1"/>
<text x="1737" y="743" fill="#15261f" font-size="9" font-weight="500" opacity="1"><tspan x="1737" dy="0">47</tspan></text>
<text x="1762" y="736" fill="#66736d" font-size="8" font-weight="500" opacity="1"><tspan x="1762" dy="0">TURN</tspan></text>
<text x="1727" y="769" fill="#15261f" font-size="11" font-weight="500" opacity="1"><tspan x="1727" dy="0">Removal and memory</tspan></text>
<rect x="1725" y="861" width="146" height="32" rx="6" fill="#15261f" stroke="#15261f" stroke-width="1" opacity="1" />
<text x="1737" y="879" fill="#fffdf8" font-size="9" font-weight="500" opacity="1"><tspan x="1737" dy="0">↓ 12 TURNS BELOW</tspan></text>
<rect x="1475" y="915" width="430" height="50" rx="6" fill="#fffdf8" stroke="#bfc8c2" stroke-width="1" opacity="1" />
<text x="1508" y="942" fill="#15261f" font-size="9" font-weight="500" opacity="1"><tspan x="1508" dy="0">FULL TREE</tspan></text>
<text x="1639" y="942" fill="#15261f" font-size="9" font-weight="500" opacity="1"><tspan x="1639" dy="0">FIT ROUTE</tspan></text>
<text x="1798" y="942" fill="#15261f" font-size="9" font-weight="500" opacity="1"><tspan x="1798" dy="0">OPEN 31</tspan></text>
<rect x="1955" y="205" width="600" height="420" rx="6" fill="#edf2ee" stroke="#bfc8c2" stroke-width="2" opacity="1" />
<text x="1983" y="253" fill="#15261f" font-size="20" font-weight="600" opacity="1"><tspan x="1983" dy="0">How a 58-turn tree fits</tspan></text>
<text x="1983" y="288" fill="#66736d" font-size="13" font-weight="500" opacity="1"><tspan x="1983" dy="0">Every hidden subtree has a visible anchor, name, and count. Expanding a pile replaces only that local region.</tspan></text>
<ellipse cx="2002" cy="359" rx="17" ry="17" fill="#dfff58" stroke="#15261f" stroke-width="1" opacity="1"/>
<text x="1998" y="361" fill="#15261f" font-size="11" font-weight="500" opacity="1"><tspan x="1998" dy="0">1</tspan></text>
<text x="2035" y="353" fill="#15261f" font-size="12" font-weight="500" opacity="1"><tspan x="2035" dy="0">Active route stays detailed</tspan></text>
<text x="2035" y="374" fill="#66736d" font-size="10" font-weight="500" opacity="1"><tspan x="2035" dy="0">The path being followed never collapses.</tspan></text>
<ellipse cx="2002" cy="431" rx="17" ry="17" fill="#fffdf8" stroke="#15261f" stroke-width="1" opacity="1"/>
<text x="1998" y="433" fill="#15261f" font-size="11" font-weight="500" opacity="1"><tspan x="1998" dy="0">2</tspan></text>
<text x="2035" y="425" fill="#15261f" font-size="12" font-weight="500" opacity="1"><tspan x="2035" dy="0">Side branches become piles</tspan></text>
<text x="2035" y="446" fill="#66736d" font-size="10" font-weight="500" opacity="1"><tspan x="2035" dy="0">They remain graph nodes—not a detached list.</tspan></text>
<ellipse cx="2002" cy="503" rx="17" ry="17" fill="#fffdf8" stroke="#15261f" stroke-width="1" opacity="1"/>
<text x="1998" y="505" fill="#15261f" font-size="11" font-weight="500" opacity="1"><tspan x="1998" dy="0">3</tspan></text>
<text x="2035" y="497" fill="#15261f" font-size="12" font-weight="500" opacity="1"><tspan x="2035" dy="0">Expansion is local</tspan></text>
<text x="2035" y="518" fill="#66736d" font-size="10" font-weight="500" opacity="1"><tspan x="2035" dy="0">Other depth bands keep their positions.</tspan></text>
<rect x="1445" y="919" width="1270" height="76" rx="6" fill="#15261f" stroke="#15261f" stroke-width="1" opacity="1" />
<ellipse cx="1483" cy="957" rx="20" ry="20" fill="#dfff58" stroke="#dfff58" stroke-width="1" opacity="1"/>
<text x="1478" y="958" fill="#15261f" font-size="12" font-weight="500" opacity="1"><tspan x="1478" dy="0">2</tspan></text>
<text x="1521" y="944" fill="#dfff58" font-size="11" font-weight="500" opacity="1"><tspan x="1521" dy="0">COMPRESSION PRESERVES PARENTHOOD</tspan></text>
<text x="1521" y="969" fill="#fffdf8" font-size="11" font-weight="500" opacity="1"><tspan x="1521" dy="0">A pile always sits on the same edge as the subtree it represents.</tspan></text>
<text x="50" y="1110" fill="#15261f" font-size="25" font-weight="600" opacity="1"><tspan x="50" dy="0">03 · FOCUS A BRANCH DELIBERATELY</tspan></text>
<text x="50" y="1136" fill="#66736d" font-size="13" font-weight="500" opacity="1"><tspan x="50" dy="0">A branch never jumps into place unexpectedly. Focus is an explicit action with breadcrumbs and a clear return path.</tspan></text>
<rect x="50" y="1163" width="1320" height="900" rx="6" fill="#fffdf8" stroke="#15261f" stroke-width="3" opacity="1" />
<rect x="105" y="1201" width="430" height="820" rx="6" fill="#fffdf8" stroke="#15261f" stroke-width="3" opacity="1" />
<rect x="105" y="1201" width="430" height="50" rx="6" fill="#ece8df" stroke="#15261f" stroke-width="1" opacity="1" />
<text x="125" y="1230" fill="#15261f" font-size="12" font-weight="500" opacity="1"><tspan x="125" dy="0">WONDERDRIVE</tspan></text>
<text x="483" y="1227" fill="#15261f" font-size="10" font-weight="500" opacity="1"><tspan x="483" dy="0">•••</tspan></text>
<rect x="105" y="1251" width="430" height="76" rx="6" fill="#edf2ee" stroke="#bfc8c2" stroke-width="1" opacity="1" />
<text x="123" y="1282" fill="#15261f" font-size="16" font-weight="500" opacity="1"><tspan x="123" dy="0">Archives &amp; power</tspan></text>
<text x="123" y="1304" fill="#66736d" font-size="9" font-weight="500" opacity="1"><tspan x="123" dy="0">Focused branch · 9 turns · from Turn 14</tspan></text>
<rect x="105" y="1327" width="430" height="44" rx="6" fill="#fffdf8" stroke="#bfc8c2" stroke-width="1" opacity="1" />
<text x="122" y="1350" fill="#66736d" font-size="9" font-weight="500" opacity="1"><tspan x="122" dy="0">‹ FULL TREE</tspan></text>
<rect x="245" y="1335" width="90" height="27" rx="6" fill="#edf2ee" stroke="#15261f" stroke-width="1" opacity="1" />
<text x="254" y="1351" fill="#15261f" font-size="9" font-weight="500" opacity="1"><tspan x="254" dy="0">BRANCH 2/3</tspan></text>
<text x="448" y="1350" fill="#66736d" font-size="9" font-weight="500" opacity="1"><tspan x="448" dy="0">SEARCH</tspan></text>
<rect x="123" y="1382" width="394" height="38" rx="6" fill="#edf2ee" stroke="#bfc8c2" stroke-width="1" opacity="1" />
<text x="139" y="1404" fill="#15261f" font-size="9" font-weight="500" opacity="1"><tspan x="139" dy="0">Root  ›  official memory  ›  archives &amp; power</tspan></text>
<rect x="247" y="1435" width="146" height="32" rx="6" fill="#15261f" stroke="#15261f" stroke-width="1" opacity="1" />
<text x="259" y="1453" fill="#fffdf8" font-size="9" font-weight="500" opacity="1"><tspan x="259" dy="0">↑ PARENT · TURN 14</tspan></text>
<polyline points="320,1467 320,1515" fill="none" stroke="#15261f" stroke-width="4" opacity="1" />
<rect x="230" y="1515" width="180" height="72" rx="6" fill="#ffd8d0" stroke="#15261f" stroke-width="3" opacity="1" />
<ellipse cx="253" cy="1538" rx="13" ry="13" fill="#edf2ee" stroke="#15261f" stroke-width="1" opacity="1"/>
<text x="250" y="1541" fill="#15261f" font-size="9" font-weight="500" opacity="1"><tspan x="250" dy="0">31</tspan></text>
<text x="275" y="1534" fill="#66736d" font-size="8" font-weight="500" opacity="1"><tspan x="275" dy="0">TURN</tspan></text>
<text x="240" y="1567" fill="#15261f" font-size="11" font-weight="500" opacity="1"><tspan x="240" dy="0">Who controls archives?</tspan></text>
<polyline points="320,1587 320,1611 210,1611 210,1649" fill="none" stroke="#15261f" stroke-width="4" opacity="1" />
<polyline points="320,1611 430,1611 430,1649" fill="none" stroke="#526800" stroke-width="2" opacity="1" stroke-dasharray="8 6"/>
<rect x="133" y="1649" width="154" height="72" rx="6" fill="#fffdf8" stroke="#15261f" stroke-width="1" opacity="1" />
<ellipse cx="156" cy="1672" rx="13" ry="13" fill="#edf2ee" stroke="#15261f" stroke-width="1" opacity="1"/>
<text x="153" y="1675" fill="#15261f" font-size="9" font-weight="500" opacity="1"><tspan x="153" dy="0">32</tspan></text>
<text x="178" y="1668" fill="#66736d" font-size="8" font-weight="500" opacity="1"><tspan x="178" dy="0">TURN</tspan></text>
<text x="143" y="1701" fill="#15261f" font-size="11" font-weight="500" opacity="1"><tspan x="143" dy="0">What gets preserved?</tspan></text>
<rect x="355" y="1649" width="152" height="72" rx="6" fill="#edffc1" stroke="#526800" stroke-width="1" opacity="1" stroke-dasharray="8 6"/>
<ellipse cx="378" cy="1672" rx="13" ry="13" fill="#edf2ee" stroke="#526800" stroke-width="1" opacity="1"/>
<text x="375" y="1675" fill="#15261f" font-size="9" font-weight="500" opacity="1"><tspan x="375" dy="0">33</tspan></text>
<text x="400" y="1668" fill="#526800" font-size="8" font-weight="500" opacity="1"><tspan x="400" dy="0">OPEN PATH</tspan></text>
<text x="365" y="1701" fill="#15261f" font-size="11" font-weight="500" opacity="1"><tspan x="365" dy="0">Who gets access?</tspan></text>
<polyline points="210,1721 210,1763 302,1763 302,1813" fill="none" stroke="#15261f" stroke-width="4" opacity="1" />
<rect x="228" y="1821" width="165" height="70" rx="6" fill="#edf2ee" stroke="#bfc8c2" stroke-width="1" opacity="1" />
<rect x="224" y="1817" width="165" height="70" rx="6" fill="#edf2ee" stroke="#bfc8c2" stroke-width="1" opacity="1" />
<rect x="220" y="1813" width="165" height="70" rx="6" fill="#e8dcff" stroke="#15261f" stroke-width="2" opacity="1" />
<text x="230" y="1833" fill="#15261f" font-size="9" font-weight="500" opacity="1"><tspan x="230" dy="0">RECORDS BRANCH</tspan></text>
<text x="230" y="1859" fill="#66736d" font-size="9" font-weight="500" opacity="1"><tspan x="230" dy="0">5 turns · 3 open</tspan></text>
<text x="363" y="1855" fill="#15261f" font-size="15" font-weight="500" opacity="1"><tspan x="363" dy="0">+</tspan></text>
<rect x="105" y="1971" width="430" height="50" rx="6" fill="#fffdf8" stroke="#bfc8c2" stroke-width="1" opacity="1" />
<text x="145" y="1998" fill="#15261f" font-size="9" font-weight="500" opacity="1"><tspan x="145" dy="0">BACK</tspan></text>
<text x="285" y="1998" fill="#15261f" font-size="9" font-weight="500" opacity="1"><tspan x="285" dy="0">FIT BRANCH</tspan></text>
<text x="442" y="1998" fill="#15261f" font-size="9" font-weight="500" opacity="1"><tspan x="442" dy="0">OVERVIEW</tspan></text>
<rect x="585" y="1255" width="600" height="420" rx="6" fill="#edf2ee" stroke="#bfc8c2" stroke-width="2" opacity="1" />
<text x="613" y="1303" fill="#15261f" font-size="20" font-weight="600" opacity="1"><tspan x="613" dy="0">Focus is a mode change</tspan></text>
<text x="613" y="1338" fill="#66736d" font-size="13" font-weight="500" opacity="1"><tspan x="613" dy="0">The user chooses Focus branch. Only then does the selected subtree become the centered root of a bounded mobile view.</tspan></text>
<ellipse cx="632" cy="1409" rx="17" ry="17" fill="#dfff58" stroke="#15261f" stroke-width="1" opacity="1"/>
<text x="628" y="1411" fill="#15261f" font-size="11" font-weight="500" opacity="1"><tspan x="628" dy="0">1</tspan></text>
<text x="665" y="1403" fill="#15261f" font-size="12" font-weight="500" opacity="1"><tspan x="665" dy="0">Breadcrumb preserves ancestry</tspan></text>
<text x="665" y="1424" fill="#66736d" font-size="10" font-weight="500" opacity="1"><tspan x="665" dy="0">The original location never becomes mysterious.</tspan></text>
<ellipse cx="632" cy="1481" rx="17" ry="17" fill="#fffdf8" stroke="#15261f" stroke-width="1" opacity="1"/>
<text x="628" y="1483" fill="#15261f" font-size="11" font-weight="500" opacity="1"><tspan x="628" dy="0">2</tspan></text>
<text x="665" y="1475" fill="#15261f" font-size="12" font-weight="500" opacity="1"><tspan x="665" dy="0">Parent remains visible</tspan></text>
<text x="665" y="1496" fill="#66736d" font-size="10" font-weight="500" opacity="1"><tspan x="665" dy="0">The branch still feels connected to the full tree.</tspan></text>
<ellipse cx="632" cy="1553" rx="17" ry="17" fill="#fffdf8" stroke="#15261f" stroke-width="1" opacity="1"/>
<text x="628" y="1555" fill="#15261f" font-size="11" font-weight="500" opacity="1"><tspan x="628" dy="0">3</tspan></text>
<text x="665" y="1547" fill="#15261f" font-size="12" font-weight="500" opacity="1"><tspan x="665" dy="0">Return is persistent</tspan></text>
<text x="665" y="1568" fill="#66736d" font-size="10" font-weight="500" opacity="1"><tspan x="665" dy="0">Full tree is always one tap away.</tspan></text>
<rect x="75" y="1975" width="1270" height="76" rx="6" fill="#15261f" stroke="#15261f" stroke-width="1" opacity="1" />
<ellipse cx="113" cy="2013" rx="20" ry="20" fill="#dfff58" stroke="#dfff58" stroke-width="1" opacity="1"/>
<text x="108" y="2014" fill="#15261f" font-size="12" font-weight="500" opacity="1"><tspan x="108" dy="0">3</tspan></text>
<text x="151" y="2000" fill="#dfff58" font-size="11" font-weight="500" opacity="1"><tspan x="151" dy="0">RE-ROOTING MUST BE EXPLICIT</tspan></text>
<text x="151" y="2025" fill="#fffdf8" font-size="11" font-weight="500" opacity="1"><tspan x="151" dy="0">Changing spatial context is safe when the user initiates it and sees how to return.</tspan></text>
<text x="1420" y="1110" fill="#15261f" font-size="25" font-weight="600" opacity="1"><tspan x="1420" dy="0">04 · ZOOM CHANGES DETAIL, NOT STRUCTURE</tspan></text>
<text x="1420" y="1136" fill="#66736d" font-size="13" font-weight="500" opacity="1"><tspan x="1420" dy="0">The same top-down tree has three visual densities. Labels disappear before nodes become impossible to tap.</tspan></text>
<rect x="1420" y="1163" width="1320" height="900" rx="6" fill="#fffdf8" stroke="#15261f" stroke-width="3" opacity="1" />
<rect x="1475" y="1201" width="430" height="820" rx="6" fill="#fffdf8" stroke="#15261f" stroke-width="3" opacity="1" />
<rect x="1475" y="1201" width="430" height="50" rx="6" fill="#ece8df" stroke="#15261f" stroke-width="1" opacity="1" />
<text x="1495" y="1230" fill="#15261f" font-size="12" font-weight="500" opacity="1"><tspan x="1495" dy="0">WONDERDRIVE</tspan></text>
<text x="1853" y="1227" fill="#15261f" font-size="10" font-weight="500" opacity="1"><tspan x="1853" dy="0">•••</tspan></text>
<rect x="1475" y="1251" width="430" height="76" rx="6" fill="#edf2ee" stroke="#bfc8c2" stroke-width="1" opacity="1" />
<text x="1493" y="1282" fill="#15261f" font-size="16" font-weight="500" opacity="1"><tspan x="1493" dy="0">Journey tree</tspan></text>
<text x="1493" y="1304" fill="#66736d" font-size="9" font-weight="500" opacity="1"><tspan x="1493" dy="0">58 turns · Overview · 38% zoom</tspan></text>
<rect x="1475" y="1327" width="430" height="44" rx="6" fill="#fffdf8" stroke="#bfc8c2" stroke-width="1" opacity="1" />
<text x="1492" y="1350" fill="#66736d" font-size="9" font-weight="500" opacity="1"><tspan x="1492" dy="0">‹ LIBRARY</tspan></text>
<rect x="1615" y="1335" width="90" height="27" rx="6" fill="#edf2ee" stroke="#15261f" stroke-width="1" opacity="1" />
<text x="1624" y="1351" fill="#15261f" font-size="9" font-weight="500" opacity="1"><tspan x="1624" dy="0">38% · FIT</tspan></text>
<text x="1818" y="1350" fill="#66736d" font-size="9" font-weight="500" opacity="1"><tspan x="1818" dy="0">FOCUS</tspan></text>
<ellipse cx="1690" cy="1410" rx="13" ry="13" fill="#edf2ee" stroke="#15261f" stroke-width="2" opacity="1"/>
<text x="1686" y="1413" fill="#15261f" font-size="9" font-weight="500" opacity="1"><tspan x="1686" dy="0">1</tspan></text>
<polyline points="1690,1423 1690,1447 1585,1447 1585,1479" fill="none" stroke="#bfc8c2" stroke-width="2" opacity="1" />
<polyline points="1690,1447 1795,1447 1795,1479" fill="none" stroke="#15261f" stroke-width="4" opacity="1" />
<rect x="1521" y="1487" width="140" height="70" rx="6" fill="#edf2ee" stroke="#bfc8c2" stroke-width="1" opacity="1" />
<rect x="1517" y="1483" width="140" height="70" rx="6" fill="#edf2ee" stroke="#bfc8c2" stroke-width="1" opacity="1" />
<rect x="1513" y="1479" width="140" height="70" rx="6" fill="#fffdf8" stroke="#15261f" stroke-width="2" opacity="1" />
<text x="1523" y="1499" fill="#15261f" font-size="9" font-weight="500" opacity="1"><tspan x="1523" dy="0">6 TURNS</tspan></text>
<text x="1523" y="1525" fill="#66736d" font-size="9" font-weight="500" opacity="1"><tspan x="1523" dy="0">4 open</tspan></text>
<text x="1631" y="1521" fill="#15261f" font-size="15" font-weight="500" opacity="1"><tspan x="1631" dy="0">+</tspan></text>
<ellipse cx="1796" cy="1493" rx="14" ry="14" fill="#edf2ee" stroke="#15261f" stroke-width="2" opacity="1"/>
<text x="1792" y="1496" fill="#15261f" font-size="9" font-weight="500" opacity="1"><tspan x="1792" dy="0">4</tspan></text>
<polyline points="1796,1507 1796,1531 1689,1531 1689,1561" fill="none" stroke="#bfc8c2" stroke-width="2" opacity="1" />
<polyline points="1796,1531 1823,1531 1823,1561" fill="none" stroke="#15261f" stroke-width="4" opacity="1" />
<rect x="1618" y="1569" width="150" height="70" rx="6" fill="#edf2ee" stroke="#bfc8c2" stroke-width="1" opacity="1" />
<rect x="1614" y="1565" width="150" height="70" rx="6" fill="#edf2ee" stroke="#bfc8c2" stroke-width="1" opacity="1" />
<rect x="1610" y="1561" width="150" height="70" rx="6" fill="#fffdf8" stroke="#15261f" stroke-width="2" opacity="1" />
<text x="1620" y="1581" fill="#15261f" font-size="9" font-weight="500" opacity="1"><tspan x="1620" dy="0">8 TURNS</tspan></text>
<text x="1620" y="1607" fill="#66736d" font-size="9" font-weight="500" opacity="1"><tspan x="1620" dy="0">3 open</tspan></text>
<text x="1738" y="1603" fill="#15261f" font-size="15" font-weight="500" opacity="1"><tspan x="1738" dy="0">+</tspan></text>
<ellipse cx="1825" cy="1576" rx="15" ry="15" fill="#dfff58" stroke="#15261f" stroke-width="3" opacity="1"/>
<text x="1821" y="1579" fill="#15261f" font-size="9" font-weight="500" opacity="1"><tspan x="1821" dy="0">8</tspan></text>
<polyline points="1825,1591 1825,1615 1710,1615 1710,1647" fill="none" stroke="#bfc8c2" stroke-width="2" opacity="1" />
<polyline points="1825,1615 1840,1615 1840,1647" fill="none" stroke="#15261f" stroke-width="4" opacity="1" stroke-dasharray="8 6"/>
<rect x="1641" y="1655" width="155" height="70" rx="6" fill="#edf2ee" stroke="#bfc8c2" stroke-width="1" opacity="1" />
<rect x="1637" y="1651" width="155" height="70" rx="6" fill="#edf2ee" stroke="#bfc8c2" stroke-width="1" opacity="1" />
<rect x="1633" y="1647" width="155" height="70" rx="6" fill="#e8dcff" stroke="#15261f" stroke-width="2" opacity="1" />
<text x="1643" y="1667" fill="#15261f" font-size="9" font-weight="500" opacity="1"><tspan x="1643" dy="0">12 TURNS</tspan></text>
<text x="1643" y="1693" fill="#66736d" font-size="9" font-weight="500" opacity="1"><tspan x="1643" dy="0">7 open</tspan></text>
<text x="1766" y="1689" fill="#15261f" font-size="15" font-weight="500" opacity="1"><tspan x="1766" dy="0">+</tspan></text>
<ellipse cx="1842" cy="1662" rx="15" ry="15" fill="#edffc1" stroke="#526800" stroke-width="2" opacity="1"/>
<text x="1836" y="1667" fill="#526800" font-size="11" font-weight="500" opacity="1"><tspan x="1836" dy="0">+</tspan></text>
<rect x="1499" y="1741" width="382" height="120" rx="6" fill="#edf2ee" stroke="#bfc8c2" stroke-width="1" opacity="1" />
<text x="1519" y="1768" fill="#66736d" font-size="9" font-weight="500" opacity="1"><tspan x="1519" dy="0">SEMANTIC ZOOM</tspan></text>
<text x="1519" y="1800" fill="#15261f" font-size="11" font-weight="500" opacity="1"><tspan x="1519" dy="0">38%  Shape + route + counts</tspan></text>
<text x="1519" y="1829" fill="#15261f" font-size="11" font-weight="500" opacity="1"><tspan x="1519" dy="0">65%  Topics + short questions</tspan></text>
<text x="1519" y="1858" fill="#15261f" font-size="11" font-weight="500" opacity="1"><tspan x="1519" dy="0">100% Full turn cards + actions</tspan></text>
<rect x="1475" y="1971" width="430" height="50" rx="6" fill="#fffdf8" stroke="#bfc8c2" stroke-width="1" opacity="1" />
<text x="1510" y="2001" fill="#15261f" font-size="12" font-weight="500" opacity="1"><tspan x="1510" dy="0">−</tspan></text>
<text x="1630" y="1998" fill="#15261f" font-size="9" font-weight="500" opacity="1"><tspan x="1630" dy="0">FIT WIDTH</tspan></text>
<text x="1815" y="2001" fill="#15261f" font-size="12" font-weight="500" opacity="1"><tspan x="1815" dy="0">+</tspan></text>
<rect x="1955" y="1255" width="600" height="420" rx="6" fill="#edf2ee" stroke="#bfc8c2" stroke-width="2" opacity="1" />
<text x="1983" y="1303" fill="#15261f" font-size="20" font-weight="600" opacity="1"><tspan x="1983" dy="0">What never changes</tspan></text>
<text x="1983" y="1338" fill="#66736d" font-size="13" font-weight="500" opacity="1"><tspan x="1983" dy="0">Hierarchy, direction, active route, selection, and touch area remain stable across zoom levels.</tspan></text>
<ellipse cx="2002" cy="1409" rx="17" ry="17" fill="#dfff58" stroke="#15261f" stroke-width="1" opacity="1"/>
<text x="1998" y="1411" fill="#15261f" font-size="11" font-weight="500" opacity="1"><tspan x="1998" dy="0">1</tspan></text>
<text x="2035" y="1403" fill="#15261f" font-size="12" font-weight="500" opacity="1"><tspan x="2035" dy="0">Low zoom</tspan></text>
<text x="2035" y="1424" fill="#66736d" font-size="10" font-weight="500" opacity="1"><tspan x="2035" dy="0">Markers and branch piles provide shape and scale.</tspan></text>
<ellipse cx="2002" cy="1481" rx="17" ry="17" fill="#fffdf8" stroke="#15261f" stroke-width="1" opacity="1"/>
<text x="1998" y="1483" fill="#15261f" font-size="11" font-weight="500" opacity="1"><tspan x="1998" dy="0">2</tspan></text>
<text x="2035" y="1475" fill="#15261f" font-size="12" font-weight="500" opacity="1"><tspan x="2035" dy="0">Medium zoom</tspan></text>
<text x="2035" y="1496" fill="#66736d" font-size="10" font-weight="500" opacity="1"><tspan x="2035" dy="0">Topic names and short questions appear.</tspan></text>
<ellipse cx="2002" cy="1553" rx="17" ry="17" fill="#fffdf8" stroke="#15261f" stroke-width="1" opacity="1"/>
<text x="1998" y="1555" fill="#15261f" font-size="11" font-weight="500" opacity="1"><tspan x="1998" dy="0">3</tspan></text>
<text x="2035" y="1547" fill="#15261f" font-size="12" font-weight="500" opacity="1"><tspan x="2035" dy="0">High zoom</tspan></text>
<text x="2035" y="1568" fill="#66736d" font-size="10" font-weight="500" opacity="1"><tspan x="2035" dy="0">Full cards expose answer and branch actions.</tspan></text>
<rect x="1445" y="1975" width="1270" height="76" rx="6" fill="#15261f" stroke="#15261f" stroke-width="1" opacity="1" />
<ellipse cx="1483" cy="2013" rx="20" ry="20" fill="#dfff58" stroke="#dfff58" stroke-width="1" opacity="1"/>
<text x="1478" y="2014" fill="#15261f" font-size="12" font-weight="500" opacity="1"><tspan x="1478" dy="0">4</tspan></text>
<text x="1521" y="2000" fill="#dfff58" font-size="11" font-weight="500" opacity="1"><tspan x="1521" dy="0">LEGIBILITY WINS OVER COMPLETENESS</tspan></text>
<text x="1521" y="2025" fill="#fffdf8" font-size="11" font-weight="500" opacity="1"><tspan x="1521" dy="0">At overview scale, compact truthful marks are better than microscopic cards.</tspan></text>
<text x="50" y="2160" fill="#15261f" font-size="25" font-weight="600" opacity="1"><tspan x="50" dy="0">05 · ACT INSIDE THE TREE</tspan></text>
<text x="50" y="2186" fill="#66736d" font-size="13" font-weight="500" opacity="1"><tspan x="50" dy="0">Selecting and branching preserve the vertical hierarchy. Details rise from the bottom only after the tree establishes context.</tspan></text>
<rect x="50" y="2213" width="1320" height="900" rx="6" fill="#fffdf8" stroke="#15261f" stroke-width="3" opacity="1" />
<rect x="105" y="2251" width="430" height="820" rx="6" fill="#fffdf8" stroke="#15261f" stroke-width="3" opacity="1" />
<rect x="105" y="2251" width="430" height="50" rx="6" fill="#ece8df" stroke="#15261f" stroke-width="1" opacity="1" />
<text x="125" y="2280" fill="#15261f" font-size="12" font-weight="500" opacity="1"><tspan x="125" dy="0">WONDERDRIVE</tspan></text>
<text x="483" y="2277" fill="#15261f" font-size="10" font-weight="500" opacity="1"><tspan x="483" dy="0">•••</tspan></text>
<rect x="105" y="2301" width="430" height="76" rx="6" fill="#edf2ee" stroke="#bfc8c2" stroke-width="1" opacity="1" />
<text x="123" y="2332" fill="#15261f" font-size="16" font-weight="500" opacity="1"><tspan x="123" dy="0">Journey tree</tspan></text>
<text x="123" y="2354" fill="#66736d" font-size="9" font-weight="500" opacity="1"><tspan x="123" dy="0">Turn 8 selected · 2 open directions</tspan></text>
<rect x="105" y="2377" width="430" height="44" rx="6" fill="#fffdf8" stroke="#bfc8c2" stroke-width="1" opacity="1" />
<text x="122" y="2400" fill="#66736d" font-size="9" font-weight="500" opacity="1"><tspan x="122" dy="0">‹ LIBRARY</tspan></text>
<rect x="245" y="2385" width="90" height="27" rx="6" fill="#dfff58" stroke="#15261f" stroke-width="1" opacity="1" />
<text x="254" y="2401" fill="#15261f" font-size="9" font-weight="500" opacity="1"><tspan x="254" dy="0">YOU ARE HERE</tspan></text>
<text x="448" y="2400" fill="#66736d" font-size="9" font-weight="500" opacity="1"><tspan x="448" dy="0">SEARCH</tspan></text>
<rect x="247" y="2435" width="146" height="32" rx="6" fill="#15261f" stroke="#15261f" stroke-width="1" opacity="1" />
<text x="259" y="2453" fill="#fffdf8" font-size="9" font-weight="500" opacity="1"><tspan x="259" dy="0">↑ 3 ANCESTORS ABOVE</tspan></text>
<polyline points="320,2467 320,2509" fill="none" stroke="#15261f" stroke-width="4" opacity="1" />
<rect x="230" y="2509" width="180" height="72" rx="6" fill="#a9d4ff" stroke="#15261f" stroke-width="3" opacity="1" />
<ellipse cx="253" cy="2532" rx="13" ry="13" fill="#dfff58" stroke="#15261f" stroke-width="1" opacity="1"/>
<text x="250" y="2535" fill="#15261f" font-size="9" font-weight="500" opacity="1"><tspan x="250" dy="0">8</tspan></text>
<text x="275" y="2528" fill="#66736d" font-size="8" font-weight="500" opacity="1"><tspan x="275" dy="0">TURN</tspan></text>
<text x="240" y="2561" fill="#15261f" font-size="11" font-weight="500" opacity="1"><tspan x="240" dy="0">When monuments disagree</tspan></text>
<polyline points="320,2581 320,2605 210,2605 210,2639" fill="none" stroke="#15261f" stroke-width="4" opacity="1" />
<polyline points="320,2605 430,2605 430,2639" fill="none" stroke="#526800" stroke-width="2" opacity="1" stroke-dasharray="8 6"/>
<rect x="130" y="2639" width="158" height="72" rx="6" fill="#edffc1" stroke="#526800" stroke-width="1" opacity="1" stroke-dasharray="8 6"/>
<ellipse cx="153" cy="2662" rx="13" ry="13" fill="#edf2ee" stroke="#526800" stroke-width="1" opacity="1"/>
<text x="150" y="2665" fill="#15261f" font-size="9" font-weight="500" opacity="1"><tspan x="150" dy="0">9</tspan></text>
<text x="175" y="2658" fill="#526800" font-size="8" font-weight="500" opacity="1"><tspan x="175" dy="0">OPEN PATH</tspan></text>
<text x="140" y="2691" fill="#15261f" font-size="11" font-weight="500" opacity="1"><tspan x="140" dy="0">Who renames a place?</tspan></text>
<rect x="350" y="2639" width="160" height="72" rx="6" fill="#edffc1" stroke="#526800" stroke-width="1" opacity="1" stroke-dasharray="8 6"/>
<ellipse cx="373" cy="2662" rx="13" ry="13" fill="#edf2ee" stroke="#526800" stroke-width="1" opacity="1"/>
<text x="370" y="2665" fill="#15261f" font-size="9" font-weight="500" opacity="1"><tspan x="370" dy="0">10</tspan></text>
<text x="395" y="2658" fill="#526800" font-size="8" font-weight="500" opacity="1"><tspan x="395" dy="0">OPEN PATH</tspan></text>
<text x="360" y="2691" fill="#15261f" font-size="11" font-weight="500" opacity="1"><tspan x="360" dy="0">Can removal repair?</tspan></text>
<polyline points="210,2711 210,2746 320,2746 320,2784" fill="none" stroke="#526800" stroke-width="2" opacity="1" stroke-dasharray="8 6"/>
<rect x="233" y="2784" width="176" height="68" rx="6" fill="#edffc1" stroke="#526800" stroke-width="2" opacity="1" stroke-dasharray="8 6"/>
<text x="247" y="2805" fill="#526800" font-size="8" font-weight="500" opacity="1"><tspan x="247" dy="0">NEW TURN PREVIEW</tspan></text>
<text x="247" y="2832" fill="#15261f" font-size="11" font-weight="500" opacity="1"><tspan x="247" dy="0">Research appears here</tspan></text>
<rect x="105" y="2876" width="430" height="195" rx="6" fill="#fffdf8" stroke="#15261f" stroke-width="2" opacity="1" />
<rect x="270" y="2888" width="100" height="5" rx="6" fill="#bfc8c2" stroke="#bfc8c2" stroke-width="1" opacity="1" />
<text x="125" y="2921" fill="#d64b38" font-size="10" font-weight="500" opacity="1"><tspan x="125" dy="0">START A BRANCH FROM TURN 8?</tspan></text>
<text x="125" y="2957" fill="#15261f" font-size="15" font-weight="500" opacity="1"><tspan x="125" dy="0">The current route stays intact.</tspan></text>
<text x="125" y="2982" fill="#66736d" font-size="10" font-weight="500" opacity="1"><tspan x="125" dy="0">One live research turn will create the ghost node above.</tspan></text>
<rect x="125" y="3011" width="245" height="42" rx="6" fill="#15261f" stroke="#15261f" stroke-width="1" opacity="1" />
<text x="183" y="3036" fill="#fffdf8" font-size="10" font-weight="500" opacity="1"><tspan x="183" dy="0">START RESEARCH</tspan></text>
<text x="415" y="3037" fill="#15261f" font-size="10" font-weight="500" opacity="1"><tspan x="415" dy="0">Cancel</tspan></text>
<rect x="585" y="2305" width="600" height="420" rx="6" fill="#edf2ee" stroke="#bfc8c2" stroke-width="2" opacity="1" />
<text x="613" y="2353" fill="#15261f" font-size="20" font-weight="600" opacity="1"><tspan x="613" dy="0">The action remains spatial</tspan></text>
<text x="613" y="2388" fill="#66736d" font-size="13" font-weight="500" opacity="1"><tspan x="613" dy="0">The new turn is previewed as a child before confirmation. The sheet explains consequences without covering the parent and siblings.</tspan></text>
<ellipse cx="632" cy="2459" rx="17" ry="17" fill="#dfff58" stroke="#15261f" stroke-width="1" opacity="1"/>
<text x="628" y="2461" fill="#15261f" font-size="11" font-weight="500" opacity="1"><tspan x="628" dy="0">1</tspan></text>
<text x="665" y="2453" fill="#15261f" font-size="12" font-weight="500" opacity="1"><tspan x="665" dy="0">Context first</tspan></text>
<text x="665" y="2474" fill="#66736d" font-size="10" font-weight="500" opacity="1"><tspan x="665" dy="0">Parent and two directions stay visible.</tspan></text>
<ellipse cx="632" cy="2531" rx="17" ry="17" fill="#fffdf8" stroke="#15261f" stroke-width="1" opacity="1"/>
<text x="628" y="2533" fill="#15261f" font-size="11" font-weight="500" opacity="1"><tspan x="628" dy="0">2</tspan></text>
<text x="665" y="2525" fill="#15261f" font-size="12" font-weight="500" opacity="1"><tspan x="665" dy="0">Ghost node</tspan></text>
<text x="665" y="2546" fill="#66736d" font-size="10" font-weight="500" opacity="1"><tspan x="665" dy="0">The result's future location is concrete.</tspan></text>
<ellipse cx="632" cy="2603" rx="17" ry="17" fill="#fffdf8" stroke="#15261f" stroke-width="1" opacity="1"/>
<text x="628" y="2605" fill="#15261f" font-size="11" font-weight="500" opacity="1"><tspan x="628" dy="0">3</tspan></text>
<text x="665" y="2597" fill="#15261f" font-size="12" font-weight="500" opacity="1"><tspan x="665" dy="0">Partial sheet</tspan></text>
<text x="665" y="2618" fill="#66736d" font-size="10" font-weight="500" opacity="1"><tspan x="665" dy="0">Action details do not replace the graph.</tspan></text>
<rect x="75" y="3025" width="1270" height="76" rx="6" fill="#15261f" stroke="#15261f" stroke-width="1" opacity="1" />
<ellipse cx="113" cy="3063" rx="20" ry="20" fill="#dfff58" stroke="#dfff58" stroke-width="1" opacity="1"/>
<text x="108" y="3064" fill="#15261f" font-size="12" font-weight="500" opacity="1"><tspan x="108" dy="0">5</tspan></text>
<text x="151" y="3050" fill="#dfff58" font-size="11" font-weight="500" opacity="1"><tspan x="151" dy="0">BRANCHING SHOULD FEEL LIKE GROWING THE TREE</tspan></text>
<text x="151" y="3075" fill="#fffdf8" font-size="11" font-weight="500" opacity="1"><tspan x="151" dy="0">The interface previews the structural change before it spends or commits anything.</tspan></text>
</g>
</svg>